<svg xmlns="http://www.w3.org/2000/svg" width="22.278" height="22.277" viewBox="0 0 22.278 22.277">
  <g id="profile-user" transform="translate(-3 -0.001)">
    <path id="Path_1340" data-name="Path 1340" d="M11.139,0A11.139,11.139,0,1,0,22.278,11.14,11.139,11.139,0,0,0,11.139,0Zm0,3.331A3.684,3.684,0,1,1,7.455,7.016,3.685,3.685,0,0,1,11.139,3.332Zm0,16.035A8.175,8.175,0,0,1,5.813,17.4a1.57,1.57,0,0,1-.551-1.193A3.716,3.716,0,0,1,9,12.5h4.287a3.71,3.71,0,0,1,3.728,3.715,1.566,1.566,0,0,1-.55,1.193A8.172,8.172,0,0,1,11.137,19.366Z" transform="translate(3)" fill="#8b9aa3"/>
  </g>
</svg>
