<svg id="clock_1_" data-name="clock (1)" xmlns="http://www.w3.org/2000/svg" width="21.301" height="21.301" viewBox="0 0 21.301 21.301">
  <g id="Group_1635" data-name="Group 1635" transform="translate(0 0)">
    <g id="Group_1634" data-name="Group 1634">
      <path id="Path_1343" data-name="Path 1343" d="M18.181,3.119A10.65,10.65,0,0,0,3.119,18.181,10.65,10.65,0,0,0,18.181,3.119ZM10.65,19.21a8.57,8.57,0,0,1-8.56-8.56c0-.008,0-.015,0-.023s0,0,0-.006,0-.006,0-.01a8.569,8.569,0,0,1,8.443-8.52h.116a8.56,8.56,0,1,1,0,17.12Z" transform="translate(0 0)" fill="#8b9aa3"/>
    </g>
  </g>
  <g id="Group_1637" data-name="Group 1637" transform="translate(3.376 3.371)">
    <g id="Group_1636" data-name="Group 1636">
      <path id="Path_1344" data-name="Path 1344" d="M94.919,88.823a.63.63,0,0,1,0-1.26h.76a7.312,7.312,0,0,0-6.719-6.533v.661a.63.63,0,1,1-1.26,0v-.646a7.312,7.312,0,0,0-6.552,6.605h.68a.63.63,0,1,1,0,1.26h-.685a7.311,7.311,0,0,0,6.644,6.671v-.8a.63.63,0,1,1,1.26,0v.8A7.311,7.311,0,0,0,95.7,88.823Zm-3.951-2.174-2.105,2.105a.63.63,0,0,1-.891,0l-3.665-3.665A.63.63,0,0,1,85.2,84.2l3.219,3.219,1.66-1.66a.63.63,0,1,1,.891.891Z" transform="translate(-81.142 -81.029)" fill="#8b9aa3"/>
    </g>
  </g>
</svg>
