<svg xmlns="http://www.w3.org/2000/svg" xmlns:xlink="http://www.w3.org/1999/xlink" width="49.064" height="44.133" viewBox="0 0 49.064 44.133">
  <defs>
    <linearGradient id="linear-gradient" x1="0.822" y1="0.095" x2="0.355" y2="0.956" gradientUnits="objectBoundingBox">
      <stop offset="0" stop-color="#d2deff" stop-opacity="0"/>
      <stop offset="1" stop-color="#b7c5ff"/>
    </linearGradient>
  </defs>
  <g id="delivery-box" transform="translate(0 -25.728)">
    <path id="Path_1313" data-name="Path 1313" d="M34.961,49.771C28.339,47.18,19.17,48.165,14.1,52.791c-3.578,3.266-.809,4.2,1.631,10.174C17.5,67.291,0,66.7,0,74.512c0,9.037,12.673,7.324,17.377,8.358,7.191,1.582,13.464,7.5,21.146,6.718,6.688-.679,9.238-5.928,10.168-11.944C50.424,66.434,46.168,54.156,34.961,49.771Z" transform="translate(0 -20.469)" fill="url(#linear-gradient)"/>
    <g id="Group_1619" data-name="Group 1619" transform="translate(2.933 25.728)">
      <g id="Group_1610" data-name="Group 1610" transform="translate(0 0)">
        <g id="Group_1609" data-name="Group 1609">
          <g id="Group_1607" data-name="Group 1607" transform="translate(4.09 0.204)">
            <path id="Path_1314" data-name="Path 1314" d="M116.4,89.288a6.853,6.853,0,0,0-12.668-3.627H79.248a.957.957,0,0,0-.958.958v32.143a.957.957,0,0,0,.958.958h32.143a.957.957,0,0,0,.958-.958V95.542A6.853,6.853,0,0,0,116.4,89.288Z" transform="translate(-77.811 -77.205)" fill="#2626bc" opacity="0.1"/>
            <path id="Path_1315" data-name="Path 1315" d="M112.35,92.06V124.2a.957.957,0,0,1-.958.958H79.248a.957.957,0,0,1-.958-.958V92.06a.957.957,0,0,1,.958-.958h32.143A.957.957,0,0,1,112.35,92.06Z" transform="translate(-77.811 -85.041)" fill="#fff"/>
            <path id="Path_1316" data-name="Path 1316" d="M121.067,296.855H115.39a.479.479,0,0,1-.479-.479V284.67a.479.479,0,0,1,.479-.479h5.677a.479.479,0,0,1,.479.479v11.706A.479.479,0,0,1,121.067,296.855Z" transform="translate(-110.922 -259.627)" fill="#fff"/>
            <path id="Path_1317" data-name="Path 1317" d="M121.067,296.855H115.39a.479.479,0,0,1-.479-.479V284.67a.479.479,0,0,1,.479-.479h5.677a.479.479,0,0,1,.479.479v11.706A.479.479,0,0,1,121.067,296.855Z" transform="translate(-110.922 -259.627)" fill="#6583fe"/>
            <g id="Group_1603" data-name="Group 1603" transform="translate(5.366 26.175)">
              <path id="Path_1318" data-name="Path 1318" d="M135.376,301.953h-5.614a.479.479,0,1,1,0-.958h5.614a.479.479,0,0,1,0,.958Z" transform="translate(-129.283 -300.995)" fill="#2626bc"/>
            </g>
            <path id="Path_1319" data-name="Path 1319" d="M78.287,222.576l5.254,3.079,4.524-1.188a.479.479,0,0,1,.463.127l4.806,4.888,5.785-2.591a.479.479,0,0,1,.517.793L94.17,232.63a.479.479,0,0,1-.59.041l-5.523-3.748-5.1,3.441a.479.479,0,0,1-.514.014L78.287,229.9Z" transform="translate(-77.808 -203.916)" fill="#6583fe"/>
            <path id="Path_1320" data-name="Path 1320" d="M128.411,296.272,124.374,299a.48.48,0,0,1-.284.081v-2.329a.479.479,0,0,1,.479-.479Z" transform="translate(-119.222 -270.55)" fill="#fff"/>
            <g id="Group_1604" data-name="Group 1604" transform="translate(0 17.824)">
              <path id="Path_1321" data-name="Path 1321" d="M89.328,225.343a.957.957,0,0,1-.538-.166l-5.255-3.565-4.827,3.26a.962.962,0,0,1-1.028.029l-4.393-2.623V213.85l5.8,3.4,4.332-1.138a.96.96,0,0,1,.927.255l4.573,4.65,5.481-2.455a.958.958,0,0,1,1.035,1.585L89.97,225.1A.957.957,0,0,1,89.328,225.343Zm-5.792-4.888,5.792,3.93,5.467-4.945h0l-6.089,2.727-5.04-5.125L78.95,218.28l-4.7-2.757v6.211l3.926,2.344Z" transform="translate(-73.287 -213.85)" fill="#2626bc"/>
            </g>
            <path id="Path_1322" data-name="Path 1322" d="M78.29,115.182h34.06v1.32H78.29Z" transform="translate(-77.811 -106.814)" fill="#2626bc"/>
            <path id="Path_1323" data-name="Path 1323" d="M226.615,102.408h-5.9a.479.479,0,0,1-.479-.479V91.1h6.853v10.83A.479.479,0,0,1,226.615,102.408Z" transform="translate(-206.159 -85.038)" fill="#6583fe"/>
            <path id="Path_1324" data-name="Path 1324" d="M247.12,91.1h1.7v11.309h-1.7Z" transform="translate(-230.462 -85.041)" fill="#fff"/>
            <g id="Group_1605" data-name="Group 1605" transform="translate(25.162 31.54)">
              <path id="Path_1325" data-name="Path 1325" d="M341.95,359.388h-5.617a.479.479,0,0,1-.479-.479v-1.45a.479.479,0,0,1,.479-.479h5.617a.479.479,0,0,1,.479.479v1.45A.479.479,0,0,1,341.95,359.388Z" transform="translate(-335.854 -356.98)" fill="#6583fe"/>
              <path id="Path_1326" data-name="Path 1326" d="M341.95,393.628h-5.617a.479.479,0,0,1-.479-.479V391.7a.479.479,0,0,1,.479-.479h5.617a.479.479,0,0,1,.479.479v1.45A.479.479,0,0,1,341.95,393.628Z" transform="translate(-335.854 -387.939)" fill="#6583fe"/>
            </g>
            <path id="Path_1327" data-name="Path 1327" d="M365.98,296.651h-3.07a.479.479,0,0,1-.479-.479V293.1a.479.479,0,0,1,.479-.479h3.07a.479.479,0,0,1,.479.479v3.07A.479.479,0,0,1,365.98,296.651Z" transform="translate(-334.723 -267.25)" fill="#6583fe"/>
            <g id="Group_1606" data-name="Group 1606" transform="translate(0 0)">
              <circle id="Ellipse_235" data-name="Ellipse 235" cx="6.853" cy="6.853" r="6.853" transform="translate(22.041 9.691) rotate(-45)" fill="#fff"/>
              <path id="Path_1328" data-name="Path 1328" d="M112.356,59.768a7.3,7.3,0,0,0-1.228-4.061.479.479,0,0,0-.8.531,6.382,6.382,0,1,1-1.859-1.83.479.479,0,0,0,.519-.805,7.326,7.326,0,0,0-10.04,2.058H74.724A1.439,1.439,0,0,0,73.287,57.1v22.55a.479.479,0,1,0,.958,0V57.1a.48.48,0,0,1,.479-.479H98.4a7.329,7.329,0,0,0,8.944,10.1V89.242a.48.48,0,0,1-.479.479H74.724a.48.48,0,0,1-.479-.479v-6.79a.479.479,0,0,0-.958,0v6.79a1.439,1.439,0,0,0,1.437,1.437h32.144a1.439,1.439,0,0,0,1.437-1.437V66.322A7.339,7.339,0,0,0,112.356,59.768Z" transform="translate(-73.287 -50.08)" fill="#2626bc"/>
            </g>
          </g>
          <g id="Group_1608" data-name="Group 1608">
            <path id="Path_1329" data-name="Path 1329" d="M311.385,28.506a1.388,1.388,0,1,1,.982-.406,1.385,1.385,0,0,1-.982.406Zm0-1.82a.431.431,0,1,0,.3.126A.43.43,0,0,0,311.385,26.686Z" transform="translate(-283.222 -25.728)" fill="#6583fe"/>
            <path id="Path_1330" data-name="Path 1330" d="M453.377,220.362a1.39,1.39,0,1,1,.982-2.372h0a1.39,1.39,0,0,1-.983,2.372Zm0-1.821a.431.431,0,1,0,.3.126A.43.43,0,0,0,453.376,218.541Z" transform="translate(-411.606 -199.198)" fill="#6583fe"/>
            <path id="Path_1331" data-name="Path 1331" d="M32.9,224.2a.478.478,0,0,1-.339-.14l-.572-.572-.572.572a.479.479,0,1,1-.678-.678l.91-.91a.479.479,0,0,1,.678,0l.91.91a.479.479,0,0,1-.339.818Z" transform="translate(-30.602 -203.487)" fill="#6583fe"/>
            <path id="Path_1332" data-name="Path 1332" d="M250.754,45.236a.478.478,0,0,1-.339-.14l-.572-.572-.572.572a.479.479,0,1,1-.677-.678l.91-.91a.479.479,0,0,1,.677,0l.91.91a.479.479,0,0,1-.339.818Z" transform="translate(-227.578 -41.677)" fill="#6583fe"/>
            <path id="Path_1333" data-name="Path 1333" d="M320.171,468.641a.477.477,0,0,1-.339-.14l-.572-.572-.572.572a.479.479,0,0,1-.677-.678l.91-.91a.479.479,0,0,1,.678,0l.91.91a.479.479,0,0,1-.339.818Z" transform="translate(-290.343 -424.508)" fill="#6583fe"/>
          </g>
        </g>
        <path id="Path_1334" data-name="Path 1334" d="M6.071.253a.862.862,0,0,0-1.219,0l-1.69,1.69L1.472.253A.862.862,0,1,0,.253,1.472l1.69,1.69L.253,4.852A.862.862,0,0,0,1.472,6.071l1.69-1.69,1.69,1.69A.862.862,0,0,0,6.071,4.852l-1.69-1.69,1.69-1.69A.862.862,0,0,0,6.071.253Z" transform="translate(31.356 9.752) rotate(-45)" fill="#2626bc"/>
      </g>
      <g id="Group_1617" data-name="Group 1617" transform="translate(9.456 28.326)">
        <g id="Group_1613" data-name="Group 1613">
          <g id="Group_1611" data-name="Group 1611" transform="translate(0.958)">
            <path id="Path_1335" data-name="Path 1335" d="M141.543,322.274h-1.781a.479.479,0,0,1,0-.958h1.781a.479.479,0,0,1,0,.958Z" transform="translate(-139.283 -321.316)" fill="#2626bc"/>
          </g>
          <g id="Group_1612" data-name="Group 1612" transform="translate(0 1.66)">
            <path id="Path_1336" data-name="Path 1336" d="M132.5,339.6h-2.739a.479.479,0,0,1,0-.958H132.5a.479.479,0,0,1,0,.958Z" transform="translate(-129.283 -338.637)" fill="#2626bc"/>
          </g>
        </g>
        <g id="Group_1616" data-name="Group 1616" transform="translate(0 4.369)">
          <g id="Group_1614" data-name="Group 1614">
            <path id="Path_1337" data-name="Path 1337" d="M132.5,367.863h-2.739a.479.479,0,1,1,0-.958H132.5a.479.479,0,1,1,0,.958Z" transform="translate(-129.283 -366.905)" fill="#2626bc"/>
          </g>
          <g id="Group_1615" data-name="Group 1615" transform="translate(0 1.66)">
            <path id="Path_1338" data-name="Path 1338" d="M132.5,385.185h-2.739a.479.479,0,1,1,0-.958H132.5a.479.479,0,1,1,0,.958Z" transform="translate(-129.283 -384.227)" fill="#2626bc"/>
          </g>
        </g>
      </g>
      <g id="Group_1618" data-name="Group 1618" transform="translate(17.694 5.785)">
        <path id="Path_1339" data-name="Path 1339" d="M222.1,98.367h-5.9a.959.959,0,0,1-.958-.958V86.1h7.812V97.408A.959.959,0,0,1,222.1,98.367Zm-5.9-11.309V97.408h5.9V87.057H216.2Z" transform="translate(-215.242 -86.099)" fill="#2626bc"/>
      </g>
    </g>
  </g>
</svg>
