<svg xmlns="http://www.w3.org/2000/svg" width="21.58" height="21.58" viewBox="0 0 21.58 21.58">
  <g id="phone-call" transform="translate(-1 0)">
    <g id="Group_1626" data-name="Group 1626" transform="translate(1 0)">
      <path id="Path_1341" data-name="Path 1341" d="M18.418,3.159a10.79,10.79,0,1,0,3.161,7.629A10.79,10.79,0,0,0,18.418,3.159ZM16.341,15.03h0v0l-.547.543a2.877,2.877,0,0,1-2.716.777A9.561,9.561,0,0,1,10.3,15.1a12.829,12.829,0,0,1-2.19-1.766,12.927,12.927,0,0,1-1.637-1.985,10.07,10.07,0,0,1-1.23-2.489,2.877,2.877,0,0,1,.719-2.938l.64-.64a.457.457,0,0,1,.646,0h0L9.272,7.306a.457.457,0,0,1,0,.646h0L8.085,9.14a.967.967,0,0,0-.1,1.259A13.881,13.881,0,0,0,9.4,12.057a13.8,13.8,0,0,0,1.87,1.572.975.975,0,0,0,1.244-.108l1.147-1.165a.457.457,0,0,1,.646,0h0l2.025,2.029A.457.457,0,0,1,16.341,15.03Z" transform="translate(0 0)" fill="#8b9aa3"/>
    </g>
  </g>
</svg>
