<svg xmlns="http://www.w3.org/2000/svg" width="25.735" height="32.197" viewBox="0 0 25.735 32.197">
  <g id="Group_1365" data-name="Group 1365" transform="translate(-183 -113.539)">
    <path id="person" d="M95.935,23.471v2.611a.442.442,0,1,1-.884,0V23.471a3.676,3.676,0,0,0-3.678-3.678,2.714,2.714,0,0,1-2.335-1.311.442.442,0,0,1,.755-.46,1.836,1.836,0,0,0,1.58.887,4.56,4.56,0,0,1,4.562,4.562Zm-7.713-4.431a.442.442,0,0,1-.338.526,4.231,4.231,0,0,1-3.288-.643,2.681,2.681,0,0,1-2,.87,3.676,3.676,0,0,0-3.678,3.678v2.611a.442.442,0,0,1-.884,0V23.471A4.56,4.56,0,0,1,82.6,18.909a1.843,1.843,0,0,0,1.847-1.842v-.116a5.922,5.922,0,0,1-3.366-5.119,1.8,1.8,0,0,1-1.386-1.747V7.793a8.1,8.1,0,0,1,2.191-5.905C84.41-.55,88.466-.395,91.449,1.041a.443.443,0,0,1,.093.736A5.966,5.966,0,0,1,95.193,4.4a.488.488,0,0,1,.1.347.447.447,0,0,1-.127.28,2.886,2.886,0,0,0-.835,2.039v3.015a.442.442,0,0,1-.884,0V7.07a3.763,3.763,0,0,1,.859-2.4,5.106,5.106,0,0,0-3.665-2.152l-.777-.083a.442.442,0,0,1-.121-.848l.353-.145c-4.6-1.6-9.523.178-9.523,6.35v2.3a.913.913,0,0,0,.5.809V8.028a3.1,3.1,0,0,1,3.094-3.094H89.8A3.1,3.1,0,0,1,92.9,8.028v3.619a5.92,5.92,0,0,1-7.579,5.639,2.7,2.7,0,0,1-.231.9,3.347,3.347,0,0,0,2.61.515A.442.442,0,0,1,88.221,19.041Zm-1.237-2.4a5.034,5.034,0,0,0,5.028-5.028V8.028a2.213,2.213,0,0,0-2.21-2.21H84.166a2.213,2.213,0,0,0-2.21,2.21v3.585A5.034,5.034,0,0,0,86.984,16.641Zm4.475,7.618H90.133a.442.442,0,1,0,0,.884h1.326a.442.442,0,0,0,0-.884Z" transform="translate(104.967 113.538)" fill="#7c76fe"/>
    <g id="Group_519" data-name="Group 519" transform="translate(-26 -9)">
      <circle id="Ellipse_125" data-name="Ellipse 125" cx="7.368" cy="7.368" r="7.368" transform="translate(220 140)" fill="#2ca55d"/>
      <line id="Line_44" data-name="Line 44" y2="7.755" transform="translate(227.368 143.49)" fill="none" stroke="#fff" stroke-linecap="round" stroke-width="1"/>
      <line id="Line_45" data-name="Line 45" x2="7.755" transform="translate(223.49 147.368)" fill="none" stroke="#fff" stroke-linecap="round" stroke-width="1"/>
    </g>
  </g>
</svg>
