<svg xmlns="http://www.w3.org/2000/svg" width="93" height="93" viewBox="0 0 93 93">
  <g id="Group_636" data-name="Group 636" transform="translate(-1682 -100)">
    <g id="man" transform="translate(1644.732 125)">
      <path id="Path_828" data-name="Path 828" d="M187.509,291.607a6.5,6.5,0,0,0,5.974-3.937l.322-.715-1.465-.171a1.429,1.429,0,0,1-1.258-1.429V281.6h-7.145v3.73a1.429,1.429,0,0,1-1.258,1.429l-1.429.171.322.715A6.5,6.5,0,0,0,187.509,291.607Z" transform="translate(-103.521 -258.023)" fill="#fedac6"/>
      <path id="Path_829" data-name="Path 829" d="M101.855,345.62l-3.751-.443-.322.715a6.5,6.5,0,0,1-11.947,0l-.322-.715-3.751.443a5.716,5.716,0,0,0-4.959,5.666v7.86h30.011v-7.86A5.717,5.717,0,0,0,101.855,345.62Z" transform="translate(-7.82 -316.273)" fill="#de4c3c"/>
      <path id="Path_830" data-name="Path 830" d="M76.8,364.031v7.86H79.66v-12.8A5.715,5.715,0,0,0,76.8,364.031Z" transform="translate(-7.819 -329.018)" fill="#c94536"/>
      <rect id="Rectangle_498" data-name="Rectangle 498" width="5.716" height="3.573" transform="translate(68.983 39.3)" fill="#fedac6"/>
      <g id="Group_534" data-name="Group 534" transform="translate(68.983 23.58)">
        <rect id="Rectangle_499" data-name="Rectangle 499" width="2.858" height="3.573" transform="translate(0 15.72)" fill="#f5c4b0"/>
        <path id="Path_831" data-name="Path 831" d="M220.481,284.462V281.6h-7.145v2.858A6.49,6.49,0,0,0,220.481,284.462Z" transform="translate(-201.903 -281.604)" fill="#f5c4b0"/>
      </g>
      <g id="Group_535" data-name="Group 535" transform="translate(76.128 7.146)">
        <rect id="Rectangle_500" data-name="Rectangle 500" width="5.716" height="3.573" transform="translate(17.149 32.155)" fill="#fedac6"/>
        <path id="Path_832" data-name="Path 832" d="M177.855,93.2A11.432,11.432,0,0,1,175,100.721l-.293.336A6.3,6.3,0,0,1,170,103.2h0a6.294,6.294,0,0,1-4.737-2.144l-.264-.343a11.434,11.434,0,0,1-2.858-7.517v-7.86h15.72V93.2Z" transform="translate(-162.135 -85.337)" fill="#fedac6"/>
      </g>
      <path id="Path_833" data-name="Path 833" d="M165.358,85.337h-3.223V93.2a11.432,11.432,0,0,0,2.858,7.524l.293.336a6,6,0,0,0,.915.85C164.329,95.655,164.893,88.745,165.358,85.337Z" transform="translate(-86.007 -78.191)" fill="#f5c4b0"/>
      <path id="Path_834" data-name="Path 834" d="M342.764,145.07h-1.429v4.287h1.429a2.144,2.144,0,1,0,0-4.287Z" transform="translate(-250.201 -132.922)" fill="#fedac6"/>
      <path id="Path_835" data-name="Path 835" d="M128,147.214a2.143,2.143,0,0,0,2.144,2.144h1.429V145.07h-1.429A2.144,2.144,0,0,0,128,147.214Z" transform="translate(-54.732 -132.922)" fill="#f5c4b0"/>
      <path id="Path_836" data-name="Path 836" d="M150.179,9.966H142.19a2.586,2.586,0,0,1-2.315-1.429l-1.636.822a2.965,2.965,0,0,0,.507,5.495V19.97s1.886-2.687,3.573-5h9.289l2.858,4.287v-5A4.287,4.287,0,0,0,150.179,9.966Z" transform="translate(-62.618 -7.822)" fill="#5c5e6f"/>
      <path id="Path_837" data-name="Path 837" d="M143.7,27.456a8.417,8.417,0,0,1-6.152-3.73,2.951,2.951,0,0,0,1.15,5.045v5.116s1.886-2.687,3.573-5h9.289l2.858,4.287V28.664C151.865,28.4,147.47,27.928,143.7,27.456Z" transform="translate(-62.568 -21.739)" fill="#525463"/>
      <circle id="Ellipse_134" data-name="Ellipse 134" cx="1.429" cy="1.429" r="1.429" transform="translate(78.272 12.148)"/>
      <circle id="Ellipse_135" data-name="Ellipse 135" cx="1.429" cy="1.429" r="1.429" transform="translate(86.846 12.148)"/>
      <path id="Path_838" data-name="Path 838" d="M233.26,156.126h-2.144a.716.716,0,0,1-.678-.941l1.429-4.287,1.356.452-1.115,3.347h1.153v1.429Z" transform="translate(-148.558 -138.262)"/>
      <path id="Path_839" data-name="Path 839" d="M239.056,218.478h-.121v-1.429h.121a4.145,4.145,0,0,0,2.946-1.22l1.01,1.011A5.567,5.567,0,0,1,239.056,218.478Z" transform="translate(-156.376 -197.755)"/>
      <path id="Path_840" data-name="Path 840" d="M350.583,142.252h-.714v-1.429h.714a1.429,1.429,0,1,0,0-2.858h-.714v-1.429h.714a2.858,2.858,0,0,1,0,5.716Z" transform="translate(-258.021 -125.103)"/>
      <path id="Path_841" data-name="Path 841" d="M123.042,142.254h-.715a2.858,2.858,0,0,1,0-5.716h.715v1.429h-.715a1.429,1.429,0,1,0,0,2.858h.715Z" transform="translate(-46.914 -125.105)"/>
      <path id="Path_842" data-name="Path 842" d="M146.6,12.148a.714.714,0,0,1-.595-.318L143.362,7.86H131.7A3.676,3.676,0,0,1,130.057.9l1.633-.82a.713.713,0,0,1,.96.319,1.863,1.863,0,0,0,1.674,1.035h7.991a5.008,5.008,0,0,1,5,5v5a.715.715,0,0,1-.715.715ZM131.761,1.639l-1.066.535A2.247,2.247,0,0,0,131.7,6.431h12.04a.715.715,0,0,1,.595.318l1.549,2.324V6.431a3.577,3.577,0,0,0-3.573-3.573h-7.991A3.279,3.279,0,0,1,131.761,1.639Z" transform="translate(-54.754)"/>
      <rect id="Rectangle_501" data-name="Rectangle 501" width="6.147" height="1.429" transform="translate(80.282 7.557) rotate(125.521)"/>
      <path id="Path_843" data-name="Path 843" d="M162.175,103.915a7.008,7.008,0,0,1-5.271-2.387l-.294-.378A12.1,12.1,0,0,1,153.6,93.2V85.337h1.429V93.2a10.71,10.71,0,0,0,2.68,7.044l.294.379a5.564,5.564,0,0,0,4.167,1.865h0a5.585,5.585,0,0,0,4.172-1.9l.292-.335a10.718,10.718,0,0,0,2.682-7.056v-5h1.429v5a12.143,12.143,0,0,1-3.037,8l-.291.334a7.015,7.015,0,0,1-5.244,2.388Z" transform="translate(-78.189 -78.191)"/>
      <path id="Path_844" data-name="Path 844" d="M69.7,308.715H68.268v-7.86a6.452,6.452,0,0,1,5.579-6.375l5.227-.616a.714.714,0,0,0,.627-.715v-3.013H81.13v3.008a2.141,2.141,0,0,1-1.886,2.139l-5.218.615a5.015,5.015,0,0,0-4.328,4.957Z" transform="translate(0 -265.842)"/>
      <path id="Path_845" data-name="Path 845" d="M303,300.9h-1.429v-7.86a5.019,5.019,0,0,0-4.339-4.951l-5.2-.613a2.143,2.143,0,0,1-1.889-2.144V281.6h1.429v3.73a.714.714,0,0,0,.629.72l5.214.615a6.456,6.456,0,0,1,5.59,6.368V300.9Z" transform="translate(-203.287 -258.023)"/>
      <path id="Path_846" data-name="Path 846" d="M178.45,343.973h-.008a7.2,7.2,0,0,1-6.626-4.37l-.457-1.064,1.313-.564.457,1.065a5.774,5.774,0,0,0,5.313,3.5h.006a5.777,5.777,0,0,0,5.315-3.5l.457-1.065,1.313.564-.457,1.065A7.205,7.205,0,0,1,178.45,343.973Z" transform="translate(-94.459 -309.674)"/>
      <rect id="Rectangle_502" data-name="Rectangle 502" width="1.429" height="5.716" transform="translate(73.984 37.157)"/>
      <rect id="Rectangle_503" data-name="Rectangle 503" width="5.716" height="1.429" transform="translate(68.983 38.586)"/>
      <rect id="Rectangle_504" data-name="Rectangle 504" width="1.429" height="5.716" transform="translate(92.563 37.157)"/>
      <rect id="Rectangle_505" data-name="Rectangle 505" width="5.716" height="1.429" transform="translate(93.277 38.586)"/>
    </g>
    <g id="Ellipse_136" data-name="Ellipse 136" transform="translate(1682 100)" fill="none" stroke="#cdcdcd" stroke-width="2">
      <circle cx="46.5" cy="46.5" r="46.5" stroke="none"/>
      <circle cx="46.5" cy="46.5" r="45.5" fill="none"/>
    </g>
    <g id="Group_536" data-name="Group 536" transform="translate(1536 26)">
      <circle id="Ellipse_125" data-name="Ellipse 125" cx="8.845" cy="8.845" r="8.845" transform="translate(220 140)" fill="#89d068"/>
      <line id="Line_44" data-name="Line 44" y2="9.311" transform="translate(228.845 144.19)" fill="none" stroke="#fff" stroke-linecap="round" stroke-width="1"/>
      <line id="Line_45" data-name="Line 45" x2="9.311" transform="translate(224.19 148.845)" fill="none" stroke="#fff" stroke-linecap="round" stroke-width="1"/>
    </g>
  </g>
</svg>
