<svg xmlns="http://www.w3.org/2000/svg" width="16.791" height="17.826" viewBox="0 0 16.791 17.826">
  <g id="admin-with-cogwheels" transform="translate(-13.766)">
    <path id="Path_352" data-name="Path 352" d="M232.62,93.138c-.023-.425-.457-.353-.881-.353A3.753,3.753,0,0,1,232.62,93.138Z" transform="translate(-209.785 -89.296)" fill="#7c76fe"/>
    <path id="Path_353" data-name="Path 353" d="M89.468,73.928A1.755,1.755,0,0,0,88.38,77.06a3.8,3.8,0,0,1,2.512-2.4A1.756,1.756,0,0,0,89.468,73.928Z" transform="translate(-71.166 -71.151)" fill="#7c76fe"/>
    <path id="Path_354" data-name="Path 354" d="M14.9,5.582a3.651,3.651,0,0,0,.257.617l-.541.541a.373.373,0,0,0,0,.526l.953.953a.374.374,0,0,0,.527,0l.54-.541c.081.043.171.069.255.106,0-.006,0-.013,0-.019a5.546,5.546,0,0,1,.141-1.251,2.351,2.351,0,1,1,3.313-3.132,4.1,4.1,0,0,1,1.329.039,3.55,3.55,0,0,0-.23-.552l.541-.541a.371.371,0,0,0,0-.526L21.034.852a.371.371,0,0,0-.526,0l-.542.541a3.484,3.484,0,0,0-.618-.256V.372A.371.371,0,0,0,18.976,0H17.628a.373.373,0,0,0-.372.372v.765a3.521,3.521,0,0,0-.618.256L16.1.852a.372.372,0,0,0-.526,0l-.954.953a.374.374,0,0,0,0,.526l.541.541a3.56,3.56,0,0,0-.256.617h-.764a.372.372,0,0,0-.372.372V5.21a.372.372,0,0,0,.372.372Z" transform="translate(0 0)" fill="#7c76fe"/>
    <path id="Path_355" data-name="Path 355" d="M284.431,248.384a1.915,1.915,0,1,0-1.93-3.305,6.925,6.925,0,0,1-.819,1.961A5.758,5.758,0,0,1,284.431,248.384Z" transform="translate(-257.853 -235.588)" fill="#7c76fe"/>
    <path id="Path_356" data-name="Path 356" d="M310.246,169.819a.4.4,0,0,0-.4-.4h-.825a3.809,3.809,0,0,0-.278-.667l.584-.584a.4.4,0,0,0,0-.568l-1.028-1.028a.4.4,0,0,0-.567,0l-.585.584a3.748,3.748,0,0,0-.667-.277v-.825a.4.4,0,0,0-.4-.4h-1.454a.4.4,0,0,0-.253.1,5.469,5.469,0,0,1,.19,1.448,6.965,6.965,0,0,1-.073.993,2.485,2.485,0,0,1,.864-.162,2.515,2.515,0,0,1,1.36,4.634,5.745,5.745,0,0,1,1.171,1.952.412.412,0,0,0,.133.026.4.4,0,0,0,.284-.118l1.028-1.028a.4.4,0,0,0,0-.568l-.585-.584a3.792,3.792,0,0,0,.278-.667h.825a.4.4,0,0,0,.4-.4Z" transform="translate(-279.689 -159.43)" fill="#7c76fe"/>
    <path id="Path_357" data-name="Path 357" d="M33.194,330.157a4.859,4.859,0,0,0-4.174-3.269,2.989,2.989,0,0,1-4.637,0,4.859,4.859,0,0,0-4.175,3.269l-.345,1.015a.956.956,0,0,0,.905,1.264H32.634a.956.956,0,0,0,.905-1.264Z" transform="translate(-5.821 -314.609)" fill="#7c76fe"/>
    <path id="Path_358" data-name="Path 358" d="M120.842,116.035c0,2.276,1.385,4.718,3.093,4.718s3.094-2.442,3.094-4.718C127.029,111.317,120.842,111.308,120.842,116.035Z" transform="translate(-103.054 -108.268)" fill="#7c76fe"/>
  </g>
</svg>
