<svg id="hospital_1_" data-name="hospital (1)" xmlns="http://www.w3.org/2000/svg" width="41.589" height="41.704" viewBox="0 0 41.589 41.704">
  <path id="Path_1022" data-name="Path 1022" d="M394.251,50.177l-5.35-2.838-.652,1.228,5.5,2.919a.7.7,0,0,0,.326.081h3.475v-1.39Z" transform="translate(-355.964 -44.616)" fill="#7c76fe"/>
  <path id="Path_1023" data-name="Path 1023" d="M200.207,28.514l-4.179.38a6.285,6.285,0,0,1-5.216-2.045l-2.162-2.4a2.085,2.085,0,0,1-.094-2.677l3.683,2.455a.7.7,0,1,0,.771-1.157l-4.17-2.78h0a.7.7,0,0,0-.387-.116h-7.642a3.421,3.421,0,0,1-3.359-2.78h12.164l3.438,1.824.652-1.228-3.591-1.9a.7.7,0,0,0-.326-.081H176.7a.7.7,0,0,0-.7.685,4.808,4.808,0,0,0,4.808,4.875h6.251a3.476,3.476,0,0,0,.557,3.816l2.162,2.4a7.686,7.686,0,0,0,5.692,2.531q.341,0,.683-.031L200.3,29.9h3.444v-1.39h-3.475Z" transform="translate(-162.156 -16)" fill="#7c76fe"/>
  <path id="Path_1024" data-name="Path 1024" d="M39.6,417.39H36.761v1.39H39.6a3.421,3.421,0,0,1,3.359,2.78H30.795l-10.331-5.479a.7.7,0,0,0-.326-.081H16.662v1.39h3.3L30.3,422.87a.692.692,0,0,0,.326.081H43.712a.7.7,0,0,0,.7-.685A4.809,4.809,0,0,0,39.6,417.39Z" transform="translate(-16.662 -381.247)" fill="#7c76fe"/>
  <path id="Path_1025" data-name="Path 1025" d="M20.2,333.109l4.179-.38a6.284,6.284,0,0,1,5.216,2.045l2.162,2.4a2.085,2.085,0,0,1,.094,2.678L28.169,337.4a.7.7,0,1,0-.771,1.157l4.17,2.78h0a.694.694,0,0,0,.383.115h3.418v-1.39H33.348a3.475,3.475,0,0,0-.557-3.816l-2.162-2.4a7.682,7.682,0,0,0-6.375-2.5l-4.147.377H16.662v1.39h3.475C20.158,333.112,20.179,333.111,20.2,333.109Z" transform="translate(-16.662 -303.919)" fill="#7c76fe"/>
  <path id="Path_1026" data-name="Path 1026" d="M163.816,152h-5.561a.7.7,0,0,0-.7.7v4.865h-1.39v1.39h2.085a.7.7,0,0,0,.7-.7V153.39h4.17v4.865a.7.7,0,0,0,.7.7h4.865v4.17h-4.865a.7.7,0,0,0-.7.7v4.865h-4.17v-4.865a.7.7,0,0,0-.7-.7H153.39v-4.17h1.39v-1.39H152.7a.7.7,0,0,0-.7.7v5.561a.7.7,0,0,0,.7.7h4.865v4.865a.7.7,0,0,0,.7.7h5.561a.7.7,0,0,0,.7-.7v-4.865h4.865a.7.7,0,0,0,.7-.7v-5.561a.7.7,0,0,0-.7-.7h-4.865V152.7A.7.7,0,0,0,163.816,152Z" transform="translate(-140.241 -140.184)" fill="#7c76fe"/>
  <path id="Path_1027" data-name="Path 1027" d="M104,117.206a13.142,13.142,0,0,0,.734,4.344l1.312-.458a11.819,11.819,0,0,1,11.16-15.7,11.959,11.959,0,0,1,1.312.072l.155-1.381A13.211,13.211,0,0,0,104,117.206Z" transform="translate(-96.412 -96.354)" fill="#7c76fe"/>
  <path id="Path_1028" data-name="Path 1028" d="M240.585,222.16a11.957,11.957,0,0,1-1.312-.072l-.155,1.381a13.211,13.211,0,0,0,14.673-13.125,13.144,13.144,0,0,0-.734-4.344l-1.312.458a11.819,11.819,0,0,1-11.16,15.7Z" transform="translate(-219.79 -189.492)" fill="#7c76fe"/>
  <path id="Path_1029" data-name="Path 1029" d="M347.879,200.136a.7.7,0,0,0-.257.74,15.318,15.318,0,0,1-7.453,17.422l.666,1.22a16.707,16.707,0,0,0,8.484-17.361l1.935,1.212.738-1.178-3.33-2.085A.7.7,0,0,0,347.879,200.136Z" transform="translate(-312.061 -184.013)" fill="#7c76fe"/>
  <path id="Path_1030" data-name="Path 1030" d="M32.378,102.253a.7.7,0,0,0,.679-.845,15.3,15.3,0,0,1,8.281-17.1l-.605-1.251a16.7,16.7,0,0,0-9.287,17.207l-2.591-1.4-.662,1.223,3.854,2.085A.694.694,0,0,0,32.378,102.253Z" transform="translate(-27.191 -77.231)" fill="#7c76fe"/>
</svg>
