<svg id="cross" xmlns="http://www.w3.org/2000/svg" width="20.407" height="20.407" viewBox="0 0 20.407 20.407">
  <g id="Group_1038" data-name="Group 1038" transform="translate(0 0)">
    <g id="Group_1037" data-name="Group 1037">
      <path id="Path_1021" data-name="Path 1021" d="M92.022,78.679H86.528V73.185a.782.782,0,0,0-.785-.785H79.464a.782.782,0,0,0-.785.785v5.494H73.185a.782.782,0,0,0-.785.785v6.279a.782.782,0,0,0,.785.785h5.494v5.494a.782.782,0,0,0,.785.785h6.279a.782.782,0,0,0,.785-.785V86.528h5.494a.782.782,0,0,0,.785-.785V79.464A.843.843,0,0,0,92.022,78.679Zm-.741,6.279H85.743a.782.782,0,0,0-.785.785v5.494H80.249V85.743a.782.782,0,0,0-.785-.785H73.97V80.249h5.494a.782.782,0,0,0,.785-.785V73.97H85v5.494a.782.782,0,0,0,.785.785h5.494Z" transform="translate(-72.4 -72.4)" fill="#2dd372"/>
    </g>
  </g>
</svg>
