<svg xmlns="http://www.w3.org/2000/svg" width="47.025" height="47.025" viewBox="0 0 47.025 47.025">
  <g id="Group_585" data-name="Group 585" transform="translate(-447 -600)">
    <g id="Group_584" data-name="Group 584" transform="translate(447 600)">
      <circle id="Ellipse_130" data-name="Ellipse 130" cx="23.513" cy="23.513" r="23.513" fill="#c5f1d5"/>
    </g>
    <g id="hepatitis" transform="translate(454 607.248)">
      <g id="Group_581" data-name="Group 581" transform="translate(8.773 7.603)">
        <g id="Group_580" data-name="Group 580">
          <path id="Path_908" data-name="Path 908" d="M152.349,124.7a.581.581,0,0,0-.075-.288.572.572,0,0,0-.161-.175l0,0-7.018-5.264,0,0a.6.6,0,0,0-.087-.06.583.583,0,0,0-.612.056l-7.018,5.264,0,0a.578.578,0,0,0-.161.175.585.585,0,0,0-.075.289h0v5.849a.573.573,0,0,0,.24.46l-.006.008,7.018,5.264a.585.585,0,0,0,.7,0l7.018-5.264-.006-.008a.573.573,0,0,0,.24-.46V124.7Zm-7.017-4.094,4.679,3.509h-4.679Zm5.4,4.679-2.476,4.127-2.476-4.127Zm-5.985.552,2.476,4.127h-4.953Zm-.585-5.231v3.509h-4.679Zm-.448,4.679-2.476,4.127-2.476-4.127Zm-5.4,1.526,1.891,3.152h-1.891Zm1.17,4.322h1.442l1.442,2.162Zm5.264,3.624-2.417-3.624h4.833Zm2.38-1.462,1.442-2.162h1.442Zm4.053-3.332h-1.891l1.891-3.152Z" transform="translate(-137.144 -118.851)" fill="#05451c"/>
        </g>
      </g>
      <g id="Group_583" data-name="Group 583">
        <g id="Group_582" data-name="Group 582">
          <path id="Path_909" data-name="Path 909" d="M30.8,14.076a14.56,14.56,0,0,0-2.6-6.275,2.326,2.326,0,0,0-.25-3,2.4,2.4,0,0,0-3-.247,14.555,14.555,0,0,0-6.278-2.6,2.331,2.331,0,0,0-4.6,0A14.566,14.566,0,0,0,7.8,4.548a2.4,2.4,0,0,0-3,.247,2.326,2.326,0,0,0-.25,3,14.565,14.565,0,0,0-2.6,6.275,2.332,2.332,0,0,0,0,4.6,14.56,14.56,0,0,0,2.6,6.275A2.332,2.332,0,0,0,7.8,28.2a14.566,14.566,0,0,0,6.275,2.6,2.332,2.332,0,0,0,4.6,0,14.564,14.564,0,0,0,6.275-2.6A2.332,2.332,0,0,0,28.2,24.951a14.565,14.565,0,0,0,2.6-6.275,2.332,2.332,0,0,0,0-4.6ZM25.428,5.685s0-.011.008-.015.023-.032.038-.046a1.2,1.2,0,0,1,1.655,0,1.169,1.169,0,0,1,0,1.654c-.015.015-.033.026-.049.04s-.008,0-.011.006a1.147,1.147,0,0,1-.179.129l-.023.012a1.2,1.2,0,0,1-.152.078.582.582,0,0,1-.187.061h0a1.437,1.437,0,0,1-1.053-.318,1.206,1.206,0,0,1-.143-.177A1.175,1.175,0,0,1,25.428,5.685ZM16.376,1.17a1.171,1.171,0,0,1,1.17,1.17c0,.02,0,.039-.006.059s0,.009,0,.015a1.174,1.174,0,0,1-.724,1.01c-.016.006-.034.01-.051.016a1.2,1.2,0,0,1-.157.047,1.142,1.142,0,0,1-.454,0,1.107,1.107,0,0,1-.157-.047c-.017-.006-.035-.009-.051-.016a1.175,1.175,0,0,1-.724-1.01c0-.005,0-.009,0-.015s-.005-.039-.005-.059A1.171,1.171,0,0,1,16.376,1.17ZM5.623,5.623a1.17,1.17,0,0,1,1.655,0c.014.014.025.031.038.046s0,.009.008.013a1.163,1.163,0,0,1-.046,1.595,1.188,1.188,0,0,1-1.052.311l-.011,0a1.155,1.155,0,0,1-.175-.05,1.211,1.211,0,0,1-.159-.073l-.018-.009a1.163,1.163,0,0,1-.18-.13s-.008,0-.011-.006-.034-.025-.049-.04a1.171,1.171,0,0,1,0-1.655ZM2.4,17.54c-.02,0-.039.006-.058.006a1.17,1.17,0,0,1,0-2.339c.02,0,.039,0,.058.006s.011,0,.016,0a1.171,1.171,0,0,1,.911.535,1.229,1.229,0,0,1,.1.188c.008.02.012.042.019.062a1.05,1.05,0,0,1,0,.75c-.007.02-.011.042-.019.061a1.11,1.11,0,0,1-.1.188,1.173,1.173,0,0,1-.911.535C2.408,17.536,2.4,17.539,2.4,17.54Zm4.926,9.53s0,.009-.008.013-.023.032-.038.046a1.2,1.2,0,0,1-1.655,0,1.169,1.169,0,0,1,0-1.654c.014-.014.031-.025.046-.037s.01,0,.014-.008a1.162,1.162,0,0,1,1.641,1.641Zm9.052,4.513a1.171,1.171,0,0,1-1.17-1.17c0-.02,0-.039.006-.059s0-.009,0-.015a1.174,1.174,0,0,1,.723-1.01c.018-.007.036-.011.054-.017a1.073,1.073,0,0,1,.155-.046,1.145,1.145,0,0,1,.455,0,1.19,1.19,0,0,1,.155.046c.018.006.037.01.054.017a1.173,1.173,0,0,1,.723,1.01c0,.005,0,.009,0,.015s.006.039.006.059A1.171,1.171,0,0,1,16.376,31.582Zm10.753-4.454a1.2,1.2,0,0,1-1.655,0c-.014-.014-.025-.031-.038-.046s0-.009-.008-.013a1.163,1.163,0,0,1,.046-1.595,1.188,1.188,0,0,1,1.052-.311l.009,0a1.148,1.148,0,0,1,.334.123l.02.011a1.158,1.158,0,0,1,.18.13s.008,0,.011.006.034.025.049.04a1.169,1.169,0,0,1,0,1.654Zm.186-2.928c-.035-.017-.072-.027-.107-.042l-.036-.014a2.333,2.333,0,0,0-2.141.2l-.033.02a2.128,2.128,0,0,0-.614.6c-.032.045-.057.092-.085.14a2.342,2.342,0,0,0-.112.21c-.029.062-.054.125-.077.189s-.038.119-.054.179a2.249,2.249,0,0,0-.053.223c-.006.039-.007.078-.011.116a2.371,2.371,0,0,0-.027.275,2.344,2.344,0,0,0,.025.257c0,.029,0,.058.009.088a2.231,2.231,0,0,0,.065.291c.008.026.015.051.023.077a2.272,2.272,0,0,0,.114.292l0,.008a13.413,13.413,0,0,1-5.623,2.329c0-.008-.006-.014-.009-.021a2.381,2.381,0,0,0-.116-.265c-.016-.033-.034-.064-.053-.1a2.376,2.376,0,0,0-.148-.233c-.022-.03-.047-.057-.07-.085a2.318,2.318,0,0,0-.33-.331c-.042-.035-.082-.073-.127-.1s-.111-.07-.168-.1-.127-.074-.194-.105-.109-.048-.165-.069a2.4,2.4,0,0,0-.251-.078c-.048-.012-.1-.026-.144-.035a2.1,2.1,0,0,0-.852,0c-.049.009-.1.023-.144.035a2.154,2.154,0,0,0-.251.078c-.056.021-.111.044-.165.069s-.131.068-.194.105-.115.065-.168.1-.085.07-.127.1a2.352,2.352,0,0,0-.33.331c-.023.029-.049.056-.07.085a2.3,2.3,0,0,0-.148.233q-.027.047-.053.1a2.222,2.222,0,0,0-.116.265c0,.008-.007.014-.009.021a13.424,13.424,0,0,1-5.623-2.329l0-.008a2.359,2.359,0,0,0,.114-.292c.008-.026.016-.051.023-.077a2.437,2.437,0,0,0,.065-.291c0-.03.005-.059.009-.089a2.345,2.345,0,0,0,.025-.257,2.383,2.383,0,0,0-.027-.275c0-.039-.005-.078-.011-.116-.013-.076-.033-.15-.053-.223s-.033-.12-.054-.18-.049-.127-.077-.189-.072-.142-.112-.211c-.028-.047-.053-.094-.084-.139a2.124,2.124,0,0,0-.613-.6l-.036-.022a2.337,2.337,0,0,0-2.138-.2l-.039.015c-.035.015-.072.025-.106.042A13.4,13.4,0,0,1,3.11,18.577l.02-.009a2.335,2.335,0,0,0,.265-.116c.033-.017.066-.034.1-.053a2.3,2.3,0,0,0,.231-.147c.032-.023.06-.05.09-.074a2.365,2.365,0,0,0,.319-.316c.038-.046.079-.089.113-.138s.068-.109.1-.165.075-.129.107-.2.047-.108.068-.164a2.3,2.3,0,0,0,.079-.253c.012-.048.026-.094.035-.143a2.408,2.408,0,0,0,.042-.425,2.272,2.272,0,0,0-.043-.426c-.009-.049-.023-.1-.035-.143a2.316,2.316,0,0,0-.079-.253c-.021-.056-.043-.11-.068-.164s-.068-.133-.107-.2-.064-.113-.1-.165-.075-.092-.113-.138a2.324,2.324,0,0,0-.319-.316c-.03-.025-.058-.051-.09-.074a2.375,2.375,0,0,0-.231-.147c-.032-.018-.064-.036-.1-.053a2.222,2.222,0,0,0-.265-.116l-.02-.009A13.4,13.4,0,0,1,5.438,8.551l.006,0a2.331,2.331,0,0,0,.288.113l.089.027a2.341,2.341,0,0,0,.277.062c.042.006.084.008.125.012a2.243,2.243,0,0,0,.226.022c.068,0,.134-.014.2-.02s.132-.008.2-.019.135-.03.2-.049.135-.037.2-.061.118-.046.176-.073a2.254,2.254,0,0,0,.222-.119c.044-.026.088-.05.13-.08A2.348,2.348,0,0,0,8.1,8.1a2.3,2.3,0,0,0,.265-.322c.031-.045.057-.092.084-.139a2.146,2.146,0,0,0,.112-.211c.029-.062.054-.125.077-.189s.038-.119.054-.18A2.251,2.251,0,0,0,8.75,6.84c.006-.039.007-.078.011-.116a2.371,2.371,0,0,0,.027-.275,2.346,2.346,0,0,0-.025-.257c0-.03,0-.06-.009-.089a2.232,2.232,0,0,0-.065-.291c-.008-.026-.015-.051-.023-.077a2.272,2.272,0,0,0-.114-.292l0-.008a13.413,13.413,0,0,1,5.623-2.329c0,.008.006.014.009.021a2.382,2.382,0,0,0,.116.265c.016.033.034.064.053.1a2.376,2.376,0,0,0,.148.233c.022.03.047.057.07.085a2.318,2.318,0,0,0,.33.331c.042.035.082.073.127.1s.111.07.168.1.127.074.194.105.109.048.165.069A2.4,2.4,0,0,0,15.8,4.6c.048.012.1.026.144.035a2.141,2.141,0,0,0,.428.046,2.266,2.266,0,0,0,.425-.043c.049-.009.1-.023.144-.035a2.154,2.154,0,0,0,.251-.078c.056-.021.111-.044.165-.069s.131-.068.194-.105.115-.065.168-.1.085-.07.127-.1a2.352,2.352,0,0,0,.33-.331c.023-.029.049-.056.07-.085a2.3,2.3,0,0,0,.148-.233q.027-.047.053-.1a2.222,2.222,0,0,0,.116-.265c0-.008.007-.014.009-.021A13.424,13.424,0,0,1,24.2,5.438l0,.008a2.36,2.36,0,0,0-.114.292c-.008.026-.016.051-.023.077A2.329,2.329,0,0,0,24,6.105c0,.029-.005.058-.009.088a2.357,2.357,0,0,0-.025.257,2.384,2.384,0,0,0,.027.275c0,.039.005.078.011.116.013.076.033.15.053.223s.033.12.054.179.049.127.077.189a2.2,2.2,0,0,0,.112.21c.028.047.053.095.085.14a2.326,2.326,0,0,0,.265.322,2.3,2.3,0,0,0,.323.266c.044.031.091.056.137.083a2.262,2.262,0,0,0,.213.114c.061.029.123.053.186.077s.122.039.184.056.144.04.219.053c.043.007.085.008.129.012a2.334,2.334,0,0,0,.264.026,2.429,2.429,0,0,0,.253-.025c.031,0,.061,0,.092-.009a2.3,2.3,0,0,0,.291-.064l.077-.023a2.258,2.258,0,0,0,.293-.115l.006,0a13.4,13.4,0,0,1,2.329,5.623l-.02.009a2.335,2.335,0,0,0-.265.116c-.033.017-.066.034-.1.053a2.31,2.31,0,0,0-.232.147c-.032.023-.06.05-.089.074a2.369,2.369,0,0,0-.319.316c-.038.046-.079.089-.113.138s-.068.109-.1.165-.075.129-.107.2-.047.108-.068.164a2.209,2.209,0,0,0-.078.253c-.012.048-.026.095-.035.144a2.464,2.464,0,0,0-.041.425,2.261,2.261,0,0,0,.043.425c.009.049.023.1.035.144a2.435,2.435,0,0,0,.078.253c.021.056.043.11.068.164s.068.133.107.2.064.113.1.165.075.092.113.138a2.332,2.332,0,0,0,.319.316c.03.025.058.051.089.074a2.311,2.311,0,0,0,.232.147c.032.018.064.036.1.053a2.221,2.221,0,0,0,.265.116l.02.009A13.418,13.418,0,0,1,27.315,24.2Zm3.1-6.655c-.02,0-.039,0-.058-.006s-.011,0-.016,0A1.171,1.171,0,0,1,29.428,17a1.135,1.135,0,0,1-.1-.188c-.008-.02-.012-.041-.019-.061a1.173,1.173,0,0,1-.044-.148,1.133,1.133,0,0,1-.023-.228A.993.993,0,0,1,29.31,16c.007-.02.011-.042.019-.062a1.135,1.135,0,0,1,.1-.188,1.173,1.173,0,0,1,.911-.535c.006,0,.011,0,.016,0s.039-.006.058-.006a1.17,1.17,0,1,1,0,2.339Z" fill="#05451c"/>
        </g>
      </g>
    </g>
  </g>
</svg>
