<svg xmlns="http://www.w3.org/2000/svg" width="543.059" height="543.059" viewBox="0 0 543.059 543.059">
  <g id="call" transform="translate(543.059 271.529) rotate(135)">
    <g id="Group_1588" data-name="Group 1588">
      <path id="Path_1258" data-name="Path 1258" d="M353.188,252.052a218.021,218.021,0,0,1-68.469-10.906c-10.719-3.656-23.9-.3-30.438,6.417L211.1,280.157c-50.073-26.729-80.917-57.563-107.281-107.26l31.635-42.052A31.038,31.038,0,0,0,143.093,99.4a218.355,218.355,0,0,1-10.948-68.583A30.847,30.847,0,0,0,101.333,0H30.813A30.848,30.848,0,0,0,0,30.813C0,225.563,158.438,384,353.188,384A30.848,30.848,0,0,0,384,353.187V282.864A30.849,30.849,0,0,0,353.188,252.052Z" fill="#d93025"/>
    </g>
  </g>
</svg>
