<svg xmlns="http://www.w3.org/2000/svg" width="36.085" height="37.282" viewBox="0 0 36.085 37.282">
  <g id="Group_697" data-name="Group 697" transform="translate(-1571.435 -334)">
    <g id="icon_2_" data-name="icon (2)" transform="translate(1571.435 334)">
      <g id="Group_538" data-name="Group 538" transform="translate(0)">
        <path id="Path_847" data-name="Path 847" d="M4.388,9.029h1.7a1.03,1.03,0,0,0,1.128-.9V.893A1.027,1.027,0,0,0,6.083,0h-1.7a1.034,1.034,0,0,0-1.13.893v7.24A1.032,1.032,0,0,0,4.388,9.029Z" transform="translate(3.944)" fill="#100c74"/>
        <path id="Path_848" data-name="Path 848" d="M11.789,9.029h1.693a1.025,1.025,0,0,0,1.128-.9V.893A1.025,1.025,0,0,0,13.481,0H11.789a1.031,1.031,0,0,0-1.128.893v7.24A1.031,1.031,0,0,0,11.789,9.029Z" transform="translate(14.266)" fill="#100c74"/>
        <path id="Path_849" data-name="Path 849" d="M34.97,1.443H30.478V6.988A2.376,2.376,0,0,1,28,9.234H26.3a2.378,2.378,0,0,1-2.485-2.246V1.443H12.755V6.988A2.377,2.377,0,0,1,10.27,9.234H8.582A2.379,2.379,0,0,1,6.1,6.988V1.443H1.605A1.36,1.36,0,0,0,.25,2.8V33.915a1.482,1.482,0,0,0,.831,1.355H34.453c1.269,0,1.882-.606,1.882-1.355V2.8A1.367,1.367,0,0,0,34.97,1.443ZM34.242,32.2c0,1.35-1.164,1.233-1.164,1.233H20.913a69.374,69.374,0,0,0,13.329-9.022ZM34.5,20.672c-.51,2.014-1.638,4.346-3.694,2.82-3-2.22-5.952-4.1-6.333.359-.314,3.759-7.262,8.871-8.775,9.939H2.508a.422.422,0,0,1-.424-.424V14.188a.424.424,0,0,1,.424-.426H34.074a.427.427,0,0,1,.426.426l0,6.484Z" transform="translate(-0.25 2.012)" fill="#100c74"/>
        <rect id="Rectangle_511" data-name="Rectangle 511" width="5.272" height="5.27" transform="translate(7.202 19.083)" fill="#100c74"/>
        <rect id="Rectangle_512" data-name="Rectangle 512" width="5.267" height="5.27" transform="translate(15.874 19.083)" fill="#100c74"/>
        <rect id="Rectangle_513" data-name="Rectangle 513" width="5.272" height="5.27" transform="translate(7.202 27.077)" fill="#100c74"/>
        <path id="Path_850" data-name="Path 850" d="M6.88,16.579H8.405a45.2,45.2,0,0,0,3.742-3.955V11.309H6.88Z" transform="translate(8.994 15.768)" fill="#100c74"/>
        <path id="Path_851" data-name="Path 851" d="M10.386,10.455a2.424,2.424,0,0,1,1.745-.678A6.937,6.937,0,0,1,15.653,11.2V7.97H10.386Z" transform="translate(13.883 11.113)" fill="#100c74"/>
      </g>
    </g>
  </g>
</svg>
