<svg xmlns="http://www.w3.org/2000/svg" width="72.292" height="172.53" viewBox="0 0 72.292 172.53">
  <g id="Group_1488" data-name="Group 1488" transform="translate(-1336.45 -323.391)">
    <g id="Group_1374" data-name="Group 1374" transform="translate(1336.977 323.391)">
      <g id="human-body">
        <g id="Group_1373" data-name="Group 1373" transform="translate(0 0)">
          <path id="Path_1187" data-name="Path 1187" d="M116.731,86.691a19.569,19.569,0,0,1-2.664-3.961,46.717,46.717,0,0,1-1.084-7.143c-.191-6.436-1.778-9.228-1.778-9.228-2.731-4.353-3.229-12.479-3.229-12.479l-.125-13.721C106.908,30.8,100,30.726,100,30.726c-5.393-.8-7.163-2.314-7.719-2.971l.085-.011s-5.08-7.79-2.876-11.064c0,0,2.758-3.769,2.8-5.818,0,0,.685-3.476-2.9-7.345C87.657,1.669,85.389-.055,79.864,0a10.764,10.764,0,0,0-7.974,3.347,8.3,8.3,0,0,0-2.262,7.127c.079.735,1.143,1.556.424,2.994l-1.472,3.274s-.022.843,1.294.854c0,0,.34.034.248.764l.005,1.051s.045.325.621.494l-.057.325s-.3.343.237,1.062a1.314,1.314,0,0,1,.345,1.28l.3,1.629s.6.7,2.98.364c.833-.123,2.357-.55,3.282.59,0,0,.151,1.315.312,2.286h-.237s-.966,2.258-7.928,3.286c0,0-6.908.073-7.864,9.44L62,53.881S61.49,62,58.764,66.36c0,0-1.582,2.8-1.778,9.233a46.7,46.7,0,0,1-1.081,7.138,19.43,19.43,0,0,1-2.674,3.961c-1.98,2.47-5.327,7.625-3.538,8.2,0,0,1.381.129,3.232-3.493a21.543,21.543,0,0,1-1.515,5.441c-.29.77-1.514,4.634.477,3.234,0,0,.906-.633,2.108-4.593,0,0-.632,6.666.077,7.02.932.448,1.448-.86,1.869-6.717,0,0,.424-1.876.627,5.329.01.364.56,2.219,1.316.647.637-1.326.357-4.853.357-6.021,0,0,.829,4.551,1.575,4.551,0,0,.9,1.06.546-4.584a29.077,29.077,0,0,1,.295-3.392l.093-2.169s-.225-2.488-.225-3.5a22.964,22.964,0,0,1,3.232-7.222s4.874-8.637,4.56-14.293c0,0-.077-5.391,1.885-8.452,0,0,1.4,15.269.449,19.554,0,0-4.387,10.535-3.421,18.4.713,5.846,2.081,18.336,3.485,23.267.718,2.549.291,8.985.872,10.6.254.691.122,1.331-.434,2.931-1.981,5.527-1.733,9.43,3.228,24.1,0,0,1.526,3.24.763,9.1,0,0-3.165,6.5-1.134,6.632,0,0,.168.427.839.089a2.08,2.08,0,0,0,2.276.511,1.682,1.682,0,0,0,2.025.1,1.429,1.429,0,0,0,1.855.168s1.437.958,2.283-.087c0,0,1.526.358-1.184-6.5a87.585,87.585,0,0,0-1.592-8.671c-1.082-2.707-.329-10.1-.092-11.7a37.065,37.065,0,0,0-.511-10.653c-.493-2.522.856-7.25,1.349-10.158,1.033-6.115,3.03-21.751,2.779-24.694l.836.285a1.731,1.731,0,0,0,.977-.285c-.245,2.942,1.761,18.571,2.8,24.694.483,2.909,1.828,7.632,1.334,10.158a37.649,37.649,0,0,0-.512,10.653c.235,1.6,1.006,8.992-.075,11.7-.577,1.417-1.605,8.671-1.605,8.671-2.713,6.839-1.18,6.5-1.18,6.5.836,1.045,2.28.087,2.28.087a1.407,1.407,0,0,0,1.84-.168,1.673,1.673,0,0,0,2.032-.1,2.089,2.089,0,0,0,2.281-.511c.672.354.837-.089.837-.089,2.036-.129-1.131-6.632-1.131-6.632-.77-5.858.764-9.1.764-9.1,4.937-14.687,5.2-18.578,3.229-24.1-.584-1.59-.706-2.241-.45-2.931.6-1.595.171-8.042.89-10.6,1.39-4.914,2.761-17.422,3.48-23.267.954-7.863-3.432-18.4-3.432-18.4-.943-4.285.45-19.554.45-19.554,1.965,3.049,1.9,8.452,1.9,8.452-.325,5.656,4.561,14.293,4.561,14.293a23.282,23.282,0,0,1,3.228,7.222c0,1.027-.223,3.5-.223,3.5l.087,2.169a29.724,29.724,0,0,1,.306,3.392c-.366,5.633.526,4.584.526,4.584.769,0,1.6-4.551,1.6-4.551,0,1.169-.282,4.684.355,6.021.762,1.561,1.313-.281,1.317-.647.193-7.206.619-5.325.619-5.325.423,5.852.945,7.161,1.87,6.712.708-.354.062-7.02.062-7.02,1.213,3.953,2.122,4.593,2.122,4.593,1.989,1.393.764-2.469.485-3.234-1.49-4.054-1.523-5.441-1.523-5.441,1.877,3.638,3.269,3.5,3.269,3.5C122.05,94.312,118.7,89.161,116.731,86.691ZM73.124,9.222A2.9,2.9,0,0,1,72.1,7.582a3.384,3.384,0,0,1,.955-3.156,9.129,9.129,0,0,1,6.731-2.819c5.157-.044,7,1.467,8.436,3.005,2.367,2.567,2.546,4.812,2.524,5.622l.023.292a5.221,5.221,0,0,1-4.873,5.447c-1.922.1-2.038-1.191-2.97-2.167l-.38.034c-2.259.107-1.876-2.3-2.76-2.943C77.662,9.363,74.705,10.773,73.124,9.222Z" transform="translate(-49.185 0)" fill="#dfddff"/>
        </g>
      </g>
      <ellipse id="Ellipse_231" data-name="Ellipse 231" cx="9.151" cy="6.815" rx="9.151" ry="6.815" transform="translate(22.196 1.168)" fill="#dfddff"/>
      <ellipse id="Ellipse_232" data-name="Ellipse 232" cx="9.151" cy="6.815" rx="9.151" ry="6.815" transform="translate(24.143 3.505)" fill="#dfddff"/>
    </g>
    <path id="Path_1194" data-name="Path 1194" d="M11437.514,10290.866l5.569-1.086,3.748,4.859a40.454,40.454,0,0,1,2.771,5.355c.514,1.617-.508,1.248-1.134,1.16s-1.638-1.628-1.638-1.628l-1.311-1.584a68.325,68.325,0,0,1,2.444,7.885c.327,2.137-.885,1.043-1.728,0a16.023,16.023,0,0,1-1.646-4.172s.826,5.018.574,6.689-.988,1.283-1.664-.389a33.046,33.046,0,0,1-1.039-6.3s0,5.114-.479,6.689-1.064,1.226-1.419-.389a33.321,33.321,0,0,1,0-6.068,26.048,26.048,0,0,1-1.427,4.6c-.639,1.092-1.126-.232-1.126-.232s-.6-6.573-.5-9.937.5-3.58.5-3.58Z" transform="translate(-10041 -9883)" fill="#7c76fe"/>
    <path id="Path_1195" data-name="Path 1195" d="M11384.4,10289.524l5.743.771a12.848,12.848,0,0,0-.757,3.416,25.5,25.5,0,0,0,.231,3.946c.078,1.911-.385,1.836-.385,3.795a35,35,0,0,1,0,4.742c-.212,1.276-1.16.363-1.16.363l-1.085-4.525s.416,4.865,0,6.326-1.124,1.242-1.665-.484-.5-6.422-.5-6.422-.346,5.648-.926,7.254-1.046.836-1.395-.832a21.236,21.236,0,0,1,.31-5.434,24.847,24.847,0,0,1-1.973,3.754c-.773.977-1.652,1.877-1.43-.258a65.85,65.85,0,0,1,2.321-8.279s-1.728,3.233-2.666,3.795-2.421,1.433-1.088-1.55c.385-.862,1.7-3.885,1.7-3.885Z" transform="translate(-10041 -9883)" fill="#7c76fe"/>
  </g>
</svg>
