<svg xmlns="http://www.w3.org/2000/svg" width="32.116" height="32.116" viewBox="0 0 32.116 32.116">
  <g id="health" transform="translate(0)">
    <g id="Group_624" data-name="Group 624" transform="translate(0 13.248)">
      <g id="Group_623" data-name="Group 623">
        <path id="Path_911" data-name="Path 911" d="M20.073,215.348a1.286,1.286,0,0,1-1.2-.8L17.53,211.2l-2.81,8.564a1.346,1.346,0,0,1-2.543,0l-2.007-5.888-1.2,1.2a1.129,1.129,0,0,1-.937.268H0V220.7a1.264,1.264,0,0,0,1.338,1.338H8.029v6.691a1.264,1.264,0,0,0,1.338,1.338H22.749a1.264,1.264,0,0,0,1.338-1.338v-6.691h6.691a1.264,1.264,0,0,0,1.338-1.338v-5.353H20.073Z" transform="translate(0 -211.2)" fill="#fff"/>
      </g>
    </g>
    <g id="Group_626" data-name="Group 626">
      <g id="Group_625" data-name="Group 625">
        <path id="Path_912" data-name="Path 912" d="M30.778,8.029H24.087V1.338A1.264,1.264,0,0,0,22.749,0H9.367A1.264,1.264,0,0,0,8.029,1.338V8.029H1.338A1.264,1.264,0,0,0,0,9.367V14.72H7.494l2.275-2.275a1.354,1.354,0,0,1,2.275.535l1.338,4.148,2.81-8.3A1.348,1.348,0,0,1,18.734,8.7l2.275,6.022H32.116V9.367A1.264,1.264,0,0,0,30.778,8.029Z" fill="#fff"/>
      </g>
    </g>
  </g>
</svg>
