<svg xmlns="http://www.w3.org/2000/svg" width="40.372" height="40.372" viewBox="0 0 40.372 40.372">
  <g id="blood-pressure-gauge" transform="translate(-1 -1)">
    <g id="Group_1065" data-name="Group 1065" transform="translate(3.605 1)">
      <path id="Path_1055" data-name="Path 1055" d="M14.873,1H12.057A7.065,7.065,0,0,0,5,8.057a13.348,13.348,0,0,0,.488,3.574l.133.477h.139A1.946,1.946,0,0,1,7.6,10.767h.651v-1.3a2.6,2.6,0,0,1,2.6-2.6h7.647a4.423,4.423,0,0,1,.167,1.19v2.717h.651a1.948,1.948,0,0,1,1.846,1.341h.139l.133-.477a13.373,13.373,0,0,0,.487-3.574A7.065,7.065,0,0,0,14.873,1Z" transform="translate(-5 -1)" fill="#f0bc5e"/>
    </g>
    <g id="Group_1067" data-name="Group 1067" transform="translate(24.442 28.348)">
      <g id="Group_1066" data-name="Group 1066">
        <path id="Path_1056" data-name="Path 1056" d="M51.325,48.209H37V43H51.325Z" transform="translate(-37 -43)" fill="#f0bc5e"/>
      </g>
    </g>
    <g id="Group_1068" data-name="Group 1068" transform="translate(1 1)">
      <circle id="Ellipse_211" data-name="Ellipse 211" cx="0.651" cy="0.651" r="0.651" transform="translate(7.814 9.116)"/>
      <circle id="Ellipse_212" data-name="Ellipse 212" cx="0.651" cy="0.651" r="0.651" transform="translate(13.023 9.116)"/>
      <path id="Path_1057" data-name="Path 1057" d="M16.4,10.66h1.3V9.9a5.064,5.064,0,0,0-1.493-3.6l-.921.921A3.77,3.77,0,0,1,16.4,9.9Z" transform="translate(-5.986 -2.846)"/>
      <path id="Path_1058" data-name="Path 1058" d="M20.4,10.66h1.3V9.9a5.064,5.064,0,0,0-1.493-3.6l-.921.921A3.77,3.77,0,0,1,20.4,9.9Z" transform="translate(-7.381 -2.846)"/>
      <path id="Path_1059" data-name="Path 1059" d="M20.209,21h-1.3a1.3,1.3,0,0,1-1.3,1.3H15v1.3h2.6A2.607,2.607,0,0,0,20.209,21Z" transform="translate(-5.884 -7.977)"/>
      <path id="Path_1060" data-name="Path 1060" d="M39.418,27.59H23.79a1.936,1.936,0,0,0-1.173.4,8.519,8.519,0,0,0-7.241-5.554l-.161-.014-.322-1.612a4.565,4.565,0,0,0,2.984-3.64h.052a2.6,2.6,0,0,0,0-5.209V9.9a5.064,5.064,0,0,0-1.493-3.6l-.921.921A3.772,3.772,0,0,1,16.628,9.9V16.52a3.259,3.259,0,0,1-3.256,3.256h-2.6A3.259,3.259,0,0,1,7.512,16.52V11.311A1.956,1.956,0,0,1,9.465,9.358h.651v-1.3H9.465a3.259,3.259,0,0,0-3.256,3.256v.651a2.6,2.6,0,1,0,0,5.209h.052a4.563,4.563,0,0,0,2.984,3.64l-.322,1.612-.161.014A8.515,8.515,0,0,0,1,30.873V32.8a6.519,6.519,0,0,0,6.512,6.512h1.3a1.3,1.3,0,0,0,1.3,1.3h1.3v.651a1.956,1.956,0,0,0,1.953,1.953H39.418a1.956,1.956,0,0,0,1.953-1.953V29.543a1.956,1.956,0,0,0-1.953-1.953ZM19.232,14.567a1.3,1.3,0,0,1-1.3,1.3v-2.6A1.3,1.3,0,0,1,19.232,14.567Zm-14.325,0a1.3,1.3,0,0,1,1.3-1.3v2.6A1.3,1.3,0,0,1,4.907,14.567ZM9.337,23.7l1.633.817L9.643,25.84,8.609,23.77c.087-.01.173-.027.262-.035Zm5.464,0,.467.039c.089.007.174.024.262.035L14.5,25.84l-1.327-1.327Zm-4.035-2.618h2.6c.083,0,.163-.008.245-.012l.321,1.606-1.868.934L10.2,22.672l.321-1.606c.082,0,.163.012.245.012ZM7.3,24.057l1.991,3.981,2.783-2.783,2.783,2.783,1.991-3.981a7.211,7.211,0,0,1,4.994,6.816V31.5h-2.6V29.543h-1.3V34.1h-.252a2.525,2.525,0,0,0-3.857-.69,1.3,1.3,0,0,0-1.1-.612h-2.6a1.3,1.3,0,0,0-1.3,1.3h-1.3a1.3,1.3,0,0,1-1.3-1.3V29.543h-1.3V31.5H2.3v-.624A7.211,7.211,0,0,1,7.3,24.057Zm6.727,10.965.557-.557a1.252,1.252,0,0,1,.878-.363,1.234,1.234,0,0,1,1.11.686l.308.616H17.93a1.3,1.3,0,0,1,0,2.6H14.023Zm-1.3.382h-2.6V34.1h2.6Zm-5.209,2.6A5.215,5.215,0,0,1,2.3,32.8h2.6a2.607,2.607,0,0,0,2.6,2.6h1.3v2.6Zm2.6-1.3h2.605v2.6H10.116Zm3.256,5.209a.652.652,0,0,1-.651-.651v-.651a1.3,1.3,0,0,0,1.3-1.3H17.93a2.6,2.6,0,0,0,1.3-4.847V32.8h2.6v8.465a1.959,1.959,0,0,0,.111.651Zm26.7-.651a.652.652,0,0,1-.651.651H23.79a.652.652,0,0,1-.651-.651V29.543a.652.652,0,0,1,.651-.651H39.418a.652.652,0,0,1,.651.651Z" transform="translate(-1 -2.846)"/>
      <path id="Path_1061" data-name="Path 1061" d="M38.953,53a1.953,1.953,0,1,0,1.953,1.953A1.956,1.956,0,0,0,38.953,53Zm0,2.6a.651.651,0,1,1,.651-.651A.652.652,0,0,1,38.953,55.6Z" transform="translate(-13.558 -19.14)"/>
      <path id="Path_1062" data-name="Path 1062" d="M46.953,53a1.953,1.953,0,1,0,1.953,1.953A1.956,1.956,0,0,0,46.953,53Zm0,2.6a.651.651,0,1,1,.651-.651A.652.652,0,0,1,46.953,55.6Z" transform="translate(-16.349 -19.14)"/>
      <path id="Path_1063" data-name="Path 1063" d="M54.953,53a1.953,1.953,0,1,0,1.953,1.953A1.956,1.956,0,0,0,54.953,53Zm0,2.6a.651.651,0,1,1,.651-.651A.652.652,0,0,1,54.953,55.6Z" transform="translate(-19.14 -19.14)"/>
      <path id="Path_1064" data-name="Path 1064" d="M53,20.953A1.953,1.953,0,1,0,54.953,19,1.956,1.956,0,0,0,53,20.953Zm2.6,0a.651.651,0,1,1-.651-.651A.652.652,0,0,1,55.6,20.953Z" transform="translate(-19.14 -7.279)"/>
      <path id="Path_1065" data-name="Path 1065" d="M42.116,24.442A9.08,9.08,0,0,0,50.73,18.3a4.545,4.545,0,0,0-.721-7.7C47.9,6.076,43.14,1,42.116,1,40.766,1,33,9.535,33,15.325a9.126,9.126,0,0,0,9.116,9.116Zm0-1.3a7.82,7.82,0,0,1-7.7-6.512h1.487l1.877,2.815,1.7-5.659L41.4,20.828l1.834-5.5h.234a4.545,4.545,0,0,0,5.47,3.8A7.781,7.781,0,0,1,42.116,23.139Zm9.116-8.465a3.256,3.256,0,1,1-3.256-3.256A3.259,3.259,0,0,1,51.232,14.674ZM42.116,2.386a29.965,29.965,0,0,1,6.2,7.747c-.113-.008-.225-.017-.34-.017a4.561,4.561,0,0,0-4.506,3.907H42.3l-.771,2.312L39.541,9.053l-2.209,7.365L36.6,15.325H34.3C34.3,10.25,40.663,3.444,42.116,2.386Z" transform="translate(-12.163 -1)"/>
    </g>
  </g>
</svg>
