<svg xmlns="http://www.w3.org/2000/svg" width="45.759" height="45.425" viewBox="0 0 45.759 45.425">
  <g id="wellness" transform="translate(0 0)">
    <g id="Group_938" data-name="Group 938" transform="translate(11.324 29.306)">
      <path id="Path_989" data-name="Path 989" d="M421.88,353.824a5.841,5.841,0,0,1,1.994,4.4v1.465h3.663v-5.861Z" transform="translate(-394.567 -350.893)" fill="#f0bc5e"/>
      <path id="Path_990" data-name="Path 990" d="M327.311,355.289v-1.465h-3.663v5.861H329.3A5.841,5.841,0,0,1,327.311,355.289Z" transform="translate(-305.332 -350.893)" fill="#f0bc5e"/>
      <path id="Path_991" data-name="Path 991" d="M210.975,322.557l-5.129,3.663-2.2-1.954,3.663-2.442Z" transform="translate(-196.321 -321.824)" fill="#f0bc5e"/>
      <path id="Path_992" data-name="Path 992" d="M123.648,322.557l6.077,4.254a2.93,2.93,0,0,1,1.25,2.4v3.6h2.931v-5.025a2.93,2.93,0,0,0-1.3-2.438l-5.289-3.526Z" transform="translate(-123.648 -321.824)" fill="#f0bc5e"/>
    </g>
    <path id="Path_993" data-name="Path 993" d="M42.1,25.485V22.338H39.165v-4.4h5.129v-2.8l-7.916-1.583L33.3,13.547v4.4h1.465v4.4H31.838v3.147A5.136,5.136,0,0,0,28.175,30.4v.843L23.047,30.5v-1.41a8.093,8.093,0,0,0,3.132-3.893l.095-.072.069-.06a10.957,10.957,0,0,0,1.833-13.31v-.4a9.525,9.525,0,1,0-19.049,0v.4a10.955,10.955,0,0,0,1.815,13.29l.207.218a8.1,8.1,0,0,0,3.107,3.826v1.41l-6.222.889a6.6,6.6,0,0,0-5.222,4.161L0,42.853H28.175v2.2a2.2,2.2,0,0,0,2.2,2.2H43.561a2.2,2.2,0,0,0,2.2-2.2V30.4A5.136,5.136,0,0,0,42.1,25.485ZM34.769,15.012h1.393l6.666,1.333v.133H34.769Zm1.465,2.931H37.7v4.4H36.234ZM33.3,23.8H40.63v1.465H33.3ZM18.651,3.289a8.068,8.068,0,0,1,7.844,6.237,10.957,10.957,0,0,0-15.688,0A8.068,8.068,0,0,1,18.651,3.289Zm0,4.4A9.516,9.516,0,0,1,26.71,22.275v-6.53h-.733a15.17,15.17,0,0,1-7.927-2.093L17.3,14.908q.224.134.451.261a31.841,31.841,0,0,1-6.423.576h-.733v6.529A9.515,9.515,0,0,1,18.651,7.685ZM12.057,22.338V17.2a28.828,28.828,0,0,0,7.554-.992l.229-.075a17.057,17.057,0,0,0,5.4,1.059v5.143a6.594,6.594,0,0,1-13.188,0ZM18.651,30.4a8.006,8.006,0,0,0,2.931-.56v.9l-2.931,1.954L15.72,30.738v-.9A8.006,8.006,0,0,0,18.651,30.4ZM4.179,36.071A5.132,5.132,0,0,1,8.24,32.835l6.573-.939,5.056,3.371a2.194,2.194,0,0,1,.979,1.829v4.293H2.134Zm18.135,5.317V37.095a3.657,3.657,0,0,0-1.632-3.048l-.711-.474L22.487,31.9l5.568.795.12.019v8.678H22.314Zm21.98,3.663a.733.733,0,0,1-.733.733H30.373a.733.733,0,0,1-.733-.733V30.4A3.667,3.667,0,0,1,33.3,26.734H40.63A3.667,3.667,0,0,1,44.294,30.4Z" transform="translate(0 -1.824)"/>
    <path id="Path_994" data-name="Path 994" d="M443.648,289.824v1.465a.733.733,0,0,1,.733.733v1.465h1.465v-1.465A2.2,2.2,0,0,0,443.648,289.824Z" transform="translate(-403.018 -263.448)"/>
    <path id="Path_995" data-name="Path 995" d="M357.846,329.824h-2.2v3.663a6.6,6.6,0,0,0,6.594,6.594h2.2v-3.663A6.6,6.6,0,0,0,357.846,329.824Zm5.129,7.5-3.833-4.6-1.125.939,4.123,4.948a5.132,5.132,0,0,1-5.025-5.123v-2.2h.733a5.135,5.135,0,0,1,5.129,5.129Z" transform="translate(-323.077 -299.785)"/>
  </g>
</svg>
