<svg xmlns="http://www.w3.org/2000/svg" width="40.621" height="40.621" viewBox="0 0 40.621 40.621">
  <g id="test-tube" transform="translate(-1 -1)">
    <g id="Group_1057" data-name="Group 1057" transform="translate(27.207 20.655)">
      <g id="Group_1056" data-name="Group 1056">
        <path id="Path_1038" data-name="Path 1038" d="M42.966,34.931a1.966,1.966,0,1,1,1.966-1.966A1.968,1.968,0,0,1,42.966,34.931Z" transform="translate(-41 -31)" fill="#f0bc5e"/>
      </g>
    </g>
    <g id="Group_1059" data-name="Group 1059" transform="translate(31.138 25.242)">
      <g id="Group_1058" data-name="Group 1058">
        <path id="Path_1039" data-name="Path 1039" d="M48.966,41.931a1.966,1.966,0,1,1,1.966-1.966A1.968,1.968,0,0,1,48.966,41.931Z" transform="translate(-47 -38)" fill="#f0bc5e"/>
      </g>
    </g>
    <g id="Group_1060" data-name="Group 1060" transform="translate(27.207 29.828)">
      <path id="Path_1040" data-name="Path 1040" d="M44.008,45.039a2.607,2.607,0,1,0,1.779,1.11A3.928,3.928,0,0,1,44.008,45.039Z" transform="translate(-41 -45)" fill="#f0bc5e"/>
    </g>
    <g id="Group_1061" data-name="Group 1061" transform="translate(14.104 21.311)">
      <path id="Path_1041" data-name="Path 1041" d="M21,32h6.552v2.621H21Z" transform="translate(-21 -32)" fill="#f0bc5e"/>
    </g>
    <g id="Group_1062" data-name="Group 1062" transform="translate(14.104 27.862)">
      <path id="Path_1042" data-name="Path 1042" d="M21,42h6.552v2.621H21Z" transform="translate(-21 -42)" fill="#f0bc5e"/>
    </g>
    <g id="Group_1063" data-name="Group 1063" transform="translate(1 1)">
      <path id="Path_1043" data-name="Path 1043" d="M37,41.414a5.242,5.242,0,1,0,10.366-1.048,4.581,4.581,0,0,0-1.2-8.728c0-.017,0-.034,0-.052a4.586,4.586,0,1,0-5.237,4.534c0,.018,0,.035,0,.052,0,.057.007.112.009.168A5.252,5.252,0,0,0,37,41.414Zm11.793-5.241a3.276,3.276,0,0,1-6.552,0c0-.018,0-.035,0-.053a4.6,4.6,0,0,0,3.722-3.178A3.271,3.271,0,0,1,48.793,36.173ZM38.31,31.586a3.276,3.276,0,1,1,3.276,3.276A3.28,3.28,0,0,1,38.31,31.586Zm2.866,6.055a4.542,4.542,0,0,0,4.93,3.076,3.982,3.982,0,0,1,.066.7,3.931,3.931,0,1,1-5-3.773Z" transform="translate(-13.414 -9.965)"/>
      <path id="Path_1044" data-name="Path 1044" d="M41.621,8.862A2.623,2.623,0,0,0,39,6.241H27.207V2.31A1.312,1.312,0,0,0,25.9,1H2.31A1.312,1.312,0,0,0,1,2.31v38a1.312,1.312,0,0,0,1.31,1.31H31.138a9.183,9.183,0,0,0,9.173-9.173V11.119A2.612,2.612,0,0,0,41.621,8.862ZM25.9,6.241h-1.31V3.621H20.655V2.31H25.9Zm-3.931,4.877v21.33a9.114,9.114,0,0,0,1.656,5.241H8.862v-.113a3.845,3.845,0,0,1,1.118-2.7l.643-.643L4.931,31.389V4.931H7.552a1.312,1.312,0,0,0,1.31,1.31H19.345a1.312,1.312,0,0,0,1.31-1.31h2.621v1.31a2.612,2.612,0,0,0-1.31,4.877ZM7.734,36.283,6,33.386,8.485,34.63a5.185,5.185,0,0,0-.751,1.652ZM8.862,2.31H19.345V4.931H8.862Zm-6.552,38v-38H7.552v1.31H3.621V31.612a1.306,1.306,0,0,0,.187.674l3.647,6.078A1.318,1.318,0,0,0,8.578,39H24.731a9.237,9.237,0,0,0,1.707,1.31ZM39,12.793H36.38V14.1H39v1.31H33.759v1.31H39v1.31H36.38v1.31H39v13.1a7.862,7.862,0,1,1-15.724,0V11.483H39Zm0-2.621H23.276a1.31,1.31,0,1,1,0-2.621H39a1.31,1.31,0,1,1,0,2.621Z" transform="translate(-1 -1)"/>
      <path id="Path_1045" data-name="Path 1045" d="M22.1,11H9v9.173H22.1Zm-5.241,2.621a1.31,1.31,0,1,1-1.31-1.31A1.312,1.312,0,0,1,16.862,13.621ZM10.31,12.31H13.3a2.573,2.573,0,0,0,.361,3.11,3.932,3.932,0,0,0-2.036,3.442H10.31Zm5.241,3.931a2.623,2.623,0,0,1,2.621,2.621H12.931A2.623,2.623,0,0,1,15.552,16.241Zm5.241,2.621h-1.31a3.932,3.932,0,0,0-2.036-3.442,2.573,2.573,0,0,0,.361-3.11h2.985Z" transform="translate(-3.759 -4.448)"/>
      <path id="Path_1046" data-name="Path 1046" d="M10.69,33.056l-1.47-1.47-.926.926,2.461,2.461L15.8,29.2l-.987-.862Z" transform="translate(-3.515 -10.428)"/>
      <path id="Path_1047" data-name="Path 1047" d="M21,35h6.552v1.31H21Z" transform="translate(-7.896 -12.724)"/>
      <path id="Path_1048" data-name="Path 1048" d="M21,31h6.552v1.31H21Z" transform="translate(-7.896 -11.345)"/>
      <path id="Path_1049" data-name="Path 1049" d="M10.69,43.056l-1.47-1.47-.926.926,2.461,2.461L15.8,39.2l-.987-.862Z" transform="translate(-3.515 -13.876)"/>
      <path id="Path_1050" data-name="Path 1050" d="M21,45h6.552v1.31H21Z" transform="translate(-7.896 -16.172)"/>
      <path id="Path_1051" data-name="Path 1051" d="M21,41h6.552v1.31H21Z" transform="translate(-7.896 -14.793)"/>
      <path id="Path_1052" data-name="Path 1052" d="M21,51h1.31v1.31H21Z" transform="translate(-7.896 -18.241)"/>
      <path id="Path_1053" data-name="Path 1053" d="M25,51h1.31v1.31H25Z" transform="translate(-9.276 -18.241)"/>
      <path id="Path_1054" data-name="Path 1054" d="M29,51h1.31v1.31H29Z" transform="translate(-10.655 -18.241)"/>
    </g>
  </g>
</svg>
