<svg xmlns="http://www.w3.org/2000/svg" width="432.254" height="511.999" viewBox="0 0 432.254 511.999">
  <g id="mute" transform="translate(-39.873)">
    <g id="Group_1590" data-name="Group 1590">
      <g id="Group_1589" data-name="Group 1589">
        <path id="Path_1259" data-name="Path 1259" d="M256,0a100.088,100.088,0,0,0-99.973,99.973v169.9A100.088,100.088,0,0,0,256,369.842c55.124,0,99.973-45.109,99.973-100.551V99.973A100.084,100.084,0,0,0,256,0Zm65.3,269.291c0,36.325-29.293,65.878-65.3,65.878a65.377,65.377,0,0,1-65.3-65.3V99.973a65.3,65.3,0,0,1,130.6,0Z" fill="#8988a4"/>
      </g>
    </g>
    <g id="Group_1592" data-name="Group 1592">
      <g id="Group_1591" data-name="Group 1591">
        <rect id="Rectangle_853" data-name="Rectangle 853" width="34.673" height="78.591" transform="translate(238.664 420.117)" fill="#8988a4"/>
      </g>
    </g>
    <g id="Group_1594" data-name="Group 1594">
      <g id="Group_1593" data-name="Group 1593">
        <path id="Path_1260" data-name="Path 1260" d="M327.657,477.327H184.343a17.336,17.336,0,1,0,0,34.672H327.657a17.336,17.336,0,0,0,0-34.672Z" fill="#8988a4"/>
      </g>
    </g>
    <g id="Group_1596" data-name="Group 1596">
      <g id="Group_1595" data-name="Group 1595">
        <path id="Path_1261" data-name="Path 1261" d="M402.2,184.343a17.335,17.335,0,0,0-17.336,17.336v68.19a128.867,128.867,0,0,1-257.734,0v-68.19a17.336,17.336,0,0,0-34.672,0v68.19c0,90.178,73.362,163.539,163.539,163.539s163.539-73.362,163.539-163.539v-68.19A17.335,17.335,0,0,0,402.2,184.343Z" fill="#8988a4"/>
      </g>
    </g>
    <g id="Group_1598" data-name="Group 1598">
      <g id="Group_1597" data-name="Group 1597">
        <path id="Path_1262" data-name="Path 1262" d="M467.047,44.953a17.327,17.327,0,0,0-24.514,0L44.953,442.533a17.334,17.334,0,1,0,24.514,24.514l397.58-397.58A17.327,17.327,0,0,0,467.047,44.953Z" fill="#8988a4"/>
      </g>
    </g>
  </g>
</svg>
