<svg id="confetti" xmlns="http://www.w3.org/2000/svg" width="41.185" height="41.199" viewBox="0 0 41.185 41.199">
  <g id="Group_29" data-name="Group 29" transform="translate(0 9.735)">
    <g id="Group_28" data-name="Group 28" transform="translate(0)">
      <path id="Path_178" data-name="Path 178" d="M28.167,129.57a.686.686,0,1,0-1.291.465l.01.026c.626,1.634.671,2.883.124,3.432-.664.663-2.319.456-4.428-.553a29.359,29.359,0,0,1-7.6-5.67c-5.376-5.377-7.595-10.653-6.223-12.025a1.875,1.875,0,0,1,1.553-.362.686.686,0,0,0,.133-1.366,3.161,3.161,0,0,0-2.656.755c-2.515,2.514,1.33,9.073,6.223,13.966a30.7,30.7,0,0,0,7.976,5.937,13.524,13.524,0,0,0,1.656.662l-4.877,1.849A19.428,19.428,0,0,1,6.481,121.555a.686.686,0,1,0-1.356.213,20.781,20.781,0,0,0,11.788,15.619l-8.027,3.037a.675.675,0,0,0-.137-.163,9.563,9.563,0,0,1-3.542-6.646l-.318-3.857a.678.678,0,0,0-.722-.631l-.021,0a.686.686,0,0,0-.63.739v0l.324,3.855a10.934,10.934,0,0,0,3.632,7.231l-5.726,2.168,1.03-4.225a.687.687,0,0,0-1.334-.325L.1,144.067a.686.686,0,0,0,.91.805l25.4-9.609a.64.64,0,0,0,.114-.071,2.666,2.666,0,0,0,1.457-.727C28.659,133.784,29.245,132.382,28.167,129.57Z" transform="translate(-0.082 -113.468)" fill="#41ceb1"/>
    </g>
  </g>
  <g id="Group_31" data-name="Group 31" transform="translate(19.923 22.632)">
    <g id="Group_30" data-name="Group 30">
      <path id="Path_179" data-name="Path 179" d="M246.932,265.216a22.6,22.6,0,0,0-11.629-1.129l-2.452.412a.686.686,0,0,0,.227,1.354l2.452-.408a21.214,21.214,0,0,1,10.922,1.061.707.707,0,0,0,.241.041.686.686,0,0,0,.241-1.33Z" transform="translate(-232.294 -263.781)" fill="#41ceb1"/>
    </g>
  </g>
  <g id="Group_33" data-name="Group 33" transform="translate(21.282 13.041)">
    <g id="Group_32" data-name="Group 32">
      <path id="Path_180" data-name="Path 180" d="M263.846,152.388a.686.686,0,0,0-.915-.325l-14.414,6.864a.686.686,0,0,0-.325.915h0a.686.686,0,0,0,.915.325h0l14.414-6.864A.686.686,0,0,0,263.846,152.388Z" transform="translate(-248.126 -151.997)" fill="#41ceb1"/>
    </g>
  </g>
  <g id="Group_35" data-name="Group 35" transform="translate(13.255 4.109)">
    <g id="Group_34" data-name="Group 34">
      <path id="Path_181" data-name="Path 181" d="M157.991,48.437a.686.686,0,1,0-1.345.273l.005.025a19.2,19.2,0,0,1-1.025,11.606l-1,2.395a.686.686,0,0,0,.369.9.676.676,0,0,0,.264.053.686.686,0,0,0,.634-.422l1-2.392A20.564,20.564,0,0,0,157.991,48.437Z" transform="translate(-154.576 -47.887)" fill="#41ceb1"/>
    </g>
  </g>
  <g id="Group_37" data-name="Group 37" transform="translate(35.694 24.71)">
    <g id="Group_36" data-name="Group 36">
      <path id="Path_182" data-name="Path 182" d="M418.164,288a2.059,2.059,0,1,0,2.059,2.059A2.059,2.059,0,0,0,418.164,288Zm0,2.746a.686.686,0,1,1,.686-.686A.686.686,0,0,1,418.164,290.746Z" transform="translate(-416.105 -288)" fill="#41ceb1"/>
    </g>
  </g>
  <g id="Group_39" data-name="Group 39" transform="translate(19.221 5.491)">
    <g id="Group_38" data-name="Group 38">
      <path id="Path_183" data-name="Path 183" d="M226.164,64a2.059,2.059,0,1,0,2.059,2.059A2.059,2.059,0,0,0,226.164,64Zm0,2.746a.686.686,0,1,1,.686-.686A.686.686,0,0,1,226.164,66.746Z" transform="translate(-224.105 -64)" fill="#41ceb1"/>
    </g>
  </g>
  <g id="Group_41" data-name="Group 41" transform="translate(13.73)">
    <g id="Group_40" data-name="Group 40">
      <circle id="Ellipse_33" data-name="Ellipse 33" cx="1.373" cy="1.373" r="1.373" fill="#41ceb1"/>
    </g>
  </g>
  <g id="Group_43" data-name="Group 43" transform="translate(33.635 3.432)">
    <g id="Group_42" data-name="Group 42">
      <path id="Path_184" data-name="Path 184" d="M392.791,40a.686.686,0,0,0-.686.686v.686a.686.686,0,1,0,1.373,0v-.686A.686.686,0,0,0,392.791,40Z" transform="translate(-392.105 -40)" fill="#41ceb1"/>
    </g>
  </g>
  <g id="Group_45" data-name="Group 45" transform="translate(33.635)">
    <g id="Group_44" data-name="Group 44">
      <path id="Path_185" data-name="Path 185" d="M392.791,0a.686.686,0,0,0-.686.686v.686a.686.686,0,1,0,1.373,0V.686A.686.686,0,0,0,392.791,0Z" transform="translate(-392.105)" fill="#41ceb1"/>
    </g>
  </g>
  <g id="Group_47" data-name="Group 47" transform="translate(35.007 2.059)">
    <g id="Group_46" data-name="Group 46">
      <path id="Path_186" data-name="Path 186" d="M409.478,24h-.686a.686.686,0,1,0,0,1.373h.686a.686.686,0,1,0,0-1.373Z" transform="translate(-408.105 -24)" fill="#41ceb1"/>
    </g>
  </g>
  <g id="Group_49" data-name="Group 49" transform="translate(31.576 2.059)">
    <g id="Group_48" data-name="Group 48">
      <path id="Path_187" data-name="Path 187" d="M369.478,24h-.686a.686.686,0,1,0,0,1.373h.686a.686.686,0,1,0,0-1.373Z" transform="translate(-368.105 -24)" fill="#41ceb1"/>
    </g>
  </g>
  <g id="Group_51" data-name="Group 51" transform="translate(25.384 7.536)">
    <g id="Group_50" data-name="Group 50">
      <path id="Path_188" data-name="Path 188" d="M300.07,87.832h-3.446a.686.686,0,0,0-.686.686v3.446a.686.686,0,0,0,.686.686h3.446a.686.686,0,0,0,.686-.686V88.518A.686.686,0,0,0,300.07,87.832Zm-.686,3.446H297.31V89.2h2.074Z" transform="translate(-295.937 -87.832)" fill="#41ceb1"/>
    </g>
  </g>
  <g id="Group_53" data-name="Group 53" transform="translate(16.475 13.05)">
    <g id="Group_52" data-name="Group 52">
      <path id="Path_189" data-name="Path 189" d="M200.148,152.322a.686.686,0,0,0-.95-.05l-6.864,6.177a.686.686,0,0,0,.918,1.02l6.864-6.177A.686.686,0,0,0,200.148,152.322Z" transform="translate(-192.107 -152.105)" fill="#41ceb1"/>
    </g>
  </g>
  <g id="Group_55" data-name="Group 55" transform="translate(36.38 15.787)">
    <g id="Group_54" data-name="Group 54">
      <path id="Path_190" data-name="Path 190" d="M424.791,184a.686.686,0,0,0-.686.686v.686a.686.686,0,0,0,1.373,0v-.686A.686.686,0,0,0,424.791,184Z" transform="translate(-424.105 -184)" fill="#41ceb1"/>
    </g>
  </g>
  <g id="Group_57" data-name="Group 57" transform="translate(38.33 14.991)">
    <g id="Group_56" data-name="Group 56">
      <path id="Path_191" data-name="Path 191" d="M448.484,175.4l-.485-.485a.686.686,0,0,0-.971.971l.485.485a.686.686,0,0,0,.971-.971Z" transform="translate(-446.836 -174.722)" fill="#41ceb1"/>
    </g>
  </g>
  <g id="Group_59" data-name="Group 59" transform="translate(39.126 13.041)">
    <g id="Group_58" data-name="Group 58">
      <path id="Path_192" data-name="Path 192" d="M457.478,152h-.686a.686.686,0,0,0,0,1.373h.686a.686.686,0,0,0,0-1.373Z" transform="translate(-456.105 -152)" fill="#41ceb1"/>
    </g>
  </g>
  <g id="Group_61" data-name="Group 61" transform="translate(38.322 10.623)">
    <g id="Group_60" data-name="Group 60">
      <path id="Path_193" data-name="Path 193" d="M448.379,124.011a.686.686,0,0,0-.954,0l-.485.485a.686.686,0,0,0,.485,1.172h0a.686.686,0,0,0,.485-.2l.485-.485A.686.686,0,0,0,448.379,124.011Z" transform="translate(-446.739 -123.818)" fill="#41ceb1"/>
    </g>
  </g>
  <g id="Group_63" data-name="Group 63" transform="translate(36.38 9.609)">
    <g id="Group_62" data-name="Group 62">
      <path id="Path_194" data-name="Path 194" d="M424.791,112a.686.686,0,0,0-.686.686v.686a.686.686,0,1,0,1.373,0v-.686A.686.686,0,0,0,424.791,112Z" transform="translate(-424.105 -112)" fill="#41ceb1"/>
    </g>
  </g>
  <g id="Group_65" data-name="Group 65" transform="translate(33.962 10.623)">
    <g id="Group_64" data-name="Group 64">
      <path id="Path_195" data-name="Path 195" d="M397.564,124.5l-.485-.485a.686.686,0,0,0-.971.971l.485.485a.686.686,0,0,0,.971-.971Z" transform="translate(-395.916 -123.818)" fill="#41ceb1"/>
    </g>
  </g>
  <g id="Group_67" data-name="Group 67" transform="translate(0.001 0.031)">
    <g id="Group_66" data-name="Group 66" transform="translate(0)">
      <path id="Path_196" data-name="Path 196" d="M8.3,3.3a.686.686,0,0,0-.554-.467L5.73,2.538,4.832.713A.715.715,0,0,0,3.6.713L2.7,2.538.683,2.831A.686.686,0,0,0,.3,4L1.759,5.422,1.416,7.428a.686.686,0,0,0,1,.726l1.8-.95,1.8.947a.686.686,0,0,0,1-.723L6.669,5.422,8.126,4A.686.686,0,0,0,8.3,3.3ZM5.45,4.691a.686.686,0,0,0-.2.607l.17.992-.889-.469a.687.687,0,0,0-.638,0L3,6.289l.17-.992a.686.686,0,0,0-.194-.606l-.721-.7,1-.145a.686.686,0,0,0,.517-.375l.444-.9.445.9a.686.686,0,0,0,.516.375l1,.145Z" transform="translate(-0.095 -0.361)" fill="#41ceb1"/>
    </g>
  </g>
  <g id="Group_69" data-name="Group 69" transform="translate(30.905 29.517)">
    <g id="Group_68" data-name="Group 68">
      <path id="Path_197" data-name="Path 197" d="M368.255,348.919h0l-.283-.424a10.358,10.358,0,0,0-6.892-4.457.686.686,0,0,0-.227,1.354,8.98,8.98,0,0,1,5.238,2.92,4.049,4.049,0,0,0-2.746,1.885,2.746,2.746,0,1,0,4.794,2.677,3.981,3.981,0,0,0,.445-1.762,3.354,3.354,0,0,1,.15,3.564.686.686,0,1,0,1.181.7l.018-.032A4.792,4.792,0,0,0,368.255,348.919ZM366.94,352.2a1.373,1.373,0,1,1-2.4-1.327l.006-.011a2.572,2.572,0,0,1,1.859-1.209.7.7,0,0,1,.343.08C367.324,350.059,367.355,351.461,366.94,352.2Z" transform="translate(-360.294 -344.031)" fill="#41ceb1"/>
    </g>
  </g>
</svg>
