<svg xmlns="http://www.w3.org/2000/svg" xmlns:xlink="http://www.w3.org/1999/xlink" width="389.797" height="372" viewBox="0 0 389.797 372">
  <defs>
    <linearGradient id="linear-gradient" y1="0.5" x2="1" y2="0.5" gradientUnits="objectBoundingBox">
      <stop offset="0" stop-color="gray" stop-opacity="0.251"/>
      <stop offset="0.54" stop-color="gray" stop-opacity="0.122"/>
      <stop offset="1" stop-color="gray" stop-opacity="0.102"/>
    </linearGradient>
  </defs>
  <g id="Group_1494" data-name="Group 1494" transform="translate(-946 -443)">
    <g id="undraw_empty_xct9" transform="translate(946.004 442.997)" opacity="0.45">
      <ellipse id="Ellipse_221" data-name="Ellipse 221" cx="67.994" cy="12.881" rx="67.994" ry="12.881" transform="translate(68.737 273.335)" fill="#6c63ff" opacity="0.1"/>
      <path id="Path_1086" data-name="Path 1086" d="M321.7,98.045c-24.989-.865-48.789-8.935-71.516-17.761s-45.237-18.6-69.628-23.279C164.87,54,146.928,53.569,134.29,61.97c-12.166,8.108-16.1,22.066-18.209,35.028-1.591,9.753-2.525,20.02,1.83,29.151,3.027,6.34,8.394,11.668,12.108,17.742,12.923,21.128,3.788,47.183-10.213,67.813-6.564,9.676-14.19,18.919-19.259,29.209s-7.413,22.12-2.977,32.646c4.394,10.425,14.869,18.24,26.217,23.742,23.047,11.178,50.195,14.375,76.686,16.19,58.623,4.008,117.556,2.274,176.333.533,21.754-.641,43.6-1.293,65-4.657,11.885-1.869,24.151-4.834,32.781-11.993,10.95-9.085,13.665-24.468,6.325-35.858-12.309-19.113-46.333-23.858-54.948-44.364-4.734-11.29.127-23.862,7.012-34.329,14.765-22.46,39.511-42.163,40.812-67.832.9-17.63-11-35.287-29.395-43.631-19.279-8.745-46.017-7.645-60.233,6.83C369.506,93.08,343.768,98.813,321.7,98.045Z" transform="translate(-95.23 -55.03)" fill="#6c63ff" opacity="0.1"/>
      <path id="Path_1087" data-name="Path 1087" d="M438.657,253.706l-11.827-7.973h0l5.965-8.881-31.236-2.49-11.224,8.68-14.051-7.877-11.718,1.409-.139-3.089a87.175,87.175,0,0,0-.969-9.614c.05-.965.085-2.073.081-3.278,0-5.077-.687-11.807-3.707-16.294l.7-6.247-5.637-6.66a42.608,42.608,0,0,1,3.089-5.2c.193-.278.386-.548.595-.811a14.019,14.019,0,0,0,13.089-13.9,8.89,8.89,0,0,0-.039-1.015,3.677,3.677,0,0,0-.042-.409c.714.386,1.436.772,2.158,1.158.135.193.29.386.459.614h0l.035.042.216.266.069.081c.077.093.158.181.239.274l.054.062c.2.228.421.459.653.687a.694.694,0,0,1,.077.073l.29.27.081.073c.247.22.51.432.772.633l.085.062.332.228.108.069c.127.077.259.158.386.232l.046.027c.151.081.305.158.459.232l.077.031q.2.085.386.162l.12.042c.135.046.266.089.405.127l.085.023c.17.042.34.077.513.1h.019a4.2,4.2,0,0,0,.494.05h.112a4.242,4.242,0,0,0,.444,0h.1a4.576,4.576,0,0,0,.552-.066,6.093,6.093,0,0,0,2.432-.873,2.124,2.124,0,0,0,.494-.459,1.82,1.82,0,0,0-.077-2.12h0c-.3-.718-2.255-1.224-2.255-1.224s-6.178-2.579-6.178-4.633-1.544-12.711-17.487-15.147c0,0-10.371-.583-13.286,4.969l-.062.649c-.857.537-1.568,1.614-2.413,1.931a3.943,3.943,0,0,0-1.046.386v-.073h0a1,1,0,0,0-.236.305,3.088,3.088,0,0,0-.32,1.158,4.363,4.363,0,0,1-.506,1.4,3.115,3.115,0,0,1-.232.355h0l-.066.1a2.819,2.819,0,0,0,1.313-.212,6.538,6.538,0,0,1-.386,1.544,1.282,1.282,0,0,0,1.189-.71v-.031l.05-.069a3.257,3.257,0,0,0,.239-.56l-.042.046c.077-.251.147-.506.232-.753a1.182,1.182,0,0,1,.189-.386.934.934,0,0,1,.8-.266L343.6,164.3h.07a4.568,4.568,0,0,1-.34.7c-.548.888-1.544,1.494-1.911,2.467a3.63,3.63,0,0,0-.178,1.46c0,.29.035.583.058.873v-.023a3.256,3.256,0,0,1-.348,2.127c-.286.425-.745.745-.9,1.228a1.2,1.2,0,0,0-.058.417,4.682,4.682,0,0,0,.263,1.239.054.054,0,0,0,0-.023,1.884,1.884,0,0,1,.066.911c-.174.772-1.112,1.417-1.066,2.154a.83.83,0,0,0,.042.286,1.564,1.564,0,0,0,.873.772,3.4,3.4,0,0,0,1.961.432,2.579,2.579,0,0,0,.734-.251c-.27.622-.548,1.236-.83,1.819-.042.093-.089.185-.135.278,0,0-2.386-1.595-3.741,1.656a7.212,7.212,0,0,0-.838,2.178,5.181,5.181,0,0,1-.286.9,5.765,5.765,0,0,1-2.579,2.317c-2.765,1.266-13.931,15.193-14.128,18.8a21.04,21.04,0,0,1-.71,4.162,24.769,24.769,0,0,0-.664,9.842,18.829,18.829,0,0,0,.683,3.139,70.328,70.328,0,0,1,1.977,10.325l1.282,11.668a33.207,33.207,0,0,0,.208,4.823c-1.309,1.494-6.564,7.722-4.556,9.417,1.544,1.336,4.247,1.116,5.765.842-1.278,3.162-3.29,8.66-3.556,12.437-.386,5.587.66,12.989,2.317,15.831s7.178,10.132,7.178,10.132-.259,10,1.714,13.634,2.768,11.17,2.768,11.17,1.842,6.363.919,8.7,1.71,4.286-1.054,5.842-6.3,36.627-6.3,36.627-1.425,22.985,0,24.155a1.446,1.446,0,0,0,.243.143v7.722s-.988,1.622,3.031,1.95c2.753.22,10.556.718,15.186,1.008l3.587.224s8.494,1.691,12.247,0,10.406-1.653,9.417-6.12a12.708,12.708,0,0,0-.525-1.788c-1.085-2.772-2.927-3.089-6.321-3.861-.2-.042-.386-.081-.56-.112-3.575-.622-4.749,1.043-6.753-1.124-1.741-1.873-7.286-3.969-9.174-4.633.046-.139.1-.274.151-.417a2.827,2.827,0,0,1-1.432-.7l5.116.324,3.046.189s7.22,1.44,10.425,0,8.842-1.4,8-5.2a10.889,10.889,0,0,0-.444-1.521c-.923-2.355-2.49-2.614-5.375-3.267-.166-.035-.32-.07-.475-.1-3.039-.529-4.035.884-5.738-.954-1.46-1.568-6.066-3.324-7.722-3.923,0-.857-1.158-2.077-1.888-3.3-.857-1.429.726-6.429.726-6.429l.9-20.746a4.008,4.008,0,0,1,1.081-.309s4.085-3.9,3.162-8.054a26.692,26.692,0,0,1-.293-3.8,19.5,19.5,0,0,0,3.718-4.224c.857-1.849,0-10.811,0-10.811V285.672l6.834.691,6.2.637,1.888.193,6.2.625,14.251,1.44,12.842-2.432,5.556-1.05,11.425-2.162V255.659ZM344.6,161.074l-.8-.085C344.063,161,344.341,161.05,344.6,161.074Z" transform="translate(-232.043 -114.032)" fill="url(#linear-gradient)"/>
      <path id="Path_1088" data-name="Path 1088" d="M510.947,441.539c-3.861,5.525-17.742,2.6-17.742,2.6l-10.757-10.066L481,432.708l2.429-5.158s.772.212,2.1.591C492.479,430.16,514.206,436.894,510.947,441.539Z" transform="translate(-332.052 -283.714)" fill="#efb7b9"/>
      <path id="Path_1089" data-name="Path 1089" d="M485.518,428.141a22.65,22.65,0,0,1-3.07,5.931L481,432.708l2.429-5.158S484.209,427.762,485.518,428.141Z" transform="translate(-332.052 -283.714)" opacity="0.1"/>
      <path id="Path_1090" data-name="Path 1090" d="M382.131,278.162s-9.915,4.4-9.429,15.2a178.052,178.052,0,0,0,2.27,20.757s-2.027,16.251,6.413,20.441,16.251,7.633,16.251,7.633,13.205,1.421,14.846,2.008,6.769-8.386,5.823-9.784-13.066-4.328-14.61-6.66-5.116-3.772-5.116-3.772-3.687-2.232-3.938-4.247.722-3.517.969-4.4.873-9.421.873-9.421S400.645,275.525,382.131,278.162Z" transform="translate(-265.559 -191.906)" fill="#dce6f2"/>
      <path id="Path_1091" data-name="Path 1091" d="M394.423,370.39s-13.6,2.278-12.286,7.039A28.838,28.838,0,0,1,394.423,370.39Z" transform="translate(-271.306 -248.624)" opacity="0.1"/>
      <path id="Path_1092" data-name="Path 1092" d="M404.5,375.38s-7.479,6.1-6.016,6.417S404.5,375.38,404.5,375.38Z" transform="translate(-281.283 -251.687)" opacity="0.1"/>
      <path id="Path_1093" data-name="Path 1093" d="M421.816,380.89s-2,4.1-.772,3.826S421.816,380.89,421.816,380.89Z" transform="translate(-295 -255.07)" opacity="0.1"/>
      <path id="Path_1094" data-name="Path 1094" d="M420.319,337.458l-.826-.236a2.361,2.361,0,0,0,.108-1.687c-.946-1.4-13.058-4.324-14.6-6.66s-5.116-3.772-5.116-3.772-3.687-2.232-3.938-4.247.722-3.517.969-4.4.873-9.425.873-9.425,4.151-30.383-14.363-27.746c0,0-9.915,4.4-9.433,15.2a177.559,177.559,0,0,0,2.274,20.757s-2.027,16.251,6.413,20.441,16.251,7.633,16.251,7.633,13.2,1.417,14.846,2.008c.622.224,1.745-.931,2.846-2.517l.625.583,10.757,10.062s13.881,2.931,17.742-2.595C449.011,346.207,427.288,339.473,420.319,337.458Z" transform="translate(-266.351 -192.594)" opacity="0.1"/>
      <path id="Path_1095" data-name="Path 1095" d="M378.674,169.909a3.282,3.282,0,0,0-1.07.413c-.386.32-.386.869-.483,1.348a4.433,4.433,0,0,1-.772,1.846,2.776,2.776,0,0,0,1.286-.212,6.618,6.618,0,0,1-.386,1.544,1.251,1.251,0,0,0,1.158-.707,7.433,7.433,0,0,0,.483-1.355,1.115,1.115,0,0,1,.185-.386c.355-.421,1.015-.232,1.564-.178a2.568,2.568,0,0,0,2.348-1.127c.583-.884.618-3.147-.772-3.386C380.763,167.469,379.86,169.469,378.674,169.909Z" transform="translate(-267.809 -124.188)" fill="#965d7b"/>
      <g id="Group_1348" data-name="Group 1348" transform="translate(108.599 46.034)" opacity="0.1">
        <path id="Path_1096" data-name="Path 1096" d="M378.53,174.825c.035-.189.058-.386.1-.575h0a2.265,2.265,0,0,0-.483,1.348,4.247,4.247,0,0,1-.228.815A4.425,4.425,0,0,0,378.53,174.825Z" transform="translate(-377.372 -174.25)"/>
        <path id="Path_1097" data-name="Path 1097" d="M377.782,181.544a6.42,6.42,0,0,0,.386-1.544,2.765,2.765,0,0,1-1.224.212,4.47,4.47,0,0,1-.444.772,2.749,2.749,0,0,0,1.282-.208,6.419,6.419,0,0,1-.386,1.544,1.255,1.255,0,0,0,1.158-.707,2.881,2.881,0,0,0,.232-.552A1.158,1.158,0,0,1,377.782,181.544Z" transform="translate(-376.5 -177.78)"/>
        <path id="Path_1098" data-name="Path 1098" d="M385.666,175.7c-.548-.054-1.212-.243-1.568.178a1.193,1.193,0,0,0-.185.386c-.035.1-.066.2-.093.309.367-.29.961-.135,1.459-.085a2.579,2.579,0,0,0,2.348-1.127,2.139,2.139,0,0,0,.259-.606,2.571,2.571,0,0,1-2.22.946Z" transform="translate(-380.994 -174.557)"/>
      </g>
      <path id="Path_1099" data-name="Path 1099" d="M314.066,201l5.888,7.081-.768,7.147-7.116-11.139Z" transform="translate(-191.579 -123.389)" fill="#dce6f2"/>
      <path id="Path_1100" data-name="Path 1100" d="M319.951,208.081l-.722,6.722-.046.425-6.421-10.054-.691-1.085.2-.313L314.062,201l.4.479Z" transform="translate(-191.579 -123.389)" opacity="0.1"/>
      <path id="Path_1101" data-name="Path 1101" d="M396.85,214.656c-1.992.571-3.9,2.533-5.552,4.915a41.946,41.946,0,0,0-3,5.151c-.544,1.089-1.023,2.135-1.421,3.046l-.278.649c-.672,1.587-1.046,2.649-1.046,2.649s-15.251-11.468-12.838-12.24c.811-.259,1.876-2,2.931-4.185l.131-.278c.668-1.405,1.324-2.973,1.907-4.448,1.193-3.031,2.077-5.664,2.077-5.664S402.932,212.918,396.85,214.656Z" transform="translate(-265.42 -146.632)" fill="#efb7b9"/>
      <path id="Path_1102" data-name="Path 1102" d="M459.26,202.58s3.521,6.371,8.251,5.5,2.784-3.421,2.784-3.421Z" transform="translate(-318.706 -145.607)" fill="#444053"/>
      <path id="Path_1103" data-name="Path 1103" d="M396.494,749.825c-3.12,1.425-10.174,0-10.174,0l-2.973-.185c-3.861-.247-10.325-.664-12.61-.849-3.336-.274-2.517-1.641-2.517-1.641v-8.259l16.186-4.1s6.4,2.189,8.151,4.1c1.664,1.822,2.637.421,5.606.946.147.027.3.058.463.1,2.819.645,4.348.9,5.251,3.236a10.847,10.847,0,0,1,.436,1.506C405.147,748.435,399.61,748.408,396.494,749.825Z" transform="translate(-262.763 -472.325)" fill="#a36468"/>
      <path id="Path_1104" data-name="Path 1104" d="M403.876,751.192a12.1,12.1,0,0,1-1.822.934c-2.124.969-4.143,2.151-6.29,3.066a14.711,14.711,0,0,1-6.784,1.394,10.117,10.117,0,0,0-3.622-.039,8.364,8.364,0,0,0-2.012,1.116c-3.861-.247-10.325-.664-12.61-.849-3.336-.274-2.517-1.641-2.517-1.641v-.965c.12,0,.255-.035.409-.046a7.291,7.291,0,0,1,2.355.351c1.676.456,3.344.9,5.019,1.351a3.966,3.966,0,0,1,1.931-2.463,6.154,6.154,0,0,1,3.112-.714c2.6.035,5.058,1.266,7.653,1.39a4.217,4.217,0,0,0,2.12-.355c.355-.178.668-.436,1.015-.633a7.411,7.411,0,0,1,1.749-.591,38.52,38.52,0,0,0,5-1.614c.463-.181,1-.51.942-1-.081-.656-1.112-.734-1.382-1.336a.772.772,0,0,1,.031-.683c.147.027.3.058.463.1C401.444,748.6,402.973,748.856,403.876,751.192Z" transform="translate(-262.763 -480.348)" opacity="0.1"/>
      <path id="Path_1105" data-name="Path 1105" d="M380,792.4c-3.668,1.676-11.969,0-11.969,0l-3.494-.2c-4.525-.29-12.147-.772-14.838-1-3.927-.324-2.961-1.931-2.961-1.931v-9.734L365.78,774.7s7.529,2.575,9.591,4.826c1.958,2.143,3.089.494,6.6,1.112.174.031.355.069.544.112,3.317.772,5.116,1.062,6.178,3.811a12.389,12.389,0,0,1,.514,1.772C390.163,790.758,383.665,790.724,380,792.4Z" transform="translate(-249.563 -496.825)" fill="#a36468"/>
      <path id="Path_1106" data-name="Path 1106" d="M388.684,794.034a14.372,14.372,0,0,1-2.143,1.1c-2.5,1.139-4.877,2.529-7.4,3.606a17.351,17.351,0,0,1-7.985,1.641c-1.429-.1-2.892-.463-4.247-.046a9.846,9.846,0,0,0-2.375,1.328c-4.525-.29-12.147-.772-14.838-1-3.927-.324-2.961-1.931-2.961-1.931V797.6a4.817,4.817,0,0,1,.483-.054,8.472,8.472,0,0,1,2.772.413l5.9,1.591a4.672,4.672,0,0,1,2.29-2.9,7.2,7.2,0,0,1,3.664-.842c3.058.042,5.95,1.49,9,1.637a4.984,4.984,0,0,0,2.487-.413c.421-.212.772-.517,1.2-.745a8.4,8.4,0,0,1,2.058-.7,46.212,46.212,0,0,0,5.853-1.9c.544-.216,1.182-.6,1.108-1.182-.1-.772-1.309-.865-1.629-1.575a.93.93,0,0,1,.039-.8c.174.031.355.069.544.112C385.823,790.983,387.622,791.284,388.684,794.034Z" transform="translate(-249.563 -506.297)" opacity="0.1"/>
      <path id="Path_1107" data-name="Path 1107" d="M391.433,647.54,390.4,671.8s-1.544,4.954-.707,6.371,2.251,2.83,1.737,3.668-6.691,9.9-8.687,6.421-3.965-18.533-3.965-18.533l1.842-18.6Z" transform="translate(-269.301 -418.763)" fill="#444053"/>
      <path id="Path_1108" data-name="Path 1108" d="M413.922,491l2.865,3.83v33.314s.838,8.881,0,10.715-5.085,5.5-5.085,5.5l-3.572-18.34.772-19.4Z" transform="translate(-287.318 -322.665)" fill="#444053"/>
      <path id="Path_1109" data-name="Path 1109" d="M391.433,647.54,390.4,671.8s-1.544,4.954-.707,6.371,2.251,2.83,1.737,3.668-6.691,9.9-8.687,6.421-3.965-18.533-3.965-18.533l1.842-18.6Z" transform="translate(-269.301 -418.763)" opacity="0.1"/>
      <path id="Path_1110" data-name="Path 1110" d="M413.922,491l2.865,3.83v33.314s.838,8.881,0,10.715-5.085,5.5-5.085,5.5l-3.572-18.34.772-19.4Z" transform="translate(-287.318 -322.665)" opacity="0.1"/>
      <path id="Path_1111" data-name="Path 1111" d="M366.982,439.467v18.02l-3.216,14.027s-1.031,33.85-.131,37.966-3.089,7.981-3.089,7.981-2.317.259-2.317,2.058-3.861,6.95-3.861,6.95l.127,10.039s1.676,18.792-.9,22.395.9,4.12.9,4.12c-3.216,10.552-18.661,8.108-20.055,6.95s0-23.939,0-23.939,3.452-34.75,6.155-36.294.131-3.475,1.031-5.792-.9-8.622-.9-8.622-.772-7.467-2.7-11.07-1.676-13.514-1.676-13.514-5.406-7.209-7.012-10.039-2.641-10.166-2.255-15.7c.263-3.741,2.228-9.189,3.475-12.325.6-1.5,1.031-2.475,1.031-2.475l.367.1,21.089,5.521Z" transform="translate(-237.514 -285.34)" fill="#444053"/>
      <path id="Path_1112" data-name="Path 1112" d="M405.157,214.613c-1.992.571-3.9,2.533-5.552,4.915h-.432A13.792,13.792,0,0,1,387.2,212.6a13.584,13.584,0,0,1-1.212-2.761c1.193-3.031,2.077-5.664,2.077-5.664S411.238,212.875,405.157,214.613Z" transform="translate(-273.727 -146.589)" opacity="0.1"/>
      <path id="Path_1113" data-name="Path 1113" d="M411.987,184.237a13.8,13.8,0,1,1-25.823-6.765,13.49,13.49,0,0,1,1.46-2.108,13.968,13.968,0,0,1,3.174-2.788,13.8,13.8,0,0,1,21.171,10.649C411.975,183.565,411.987,183.9,411.987,184.237Z" transform="translate(-272.738 -125.866)" fill="#efb7b9"/>
      <path id="Path_1114" data-name="Path 1114" d="M393.07,254.124l-.046.425L386.6,244.51c-.672,1.587-1.046,2.649-1.046,2.649s-15.251-11.483-12.838-12.255c.811-.259,1.876-2,2.931-4.185l.131-.278c1.12,3.336,7.626,10,10.332,12.676.313.309.571.564.772.749l.413.386.216.216C388.5,245.483,392.653,249.962,393.07,254.124Z" transform="translate(-265.42 -162.71)" opacity="0.1"/>
      <path id="Path_1115" data-name="Path 1115" d="M365.964,288.009l-.7,22.615-.124,4.027s-8.325-.772-16.093-1.622c-6.255-.683-12.151-1.421-13.058-1.853a24.579,24.579,0,0,0-5.6-1.232c-1.514-.2-2.7-.313-2.7-.313s-.444.131-1.127.255c-1.49.27-4.108.49-5.633-.834-1.95-1.7,3.174-7.854,4.452-9.332l.282-.32-.483-4.46-1.255-11.564a70.552,70.552,0,0,0-1.931-10.232,18.873,18.873,0,0,1-.668-3.108,24.9,24.9,0,0,1,.649-9.753,21.268,21.268,0,0,0,.7-4.128c.193-3.572,11.1-17.375,13.8-18.63a5.73,5.73,0,0,0,2.765-2.757,5.268,5.268,0,0,0,.421-1.2c1.158-5.019,4.089-3.027,4.089-3.027.707,3.927,11.645,14.321,11.645,14.321l.216.216c1.085,1.112,5.919,6.332,5.575,10.788a13.078,13.078,0,0,0,.73,4.88,82.531,82.531,0,0,1,3.8,21.622Z" transform="translate(-233.515 -162.532)" fill="#dce6f2"/>
      <path id="Path_1116" data-name="Path 1116" d="M390.068,310.45s-2.7,6.564-4.73,7.626S391.034,320.315,390.068,310.45Z" transform="translate(-273.117 -211.827)" opacity="0.1"/>
      <path id="Path_1117" data-name="Path 1117" d="M393.558,342.2s-6.178.772-6.178,1.931S393.558,342.2,393.558,342.2Z" transform="translate(-274.58 -231.318)" opacity="0.1"/>
      <path id="Path_1118" data-name="Path 1118" d="M401.388,361.7s-8.977,19.113-11.487,19.692S401.388,361.7,401.388,361.7Z" transform="translate(-275.943 -243.289)" opacity="0.1"/>
      <path id="Path_1119" data-name="Path 1119" d="M384.387,247.027l-7.425,3.228L368,236.718a5.266,5.266,0,0,0,.421-1.2c1.158-5.019,4.089-3.027,4.089-3.027.707,3.927,11.645,14.321,11.645,14.321Z" transform="translate(-262.683 -163.729)" opacity="0.1"/>
      <path id="Path_1120" data-name="Path 1120" d="M385.387,245.027l-7.425,3.228L369,234.718a5.267,5.267,0,0,0,.421-1.2c1.158-5.019,4.089-3.027,4.089-3.027.707,3.927,11.645,14.321,11.645,14.321Z" transform="translate(-263.297 -162.501)" fill="#dce6f2"/>
      <path id="Path_1121" data-name="Path 1121" d="M371.517,352.517s-8.325-.772-16.093-1.622l13.939,3.649v4.247c-.61.552-1.139.838-1.483.691-1.606-.676-14.715-2.8-14.715-2.8s-7.614-3.861-15.831-8.494a6.344,6.344,0,0,1-.579-.363,9.128,9.128,0,0,1-2.433-2.436,17.291,17.291,0,0,1-2.579-7.788,33.68,33.68,0,0,1-.2-4.78,39.191,39.191,0,0,1,.494-5.4,177.63,177.63,0,0,1-1.158-20.85c.1-10.811,10.232-14.672,10.232-14.672,18.63-1.641,12.854,28.476,12.854,28.476s-1.077,8.494-1.371,9.363-1.348,2.317-1.2,4.344,3.7,4.452,3.7,4.452,3.475,1.629,4.907,4.043c1.043,1.78,7.815,4.193,11.641,5.915Z" transform="translate(-239.894 -200.398)" opacity="0.1"/>
      <path id="Path_1122" data-name="Path 1122" d="M410.557,172.809a4.37,4.37,0,0,1-.386,1.846,11.406,11.406,0,0,1-.687,1.375,6.332,6.332,0,0,1-1.691,2.1A8.651,8.651,0,0,1,404.7,179.2a4.47,4.47,0,0,0-2.792,1.583,5.536,5.536,0,0,0-.653,1.892,4.07,4.07,0,0,1-.772,1.83,1.517,1.517,0,0,1-1.807.432,1.826,1.826,0,0,1-.7-.9,12.9,12.9,0,0,1-.73-3.162,6.728,6.728,0,0,0-1.085-3.031,2.714,2.714,0,0,0-2.849-1.093,2.745,2.745,0,0,0-1.544,1.5,8.588,8.588,0,0,0-.583,2.131q-.718,3.931-1.7,7.815a.718.718,0,0,1-.127.293.556.556,0,0,1-.386.162c-.865.116-1.7-.49-2.568-.425a1.477,1.477,0,0,0-.266.042,13.8,13.8,0,0,1,1.394-15.753l.069-.019a4.162,4.162,0,0,0,1.544-.973,16.3,16.3,0,0,0,1.544-1.788l.309-.386a17.61,17.61,0,0,1,3.012-2.861,3.089,3.089,0,0,1,1.027-.556,3.042,3.042,0,0,1,.973-.031,24.545,24.545,0,0,0,4.019.151,25.793,25.793,0,0,1,2.822-.286c2.444.07,4.529,1.8,6.074,3.687A5.711,5.711,0,0,1,410.557,172.809Z" transform="translate(-272.695 -123.01)" opacity="0.1"/>
      <path id="Path_1123" data-name="Path 1123" d="M378,174.387c-.537.88-1.506,1.479-1.869,2.444-.533,1.4.367,3.147-.459,4.4-.274.421-.726.734-.88,1.216-.263.815.456,1.683.27,2.521s-1.29,1.544-1,2.363a1.545,1.545,0,0,0,.849.772,3.321,3.321,0,0,0,1.931.429c1.054-.174,1.838-1.209,2.907-1.286.869-.062,1.7.541,2.564.429a.579.579,0,0,0,.386-.166.668.668,0,0,0,.127-.293q.973-3.88,1.7-7.815a8.417,8.417,0,0,1,.579-2.131,2.768,2.768,0,0,1,1.544-1.5,2.723,2.723,0,0,1,2.849,1.093,6.687,6.687,0,0,1,1.089,3.031,13.073,13.073,0,0,0,.726,3.162,1.846,1.846,0,0,0,.7.9,1.512,1.512,0,0,0,1.8-.432,4.027,4.027,0,0,0,.772-1.834,5.515,5.515,0,0,1,.653-1.888,4.48,4.48,0,0,1,2.792-1.583,8.736,8.736,0,0,0,3.089-1.077,6.355,6.355,0,0,0,1.691-2.1,6.172,6.172,0,0,0,1.058-3.224,5.919,5.919,0,0,0-1.583-3.34c-1.544-1.892-3.633-3.618-6.077-3.684a24.018,24.018,0,0,0-2.823.286,24.158,24.158,0,0,1-4.019-.154,3.158,3.158,0,0,0-.973.035,2.912,2.912,0,0,0-1.023.556,17.618,17.618,0,0,0-3.016,2.857,22.134,22.134,0,0,1-1.861,2.162,4.19,4.19,0,0,1-1.544.977c-.386.108-.772.031-1.139.151C378.676,172.028,378.525,173.515,378,174.387Z" transform="translate(-266.374 -122.414)" fill="#965d7b"/>
      <path id="Path_1124" data-name="Path 1124" d="M467.511,208.078c-3.089.568-5.649-1.931-7.066-3.753a15.139,15.139,0,0,1-1.185-1.745l10.6,2,.429.081S472.241,207.213,467.511,208.078Z" transform="translate(-318.706 -145.607)" opacity="0.1"/>
      <g id="Group_1349" data-name="Group 1349" transform="translate(107.62 49.027)" opacity="0.1">
        <path id="Path_1125" data-name="Path 1125" d="M376.2,211.813a3.216,3.216,0,0,0-.224-1.483c0,.039-.035.077-.046.116a2.874,2.874,0,0,0,.2,1.591A1.157,1.157,0,0,0,376.2,211.813Z" transform="translate(-375.133 -199.391)"/>
        <path id="Path_1126" data-name="Path 1126" d="M379.062,197.8a8.584,8.584,0,0,0,.031,1.6A8.6,8.6,0,0,0,379.062,197.8Z" transform="translate(-377.079 -191.699)"/>
        <path id="Path_1127" data-name="Path 1127" d="M402.762,184.49a6.332,6.332,0,0,1-1.691,2.1,8.625,8.625,0,0,1-3.089,1.073,4.46,4.46,0,0,0-2.792,1.583,5.563,5.563,0,0,0-.653,1.892,4.043,4.043,0,0,1-.772,1.834,1.507,1.507,0,0,1-1.8.432,1.846,1.846,0,0,1-.7-.9,12.855,12.855,0,0,1-.726-3.162,6.672,6.672,0,0,0-1.089-3.031,2.714,2.714,0,0,0-2.85-1.093,2.757,2.757,0,0,0-1.544,1.5,8.417,8.417,0,0,0-.579,2.131q-.722,3.935-1.7,7.815a.668.668,0,0,1-.127.293.579.579,0,0,1-.386.166c-.865.112-1.7-.49-2.564-.429-1.07.077-1.853,1.112-2.907,1.282a3.263,3.263,0,0,1-1.931-.429,2.066,2.066,0,0,1-.707-.5,1.043,1.043,0,0,0-.143.9,1.506,1.506,0,0,0,.849.772,3.263,3.263,0,0,0,1.931.429c1.054-.17,1.838-1.2,2.907-1.282.869-.062,1.7.541,2.564.429a.579.579,0,0,0,.386-.166.668.668,0,0,0,.127-.293q.973-3.861,1.7-7.815a8.418,8.418,0,0,1,.579-2.131,2.757,2.757,0,0,1,1.544-1.5,2.717,2.717,0,0,1,2.849,1.093,6.687,6.687,0,0,1,1.089,3.031,13.076,13.076,0,0,0,.726,3.162,1.846,1.846,0,0,0,.7.9,1.512,1.512,0,0,0,1.8-.432,4.043,4.043,0,0,0,.772-1.834,5.563,5.563,0,0,1,.653-1.892,4.5,4.5,0,0,1,2.792-1.583,8.807,8.807,0,0,0,3.089-1.073,6.332,6.332,0,0,0,1.691-2.1,6.148,6.148,0,0,0,1.058-3.22,4.151,4.151,0,0,0-.046-.44A7.587,7.587,0,0,1,402.762,184.49Z" transform="translate(-373.964 -182)"/>
      </g>
      <path id="Path_1128" data-name="Path 1128" d="M413.048,177.5a13.641,13.641,0,0,1,1.718,5.734c-3.44-1.931-6.676-4.05-8.309-4.788-2.846-1.286-13.487-1.093-17.487-.973a13.484,13.484,0,0,1,1.46-2.108,13.969,13.969,0,0,1,3.185-2.788,13.811,13.811,0,0,1,19.452,4.915Z" transform="translate(-275.556 -125.871)" opacity="0.1"/>
      <path id="Path_1129" data-name="Path 1129" d="M468.477,206.441c-1.857.571-4.888-.533-8.031-2.116a15.139,15.139,0,0,1-1.185-1.745l10.6,2C470.565,205.059,470.743,205.742,468.477,206.441Z" transform="translate(-318.706 -145.607)" opacity="0.1"/>
      <path id="Path_1130" data-name="Path 1130" d="M399.411,154.052s-10.135-.579-12.985,4.923l-.459,4.877-.772-.085-.154,3.317s15.491-.676,19.016.915,14.479,9.606,18.869,8.255-.386-2.606-.386-2.606-6.043-2.56-6.043-4.568S415,156.465,399.411,154.052Z" transform="translate(-273.143 -115.806)" fill="#444053"/>
      <path id="Path_1131" data-name="Path 1131" d="M371.63,622.28s6.467,6.274,9.267,5.792C380.9,628.072,372.981,627.4,371.63,622.28Z" transform="translate(-264.911 -403.256)" opacity="0.1"/>
      <path id="Path_1132" data-name="Path 1132" d="M368.13,629.81s.579,3.228,2.124,2.911S368.13,629.81,368.13,629.81Z" transform="translate(-262.763 -407.879)" opacity="0.1"/>
      <path id="Path_1133" data-name="Path 1133" d="M381.964,769.53s-9.182,7.143-7.633,7.336S381.964,769.53,381.964,769.53Z" transform="translate(-266.461 -493.651)" opacity="0.1"/>
      <path id="Path_1134" data-name="Path 1134" d="M330.96,339.638l29.731-4.838v28.148l-28.248-1.479Z" transform="translate(-203.175 -205.528)" fill="#6c63ff"/>
      <path id="Path_1135" data-name="Path 1135" d="M330.96,339.638l29.731-4.838v28.148l-28.248-1.479Z" transform="translate(-203.175 -205.528)" opacity="0.05"/>
      <path id="Path_1136" data-name="Path 1136" d="M407.96,334.8l35.654,2.668-1.973,24.495-33.681.985Z" transform="translate(-250.444 -205.528)" fill="#6c63ff"/>
      <path id="Path_1137" data-name="Path 1137" d="M407.96,334.8l35.654,2.668-1.973,24.495-33.681.985Z" transform="translate(-250.444 -205.528)" opacity="0.1"/>
      <path id="Path_1138" data-name="Path 1138" d="M418.922,312.55l-10.962,8.591,35.654,2.668,5.826-8.792Z" transform="translate(-250.444 -191.869)" fill="#6c63ff"/>
      <path id="Path_1139" data-name="Path 1139" d="M303.08,317.849l26.765-3.259,13.73,7.8-29.731,4.838Z" transform="translate(-186.06 -193.121)" fill="#6c63ff"/>
      <path id="Path_1140" data-name="Path 1140" d="M367.208,349.8v38.484l-13.927-1.429-6.058-.618-1.846-.193-6.054-.622-8.363-.857V347.33l29.727,2.023Z" transform="translate(-203.175 -213.22)" fill="#6c63ff"/>
      <path id="Path_1141" data-name="Path 1141" d="M453.976,341.71v37.53l-11.162,2.143-5.429,1.042-12.545,2.409V346.351Z" transform="translate(-260.807 -209.77)" fill="#6c63ff"/>
      <path id="Path_1142" data-name="Path 1142" d="M453.976,341.71v37.53l-11.162,2.143-5.429,1.042-12.545,2.409V346.351Z" transform="translate(-260.807 -209.77)" opacity="0.05"/>
      <path id="Path_1143" data-name="Path 1143" d="M303.08,355.431l10.765-8.1,36.248,2.471-5.336,8.989Z" transform="translate(-186.06 -213.22)" fill="#6c63ff"/>
      <path id="Path_1144" data-name="Path 1144" d="M303.08,355.431l10.765-8.1,36.248,2.471-5.336,8.989Z" transform="translate(-186.06 -213.22)" fill="#fff" opacity="0.1"/>
      <path id="Path_1145" data-name="Path 1145" d="M453.976,341.71l-29.136,4.641,9.483,8.494,31.209-5.236Z" transform="translate(-260.807 -209.77)" fill="#6c63ff"/>
      <path id="Path_1146" data-name="Path 1146" d="M453.976,341.71l-29.136,4.641,9.483,8.494,31.209-5.236Z" transform="translate(-260.807 -209.77)" fill="#fff" opacity="0.1"/>
      <path id="Path_1147" data-name="Path 1147" d="M462.759,431.329l-5.429,1.043v-8.02l5.085-1.282Z" transform="translate(-280.752 -259.716)" fill="#fff" opacity="0.1"/>
      <path id="Path_1148" data-name="Path 1148" d="M379.138,435.96v5.305l-6.058-.618V435.96Z" transform="translate(-229.032 -267.629)" fill="#fff" opacity="0.1"/>
      <path id="Path_1149" data-name="Path 1149" d="M358.674,440.29v2.822l-6.054-.622v-2.2Z" transform="translate(-216.472 -270.287)" fill="#fff" opacity="0.1"/>
      <path id="Path_1150" data-name="Path 1150" d="M463.846,459.144c-4.151,5.309-17.858,1.641-17.858,1.641L435.8,450.16l-1.382-1.44,2.7-5.019s.772.255,2.062.7C446.011,446.789,467.34,454.677,463.846,459.144Z" transform="translate(-303.457 -293.628)" opacity="0.1"/>
      <path id="Path_1151" data-name="Path 1151" d="M462.846,457.144c-4.151,5.309-17.858,1.641-17.858,1.641L434.8,448.16l-1.382-1.44,2.7-5.019s.772.255,2.062.7C445.011,444.789,466.34,452.677,462.846,457.144Z" transform="translate(-302.843 -292.4)" fill="#efb7b9"/>
      <path id="Path_1152" data-name="Path 1152" d="M438.145,442.4a22.826,22.826,0,0,1-3.382,5.757l-1.382-1.44,2.7-5.019S436.859,441.955,438.145,442.4Z" transform="translate(-302.819 -292.4)" opacity="0.1"/>
      <path id="Path_1153" data-name="Path 1153" d="M342.11,287.895s-10.135,3.861-10.232,14.672a177.638,177.638,0,0,0,1.158,20.85s-2.9,16.12,5.309,20.753,15.831,8.494,15.831,8.494,13.109,2.124,14.719,2.8,7.2-8.012,6.336-9.46-12.8-5.019-14.22-7.433-4.907-4.039-4.907-4.039-3.56-2.429-3.7-4.456.907-3.475,1.2-4.344,1.375-9.363,1.375-9.363S360.74,286.234,342.11,287.895Z" transform="translate(-240.508 -197.94)" fill="#dce6f2"/>
      <path id="Path_1154" data-name="Path 1154" d="M350.182,380.7s-13.707,1.544-12.645,6.371A28.836,28.836,0,0,1,350.182,380.7Z" transform="translate(-243.946 -254.953)" opacity="0.1"/>
      <path id="Path_1155" data-name="Path 1155" d="M360,385.7s-7.78,5.7-6.352,6.081S360,385.7,360,385.7Z" transform="translate(-253.767 -258.022)" opacity="0.1"/>
      <path id="Path_1156" data-name="Path 1156" d="M377.234,391.7s-2.22,3.992-.965,3.784S377.234,391.7,377.234,391.7Z" transform="translate(-267.523 -261.706)" opacity="0.1"/>
      <path id="Path_1157" data-name="Path 1157" d="M728.176,167.39s-14.672-.884-12.958,9.41a2.511,2.511,0,0,0,1.305,2.645s.027-.772,1.506-.506a6.76,6.76,0,0,0,1.595.077,3.309,3.309,0,0,0,1.954-.807h0s4.128-1.7,5.734-8.452c0,0,1.189-1.475,1.158-1.853l-2.479,1.062a4.442,4.442,0,0,1,.178,3.274s-.077-3.209-.556-3.135c-.1,0-1.286.622-1.286.622s1.456,3.112.355,5.379c0,0,.417-3.838-.811-5.155l-1.745,1.019s1.7,3.216.548,5.842c0,0,.3-4.027-.915-5.595l-1.583,1.232s1.6,3.174.625,5.352c0,0-.127-4.687-.969-5.043a9.55,9.55,0,0,0-1.591,1.722s1.093,2.317.413,3.517c0,0-.417-3.124-.772-3.139a10.4,10.4,0,0,0-1.521,3.475,7.514,7.514,0,0,1,1.185-3.684,4.135,4.135,0,0,0-2.108,1.093s.212-1.463,2.448-1.591a10.563,10.563,0,0,1,1.444-1.668,9.054,9.054,0,0,0-3.572.413s1.185-1.378,3.981-.772l1.544-1.274a13.323,13.323,0,0,0-4.17.042s1.429-1.22,4.591-.332l1.7-1.015a15.253,15.253,0,0,0-3.981-.344s1.568-.846,4.479.069l1.216-.544s-1.83-.359-2.363-.417-.564-.2-.564-.2a6.317,6.317,0,0,1,3.433.386A15.149,15.149,0,0,0,728.176,167.39Z" transform="translate(-475.751 -123.993)" fill="#6c63ff"/>
      <path id="Path_1158" data-name="Path 1158" d="M843.636,300.73s-14.672-.884-12.958,9.41a2.511,2.511,0,0,0,1.305,2.645s.027-.772,1.51-.506a6.76,6.76,0,0,0,1.595.077,3.305,3.305,0,0,0,1.931-.8h0s4.131-1.707,5.738-8.456c0,0,1.185-1.471,1.139-1.849l-2.479,1.058a4.455,4.455,0,0,1,.182,3.274s-.081-3.209-.556-3.135c-.1,0-1.29.622-1.29.622s1.46,3.116.359,5.379c0,0,.417-3.838-.815-5.155l-1.726,1.008s1.7,3.216.548,5.842c0,0,.3-4.027-.915-5.595l-1.579,1.236s1.6,3.17.625,5.348c0,0-.127-4.687-.969-5.043a9.686,9.686,0,0,0-1.595,1.722s1.1,2.317.417,3.517c0,0-.417-3.124-.772-3.139a10.393,10.393,0,0,0-1.521,3.475A7.537,7.537,0,0,1,833,307.977a4.154,4.154,0,0,0-2.112,1.093s.216-1.463,2.452-1.591a9.641,9.641,0,0,1,1.444-1.668,9.053,9.053,0,0,0-3.572.413s1.185-1.378,3.977-.753l1.544-1.274a13.325,13.325,0,0,0-4.17.042s1.429-1.22,4.591-.332l1.7-1.015a15.471,15.471,0,0,0-3.985-.344s1.572-.846,4.483.069l1.216-.544s-1.83-.359-2.367-.417-.564-.2-.564-.2a6.329,6.329,0,0,1,3.436.386A15.579,15.579,0,0,0,843.636,300.73Z" transform="translate(-546.63 -205.848)" fill="#6c63ff" opacity="0.1"/>
      <path id="Path_1159" data-name="Path 1159" d="M617.688,254.016s3.378-14.321-7.062-14.371a2.508,2.508,0,0,0-2.826.834s.745.158.239,1.571a6.874,6.874,0,0,0-.347,1.544,3.317,3.317,0,0,0,.459,2.058h0s.977,4.363,7.336,7.1c0,0,1.251,1.421,1.629,1.436l-.618-2.622a4.436,4.436,0,0,1-3.259-.386s3.178.467,3.182,0c0-.1-.386-1.375-.386-1.375s-3.317.9-5.363-.568c0,0,3.711,1.066,5.22.081l-.695-1.9s-3.475,1.131-5.853-.456c0,0,3.919.981,5.672.054l-.946-1.768s-3.4,1.035-5.379-.3c0,0,4.633.672,5.135-.093a9.594,9.594,0,0,0-1.425-1.865s-2.456.687-3.537-.189c0,0,3.147.12,3.22-.212a10.41,10.41,0,0,0-3.178-2.1,7.568,7.568,0,0,1,3.433,1.8,4.166,4.166,0,0,0-.718-2.266s1.405.463,1.158,2.7a9.619,9.619,0,0,1,1.394,1.707,9.08,9.08,0,0,0,.2-3.591s1.158,1.405.066,4.05l.988,1.757a12.814,12.814,0,0,0,.668-4.116s.961,1.614-.456,4.579l.714,1.849a15.463,15.463,0,0,0,1.016-3.861s.568,1.691-.834,4.406l.332,1.29s.664-1.741.811-2.259.3-.521.3-.521a6.325,6.325,0,0,1-.961,3.321A15.334,15.334,0,0,0,617.688,254.016Z" transform="translate(-409.816 -168.274)" fill="#6c63ff" opacity="0.1"/>
      <path id="Path_1160" data-name="Path 1160" d="M523.849,283.833s-11.784-8.815-16,.734a2.513,2.513,0,0,0-.363,2.927s.44-.622,1.544.409a6.762,6.762,0,0,0,1.29.942,3.313,3.313,0,0,0,2.073.386h0s4.386.846,9.437-3.907c0,0,1.8-.579,1.973-.919l-2.66-.467a4.461,4.461,0,0,1-1.649,2.834s1.7-2.726,1.255-2.923c-.089-.042-1.417-.193-1.417-.193s-.494,3.406-2.656,4.691c0,0,2.459-2.977,2.154-4.753l-2.019-.108s-.344,3.626-2.753,5.185c0,0,2.46-3.2,2.317-5.178l-2,.162s-.405,3.525-2.417,4.807c0,0,2.467-3.985,1.961-4.741a9.707,9.707,0,0,0-2.278.56s-.351,2.525-1.587,3.166c0,0,1.371-2.838,1.093-3.035a10.379,10.379,0,0,0-3.189,2.073,7.541,7.541,0,0,1,3.019-2.425,4.158,4.158,0,0,0-2.363-.247s.981-1.1,2.919.019a9.748,9.748,0,0,1,2.124-.6,9.036,9.036,0,0,0-3.212-1.618s1.753-.5,3.741,1.544l2-.2a13.223,13.223,0,0,0-3.506-2.255s1.865-.236,4.016,2.243l1.977.089a15.413,15.413,0,0,0-3.135-2.479s1.772.154,3.7,2.521l1.317.212s-1.332-1.305-1.749-1.645-.359-.483-.359-.483a6.344,6.344,0,0,1,2.66,2.209A15.612,15.612,0,0,0,523.849,283.833Z" transform="translate(-348.109 -193.21)" fill="#6c63ff" opacity="0.1"/>
      <path id="Path_1161" data-name="Path 1161" d="M625.46,71.72s-11.784-8.819-16,.734a2.513,2.513,0,0,0-.363,2.927s.44-.622,1.544.409a6.869,6.869,0,0,0,1.293.938,3.309,3.309,0,0,0,2.073.386h0s4.386.846,9.437-3.911c0,0,1.8-.575,1.969-.919l-2.66-.459a4.441,4.441,0,0,1-1.649,2.834s1.7-2.726,1.259-2.923c-.089-.042-1.417-.193-1.417-.193s-.51,3.413-2.672,4.691c0,0,2.456-2.977,2.155-4.753l-2.019-.108s-.348,3.626-2.753,5.182c0,0,2.46-3.2,2.317-5.178l-2,.162s-.409,3.529-2.421,4.811c0,0,2.471-3.985,1.965-4.741a9.707,9.707,0,0,0-2.278.56s-.351,2.525-1.587,3.166c0,0,1.371-2.838,1.093-3.039a10.418,10.418,0,0,0-3.189,2.077,7.505,7.505,0,0,1,3.019-2.425,4.131,4.131,0,0,0-2.367-.247s.985-1.1,2.923.019a9.537,9.537,0,0,1,2.124-.6A9.086,9.086,0,0,0,612.05,69.5s1.749-.5,3.738,1.544l2-.2a13.238,13.238,0,0,0-3.506-2.259s1.865-.232,4.019,2.247l1.977.085a15.255,15.255,0,0,0-3.139-2.475s1.776.154,3.707,2.521l1.313.212s-1.336-1.29-1.753-1.622-.359-.479-.359-.479a6.332,6.332,0,0,1,2.66,2.209A16.669,16.669,0,0,0,625.46,71.72Z" transform="translate(-410.487 -62.996)" fill="#6c63ff" opacity="0.1"/>
      <path id="Path_1162" data-name="Path 1162" d="M743.893,91.065s-4.711-13.942-13.6-8.464a2.538,2.538,0,0,0-1.958,2.2s.714-.263,1.031,1.2a6.954,6.954,0,0,0,.529,1.51,3.344,3.344,0,0,0,1.483,1.5h0s3.135,3.185,9.993,2.131c0,0,1.811.548,2.143.359l-1.931-1.9a4.441,4.441,0,0,1-2.965,1.4s2.946-1.282,2.7-1.7c-.05-.081-1.058-.958-1.058-.958s-2.34,2.521-4.85,2.355c0,0,3.711-1.058,4.467-2.7l-1.6-1.232s-2.34,2.788-5.209,2.7c0,0,3.861-1.239,4.838-2.954l-1.737-1s-2.317,2.676-4.718,2.591c0,0,4.294-1.88,4.305-2.792a9.653,9.653,0,0,0-2.193-.83s-1.722,1.88-3.089,1.71c0,0,2.734-1.564,2.618-1.884a10.359,10.359,0,0,0-3.8-.1,7.525,7.525,0,0,1,3.861-.29,4.166,4.166,0,0,0-1.811-1.544s1.436-.351,2.4,1.672a9.722,9.722,0,0,1,2.085.71,9.075,9.075,0,0,0-1.726-3.155s1.726.583,2.2,3.406L738.07,86a13.031,13.031,0,0,0-1.61-3.861s1.672.865,2.035,4.128l1.583,1.193a15.349,15.349,0,0,0-1.182-3.823s1.375,1.135,1.622,4.182l.961.919s-.355-1.83-.5-2.348-.027-.552-.027-.552a6.367,6.367,0,0,1,.938,3.328A15.383,15.383,0,0,0,743.893,91.065Z" transform="translate(-483.891 -71.171)" fill="#6c63ff" opacity="0.1"/>
      <path id="Path_1163" data-name="Path 1163" d="M667.542,108.182s-14.634-1.629-13.425,8.753a2.506,2.506,0,0,0,1.158,2.7s.066-.772,1.544-.425a7.1,7.1,0,0,0,1.591.158,3.32,3.32,0,0,0,1.988-.707h0s4.212-1.494,6.178-8.155c0,0,1.259-1.409,1.232-1.792l-2.529.934a4.306,4.306,0,0,1,0,3.278s.081-3.209-.386-3.158c-.1,0-1.317.556-1.317.556s1.3,3.185.085,5.406c0,0,.61-3.815-.552-5.189l-1.8.927s1.544,3.3.251,5.865c0,0,.5-4.008-.629-5.633l-1.641,1.158s1.436,3.247.351,5.375c0,0,.112-4.687-.71-5.085a10.045,10.045,0,0,0-1.68,1.637s.977,2.355.239,3.533c0,0-.259-3.139-.6-3.17a10.383,10.383,0,0,0-1.7,3.406,7.517,7.517,0,0,1,1.375-3.622,4.154,4.154,0,0,0-2.162.985s.286-1.448,2.525-1.463c0,0,1.216-1.51,1.544-1.591a9.078,9.078,0,0,0-3.591.232s1.255-1.321,4.012-.552l1.625-1.193s-2.938-.595-4.182-.209c0,0,1.49-1.158,4.6-.1l1.749-.931a15.374,15.374,0,0,0-3.961-.544s1.61-.772,4.471.3l1.243-.483s-1.811-.452-2.344-.537-.552-.232-.552-.232a6.351,6.351,0,0,1,3.413.556A15.8,15.8,0,0,0,667.542,108.182Z" transform="translate(-438.283 -87.6)" fill="#6c63ff" opacity="0.1"/>
      <path id="Path_1164" data-name="Path 1164" d="M999.155,402.352s-14.626-1.629-13.417,8.742a2.506,2.506,0,0,0,1.158,2.7s.066-.772,1.544-.429a6.679,6.679,0,0,0,1.591.158,3.294,3.294,0,0,0,1.989-.707h0s4.212-1.494,6.158-8.151c0,0,1.259-1.413,1.232-1.792l-2.529.931a4.317,4.317,0,0,1,0,3.282s.081-3.212-.386-3.158c-.1,0-1.317.552-1.317.552s1.3,3.185.085,5.406c0,0,.61-3.811-.552-5.189l-1.8.931s1.544,3.3.255,5.865c0,0,.5-4.008-.633-5.637l-1.641,1.158s1.436,3.247.351,5.371c0,0,.112-4.687-.711-5.081a10.194,10.194,0,0,0-1.68,1.637s.981,2.355.239,3.533c0,0-.259-3.139-.6-3.17a10.384,10.384,0,0,0-1.7,3.406,7.518,7.518,0,0,1,1.375-3.622,4.12,4.12,0,0,0-2.162.985s.286-1.452,2.525-1.467c0,0,1.22-1.51,1.544-1.587a9.046,9.046,0,0,0-3.591.228s1.255-1.317,4.016-.548l1.622-1.193a12.9,12.9,0,0,0-4.166-.17s1.49-1.158,4.6-.1l1.749-.927a15.374,15.374,0,0,0-3.961-.544s1.61-.772,4.471.3l1.243-.487s-1.811-.452-2.344-.533-.552-.232-.552-.232a6.328,6.328,0,0,1,3.413.552A15.124,15.124,0,0,0,999.155,402.352Z" transform="translate(-641.861 -268.188)" fill="#6c63ff" opacity="0.1"/>
      <path id="Path_1165" data-name="Path 1165" d="M1057.065,437.733s-14.626-1.626-13.417,8.742a2.513,2.513,0,0,0,1.158,2.7s.066-.772,1.545-.425a6.816,6.816,0,0,0,1.587.154,3.336,3.336,0,0,0,1.981-.7h0s4.209-1.494,6.155-8.155c0,0,1.263-1.409,1.232-1.792l-2.529.931a4.317,4.317,0,0,1,0,3.282s.081-3.209-.386-3.158c-.1,0-1.317.552-1.317.552s1.3,3.185.085,5.406c0,0,.61-3.811-.552-5.185l-1.8.927s1.544,3.3.255,5.865c0,0,.5-4.008-.633-5.633l-1.641,1.158s1.436,3.247.355,5.375c0,0,.108-4.691-.714-5.085a10.2,10.2,0,0,0-1.68,1.637s.981,2.355.239,3.533c0,0-.259-3.139-.6-3.17a10.324,10.324,0,0,0-1.7,3.406,7.537,7.537,0,0,1,1.371-3.622,4.155,4.155,0,0,0-2.162.985s.29-1.452,2.529-1.463c0,0,1.216-1.51,1.544-1.591a9.078,9.078,0,0,0-3.591.232s1.255-1.321,4.016-.552l1.622-1.193a12.9,12.9,0,0,0-4.166-.17s1.49-1.158,4.6-.1l1.749-.931a15.374,15.374,0,0,0-3.962-.544s1.61-.772,4.471.3l1.243-.483s-1.811-.452-2.34-.537-.556-.232-.556-.232a6.351,6.351,0,0,1,3.413.556A15.279,15.279,0,0,0,1057.065,437.733Z" transform="translate(-677.411 -289.908)" fill="#6c63ff" opacity="0.1"/>
      <path id="Path_1166" data-name="Path 1166" d="M923.4,133.973s-11.784-8.815-16,.734a2.513,2.513,0,0,0-.363,2.927s.44-.622,1.544.409a6.762,6.762,0,0,0,1.29.942,3.317,3.317,0,0,0,2.073.386h0s4.386.846,9.44-3.907c0,0,1.8-.579,1.969-.919l-2.653-.479a4.461,4.461,0,0,1-1.649,2.834s1.7-2.726,1.255-2.923c-.089-.042-1.413-.193-1.413-.193s-.5,3.406-2.66,4.691c0,0,2.46-2.977,2.154-4.753l-2.019-.108s-.344,3.626-2.753,5.185c0,0,2.463-3.2,2.317-5.178l-2,.162s-.386,3.525-2.417,4.807c0,0,2.471-3.985,1.961-4.741a9.706,9.706,0,0,0-2.278.56s-.348,2.525-1.583,3.166c0,0,1.367-2.838,1.089-3.035a10.378,10.378,0,0,0-3.189,2.073,7.541,7.541,0,0,1,3.019-2.425,4.158,4.158,0,0,0-2.363-.247s.984-1.1,2.923.019a9.707,9.707,0,0,1,2.12-.6,9.036,9.036,0,0,0-3.213-1.618s1.753-.5,3.741,1.544l2-.2a13.156,13.156,0,0,0-3.506-2.255s1.865-.236,4.016,2.243l1.981.089a15.482,15.482,0,0,0-3.139-2.479s1.776.154,3.7,2.521l1.317.212s-1.332-1.305-1.749-1.645-.355-.452-.355-.452a6.348,6.348,0,0,1,2.656,2.209A15.506,15.506,0,0,0,923.4,133.973Z" transform="translate(-593.388 -101.213)" fill="#6c63ff" opacity="0.1"/>
      <path id="Path_1167" data-name="Path 1167" d="M949.265,288.527s-4.062-14.143-13.2-9.066a2.508,2.508,0,0,0-2.058,2.112s.726-.228.977,1.251a6.844,6.844,0,0,0,.463,1.544,3.317,3.317,0,0,0,1.413,1.575h0s2.989,3.321,9.884,2.579c0,0,1.784.626,2.124.456l-1.826-1.985a4.44,4.44,0,0,1-3.023,1.266s3-1.158,2.765-1.572c-.046-.085-1.012-1.008-1.012-1.008s-2.448,2.417-4.95,2.135c0,0,3.757-.888,4.583-2.487l-1.544-1.305s-2.463,2.68-5.325,2.471c0,0,3.892-1.07,4.965-2.734l-1.691-1.077s-2.452,2.568-4.83,2.375c0,0,4.375-1.687,4.429-2.595a9.638,9.638,0,0,0-2.158-.927s-1.8,1.8-3.174,1.568c0,0,2.8-1.44,2.7-1.765a10.428,10.428,0,0,0-3.8-.27,7.533,7.533,0,0,1,3.861-.112,4.143,4.143,0,0,0-1.737-1.622s1.452-.29,2.317,1.776a9.634,9.634,0,0,1,2.05.8,9.031,9.031,0,0,0-1.583-3.228s1.7.656,2.043,3.5l1.722,1.046a12.839,12.839,0,0,0-1.436-3.915s1.629.938,1.849,4.212l1.544,1.263a15.313,15.313,0,0,0-1.008-3.861s1.324,1.2,1.432,4.247l.919.965s-.27-1.846-.386-2.371,0-.6,0-.6a6.328,6.328,0,0,1,.792,3.367A15.324,15.324,0,0,0,949.265,288.527Z" transform="translate(-610.15 -192.128)" fill="#6c63ff" opacity="0.1"/>
      <path id="Path_1168" data-name="Path 1168" d="M712.66,375.527s-7.888-12.425-15.213-4.989a2.5,2.5,0,0,0-1.382,2.606s.637-.425,1.294.927a6.609,6.609,0,0,0,.873,1.336,3.3,3.3,0,0,0,1.8,1.112h0s3.8,2.348,10.213-.309c0,0,1.888.1,2.166-.158l-2.317-1.39a4.439,4.439,0,0,1-2.548,2.066s2.556-1.931,2.212-2.286c-.066-.069-1.255-.68-1.255-.68s-1.672,3-4.151,3.44c0,0,3.355-1.911,3.7-3.68l-1.849-.815s-1.61,3.263-4.413,3.861c0,0,3.436-2.12,4-4.019l-1.931-.556s-1.629,3.155-3.965,3.637c0,0,3.722-2.85,3.518-3.738a9.59,9.59,0,0,0-2.317-.282s-1.224,2.236-2.606,2.4c0,0,2.286-2.17,2.1-2.456a10.4,10.4,0,0,0-3.718.811,7.514,7.514,0,0,1,3.683-1.2,4.142,4.142,0,0,0-2.12-1.07s1.309-.683,2.7,1.054a9.538,9.538,0,0,1,2.2.193,8.888,8.888,0,0,0-2.429-2.653s1.815.154,2.942,2.784l1.95.517a12.909,12.909,0,0,0-2.479-3.351s1.826.44,2.958,3.525l1.822.772a15.392,15.392,0,0,0-2.058-3.429s1.606.772,2.568,3.672l1.158.668s-.772-1.7-1.046-2.162-.166-.575-.166-.575a6.331,6.331,0,0,1,1.7,3.008A15.7,15.7,0,0,0,712.66,375.527Z" transform="translate(-464.057 -247.259)" fill="#6c63ff" opacity="0.1"/>
      <path id="Path_1169" data-name="Path 1169" d="M847.071,210.611s-7.5-12.661-15.058-5.456a2.511,2.511,0,0,0-1.459,2.564s.645-.409,1.263.961a6.673,6.673,0,0,0,.83,1.367,3.278,3.278,0,0,0,1.761,1.158h0s3.726,2.463,10.217,0c0,0,1.884.158,2.17-.093l-2.266-1.46a4.439,4.439,0,0,1-2.61,1.985s2.614-1.865,2.286-2.216c-.069-.073-1.236-.722-1.236-.722s-1.765,2.954-4.247,3.313c0,0,3.413-1.807,3.811-3.56l-1.822-.857s-1.711,3.216-4.533,3.73c0,0,3.5-2.012,4.12-3.892l-1.907-.618s-1.73,3.089-4.077,3.514c0,0,3.807-2.734,3.63-3.626a9.537,9.537,0,0,0-2.317-.355s-1.293,2.2-2.68,2.317c0,0,2.351-2.093,2.174-2.386a10.393,10.393,0,0,0-3.741.7,7.537,7.537,0,0,1,3.718-1.081,4.15,4.15,0,0,0-2.089-1.135s1.332-.645,2.7,1.135a9.781,9.781,0,0,1,2.189.263,9.236,9.236,0,0,0-2.344-2.726s1.807.208,2.853,2.873l1.931.579a12.835,12.835,0,0,0-2.375-3.429s1.815.5,2.85,3.614l1.8.838a15.516,15.516,0,0,0-1.931-3.475s1.579.822,2.456,3.749l1.131.7s-.726-1.718-.981-2.193-.147-.579-.147-.579a6.344,6.344,0,0,1,1.61,3.058A14.947,14.947,0,0,0,847.071,210.611Z" transform="translate(-546.625 -145.827)" fill="#6c63ff"/>
      <path id="Path_1170" data-name="Path 1170" d="M730.667,271.349s.386-14.711-9.834-12.637a2.516,2.516,0,0,0-2.6,1.394s.772,0,.556,1.487a6.782,6.782,0,0,0-.023,1.6,3.3,3.3,0,0,0,.869,1.931h0s1.842,4.07,8.641,5.452c0,0,1.51,1.139,1.888,1.077L729,269.21a4.457,4.457,0,0,1-3.266.29s3.2-.189,3.116-.66c0-.1-.664-1.27-.664-1.27s-3.066,1.564-5.363.537c0,0,3.861.29,5.124-.981l-1.077-1.71s-3.158,1.807-5.823.741c0,0,4.035.162,5.564-1.1l-1.286-1.544s-3.116,1.707-5.324.8c0,0,4.68-.282,5.019-1.135a10.013,10.013,0,0,0-1.776-1.544s-2.263,1.158-3.5.533c0,0,3.089-.517,3.108-.861a10.363,10.363,0,0,0-3.537-1.405,7.518,7.518,0,0,1,3.726,1.066,4.151,4.151,0,0,0-1.158-2.073s1.471.166,1.672,2.394a9.6,9.6,0,0,1,1.714,1.39,9.029,9.029,0,0,0-.533-3.556s1.421,1.139.888,3.95l1.324,1.521a12.926,12.926,0,0,0-.181-4.166s1.266,1.386.487,4.575l1.07,1.664a15.4,15.4,0,0,0,.212-3.992s.9,1.544.077,4.483l.587,1.2s.3-1.842.336-2.378.185-.571.185-.571a6.34,6.34,0,0,1-.266,3.448A14.722,14.722,0,0,0,730.667,271.349Z" transform="translate(-477.685 -179.943)" fill="#6c63ff"/>
      <ellipse id="Ellipse_222" data-name="Ellipse 222" cx="10.398" cy="1.757" rx="10.398" ry="1.757" transform="translate(259.48 274.817)" fill="#6c63ff" opacity="0.1"/>
      <ellipse id="Ellipse_223" data-name="Ellipse 223" cx="10.398" cy="1.757" rx="10.398" ry="1.757" transform="translate(221.575 301.49)" fill="#6c63ff" opacity="0.1"/>
      <ellipse id="Ellipse_224" data-name="Ellipse 224" cx="10.398" cy="1.757" rx="10.398" ry="1.757" transform="translate(25.562 287.825)" fill="#6c63ff" opacity="0.1"/>
      <ellipse id="Ellipse_225" data-name="Ellipse 225" cx="10.398" cy="1.757" rx="10.398" ry="1.757" transform="translate(300.443 299.733)" fill="#6c63ff" opacity="0.1"/>
      <ellipse id="Ellipse_226" data-name="Ellipse 226" cx="15.526" cy="2.626" rx="15.526" ry="2.626" transform="translate(306.142 276.574)" fill="#6c63ff"/>
      <path id="Path_1171" data-name="Path 1171" d="M922.166,755.631a4.484,4.484,0,0,0,1.479-2.232,1.983,1.983,0,0,0-1.031-2.274c-.95-.363-1.965.293-2.738.958s-1.649,1.425-2.656,1.286a4.054,4.054,0,0,0,1.251-3.788,1.588,1.588,0,0,0-.348-.772c-.529-.564-1.483-.32-2.116.124-2.008,1.413-2.568,4.139-2.579,6.595a12.4,12.4,0,0,1-.035-2.7,2.773,2.773,0,0,0-1.023-2.4,3.055,3.055,0,0,0-1.544-.386,3.225,3.225,0,0,0-2.525.718,2.488,2.488,0,0,0,.1,3.089,9.988,9.988,0,0,0,2.614,2.093,5.842,5.842,0,0,1,1.869,1.78,1.817,1.817,0,0,1,.135.317h5.66a15.617,15.617,0,0,0,3.49-2.4Z" transform="translate(-594.063 -480.729)" fill="#6c63ff"/>
      <path id="Path_1172" data-name="Path 1172" d="M170.29,778.776s5.927-.181,7.722-1.456,9.124-2.792,9.568-.749,8.911,10.151,2.216,10.2-15.556-1.042-17.34-2.131S170.29,778.776,170.29,778.776Z" transform="translate(-141.311 -497.36)" fill="#a8a8a8"/>
      <path id="Path_1173" data-name="Path 1173" d="M189.908,791.147c-6.7.054-15.556-1.042-17.34-2.131-1.359-.826-1.9-3.8-2.081-5.166h-.2s.386,4.784,2.158,5.869,10.645,2.185,17.34,2.131c1.931,0,2.6-.7,2.564-1.722C192.082,790.75,191.345,791.136,189.908,791.147Z" transform="translate(-141.311 -502.442)" opacity="0.2"/>
    </g>
    <g id="Group_1350" data-name="Group 1350" transform="translate(1067 791)">
      <text id="Please_search_the_patient_records_" data-name="Please search the patient records !!" transform="translate(-54 19)" fill="#9ea9b8" font-size="18" font-family="SegoeUI, Segoe UI"><tspan x="0" y="0">Please search the patient records !!</tspan></text>
    </g>
  </g>
</svg>
