<svg id="Group_1376" data-name="Group 1376" xmlns="http://www.w3.org/2000/svg" width="44.837" height="46.849" viewBox="0 0 44.837 46.849">
  <g id="woman">
    <path id="Path_1179" data-name="Path 1179" d="M14.321,56.163h38.19a22.418,22.418,0,1,0-38.19,0Z" transform="translate(-10.998 -19.983)" fill="#70d5b0"/>
    <path id="Path_1180" data-name="Path 1180" d="M125.472,21.565a4.232,4.232,0,0,0-1.357-3.111,3.286,3.286,0,0,1-.9-3.44c1.369-4.162-1.7-5.672-3.67-10.886C117.832-.4,112.981-.118,111.411.1a3.549,3.549,0,0,1-.558.033A3.549,3.549,0,0,1,110.295.1c-1.569-.221-6.421-.508-8.136,4.026-1.972,5.214-5.039,6.723-3.67,10.886a3.286,3.286,0,0,1-.9,3.44,4.245,4.245,0,0,0-.746,5.305,4.27,4.27,0,0,1,.608,2.674A5.238,5.238,0,0,0,98.526,30.3H123.18a5.237,5.237,0,0,0,1.073-3.867,4.27,4.27,0,0,1,.608-2.674A4.224,4.224,0,0,0,125.472,21.565Z" transform="translate(-88.435 0)" fill="#56415e"/>
    <path id="Path_1181" data-name="Path 1181" d="M110.852.137A3.549,3.549,0,0,1,110.294.1c-1.569-.221-6.421-.508-8.136,4.026-1.972,5.214-5.039,6.723-3.67,10.886a3.286,3.286,0,0,1-.9,3.44,4.245,4.245,0,0,0-.746,5.305,4.271,4.271,0,0,1,.608,2.674A5.238,5.238,0,0,0,98.525,30.3h24.654a5.238,5.238,0,0,0,1.073-3.867,4.271,4.271,0,0,1,.608-2.674C118.44,26.341,117.234,21,117.234,21s-3.873-11.123-6.776-14.59a4.345,4.345,0,0,1,.394-6.275Z" transform="translate(-88.434 0)" fill="#45304c"/>
    <path id="Path_1182" data-name="Path 1182" d="M225.231,387.944a13.719,13.719,0,0,1-1.663.859,4.725,4.725,0,0,1-3.738,0,13.752,13.752,0,0,1-1.653-.853v11.08a22.6,22.6,0,0,0,7.054-.022Z" transform="translate(-199.22 -352.446)" fill="#9589e8"/>
    <g id="Group_1364" data-name="Group 1364" transform="translate(17.366 24.427)">
      <path id="Path_1183" data-name="Path 1183" d="M200.784,269.638a7.251,7.251,0,0,0,2.867,3.768.78.78,0,0,1,.155,1.162l-2.255,2.583a1.036,1.036,0,0,1-.355.264,13.667,13.667,0,0,0,2.833,1.65,4.725,4.725,0,0,0,3.738,0,13.666,13.666,0,0,0,2.833-1.651,1.036,1.036,0,0,1-.355-.265l-2.255-2.583a.78.78,0,0,1,.155-1.162,7.243,7.243,0,0,0,2.841-3.692,2.709,2.709,0,0,1-1.26-2.037v-.729a7.189,7.189,0,0,1-3.889,1.948,7.189,7.189,0,0,1-3.889-1.948v.729A2.628,2.628,0,0,1,200.784,269.638Z" transform="translate(-200.784 -266.949)" fill="#cc8c60"/>
      <path id="Path_1184" data-name="Path 1184" d="M205.846,268.9h-.01a7.189,7.189,0,0,1-3.889-1.948v.729a2.629,2.629,0,0,1-1.163,1.961,7.255,7.255,0,0,0,2.813,3.731c.044-.025.089-.052.132-.08C205.177,272.332,205.678,270.1,205.846,268.9Z" transform="translate(-200.783 -266.95)" fill="#ba7d54"/>
    </g>
    <path id="Path_1185" data-name="Path 1185" d="M152.088,135.4a13.486,13.486,0,0,1,.071-4.724,1.7,1.7,0,0,0-1.858-.07c-.87.85-.232,2.134.072,2.945a3.082,3.082,0,0,1,.181.753,1.4,1.4,0,0,0,1.589,1.332C152.125,135.56,152.106,135.482,152.088,135.4Z" transform="translate(-137.154 -118.43)" fill="#ba7d54"/>
    <path id="Path_1186" data-name="Path 1186" d="M340.228,130.608a1.7,1.7,0,0,0-1.858.07,13.488,13.488,0,0,1,.071,4.724c-.018.08-.037.158-.056.237a1.4,1.4,0,0,0,1.589-1.332,3.069,3.069,0,0,1,.181-.753C340.461,132.742,341.1,131.458,340.228,130.608Z" transform="translate(-308.414 -118.43)" fill="#cc8c60"/>
    <path id="Path_1187" data-name="Path 1187" d="M227.538,69.771a1.063,1.063,0,0,1-.282-.676c-.027-.922-.26-3.178-1.824-4.22-1.109-.739-2.669-.731-4.635.023a.918.918,0,0,1-.658,0q-.189-.072-.373-.136c-1.572,1.1-1.813,3.3-1.841,4.212a1.052,1.052,0,0,1-.308.691c-1.067,1.127-.833,4.419-.584,5.775a20.076,20.076,0,0,0,2.373,5.911,9.259,9.259,0,0,0,3.209,3.087,8.8,8.8,0,0,0,3.282-3.224,20.434,20.434,0,0,0,2.179-5.792C228.295,74.027,228.528,70.887,227.538,69.771Z" transform="translate(-197.988 -58.441)" fill="#dba783"/>
    <g id="Group_1365" data-name="Group 1365" transform="translate(14.68 5.887)">
      <path id="Path_1188" data-name="Path 1188" d="M178.24,81.224a19.661,19.661,0,0,1-2.324-5.788c-.244-1.327-.473-4.551.572-5.654a1.03,1.03,0,0,0,.3-.676c.029-.922.278-3.178,1.946-4.22l.04-.023c-1.906-.706-3.423-.7-4.508.023-1.564,1.041-1.8,3.3-1.824,4.22a1.063,1.063,0,0,1-.283.676c-.979,1.1-.765,4.327-.536,5.654a20.428,20.428,0,0,0,2.178,5.788,8.864,8.864,0,0,0,4.175,3.67,3.167,3.167,0,0,0,2.506,0,9.308,9.308,0,0,0,1.069-.548,9.1,9.1,0,0,1-3.315-3.122Z" transform="translate(-171.433 -64.34)" fill="#cc8c60"/>
    </g>
    <path id="Path_1189" data-name="Path 1189" d="M308.3,322.668a10.443,10.443,0,0,0-.745-2.11,7.142,7.142,0,0,0-5.081-3.876,33.288,33.288,0,0,1-4.875-1.339.9.9,0,0,1-.026.48,34.686,34.686,0,0,1-2.258,5.1,1.04,1.04,0,0,1-1.7.191l-1.064-1.218v13.189A22.427,22.427,0,0,0,308.3,322.668Z" transform="translate(-266.789 -286.488)" fill="#d3dcfb"/>
    <path id="Path_1190" data-name="Path 1190" d="M129.74,354.239c-.324-.6-.714-1.367-1.107-2.229-.009.049-.018.1-.026.146-.749.057-4.857.519-4.857,3.824V363.1a22.281,22.281,0,0,0,8.88,3.316V353.07l-1.187,1.359A1.04,1.04,0,0,1,129.74,354.239Z" transform="translate(-113.433 -319.8)" fill="#d3dcfb"/>
    <path id="Path_1191" data-name="Path 1191" d="M54.447,322.667c0-3.527,4.841-3.694,4.841-3.694,0-.018.006-.034.008-.052a31.066,31.066,0,0,1-1.254-3.1.9.9,0,0,1-.026-.48,33.287,33.287,0,0,1-4.875,1.339,7.142,7.142,0,0,0-5.081,3.876,10.446,10.446,0,0,0-.745,2.11,22.532,22.532,0,0,0,7.131,7.211Z" transform="translate(-43.993 -286.487)" fill="#bec8f7"/>
    <path id="Path_1192" data-name="Path 1192" d="M282.344,291.36a10.867,10.867,0,0,0-1.993-1.7.82.82,0,0,0-1.235.42,7.15,7.15,0,0,1-2.819,3.716.92.92,0,0,0-.183,1.372l2.255,2.583a1.181,1.181,0,0,0,1.933-.217,34.811,34.811,0,0,0,2.267-5.125A1.049,1.049,0,0,0,282.344,291.36Z" transform="translate(-251.648 -263.025)" fill="#deeeff"/>
    <path id="Path_1193" data-name="Path 1193" d="M182.136,321.806a6.93,6.93,0,0,1-1.592-1.454,3.445,3.445,0,0,0-3.528,2.947c.4.866.787,1.635,1.115,2.245a1.181,1.181,0,0,0,1.933.217l2.255-2.583A.92.92,0,0,0,182.136,321.806Z" transform="translate(-161.825 -291.039)" fill="#deeeff"/>
    <path id="Path_1194" data-name="Path 1194" d="M166.1,289.656a10.868,10.868,0,0,0-1.993,1.7,1.049,1.049,0,0,0-.225,1.045,31.181,31.181,0,0,0,1.256,3.106,3.334,3.334,0,0,1,3.538-3.034,7.359,7.359,0,0,1-1.341-2.4A.82.82,0,0,0,166.1,289.656Z" transform="translate(-149.847 -263.025)" fill="#d3dcfb"/>
    <path id="Path_1195" data-name="Path 1195" d="M12.075,109.7a4.545,4.545,0,0,0,4.346-5.9c-1.213-4.071.023-9.38,1.762-13.348a5.224,5.224,0,0,0,.1-4.172,22.443,22.443,0,0,0-6.2,23.421Z" transform="translate(-10.997 -78.382)" fill="#b8ebd8"/>
    <path id="Path_1196" data-name="Path 1196" d="M423.774,109.7a4.545,4.545,0,0,1-4.345-5.9c1.213-4.071-.023-9.38-1.762-13.348a5.224,5.224,0,0,1-.1-4.172,22.443,22.443,0,0,1,6.2,23.421Z" transform="translate(-380.015 -78.382)" fill="#b8ebd8"/>
    <path id="Path_1197" data-name="Path 1197" d="M399.807,395.614a5.58,5.58,0,0,0-2.49-3.471.857.857,0,0,0-1.318.722v6.1A22.54,22.54,0,0,0,399.807,395.614Z" transform="translate(-360.771 -356.138)" fill="#bec8f7"/>
  </g>
</svg>
