<svg xmlns="http://www.w3.org/2000/svg" width="18.689" height="18.247" viewBox="0 0 18.689 18.247">
  <path id="XMLID_478_" d="M18.689,4.753c0-.027,0-.053,0-.08s0-.027-.006-.04,0-.028-.006-.042-.007-.03-.011-.044-.006-.024-.009-.036-.01-.029-.015-.043-.008-.024-.013-.035-.012-.027-.019-.04-.011-.024-.017-.035-.015-.026-.023-.038-.013-.022-.02-.033-.021-.029-.032-.043L18.5,4.22a.855.855,0,0,0-.12-.119l-.023-.017c-.014-.011-.029-.022-.044-.032l-.032-.019-.04-.023-.034-.016-.042-.019-.033-.012-.046-.016-.032-.008-.048-.012-.036-.005-.046-.007-.058,0H15.158a.85.85,0,0,0,0,1.7h.631l-1.28,1.28a5.9,5.9,0,0,0-6.073-.615A5.907,5.907,0,1,0,5.057,17.455v1.1H4.01a.85.85,0,0,0,0,1.7H5.057v1.047a.85.85,0,0,0,1.7,0V20.258H7.8a.85.85,0,0,0,0-1.7H6.757v-1.1a5.859,5.859,0,0,0,1.679-.508,5.9,5.9,0,0,0,7.271-8.855L16.99,6.808V7.44a.85.85,0,1,0,1.7,0V4.757S18.689,4.755,18.689,4.753Zm-8.574,6.856A4.2,4.2,0,0,1,8.436,14.97a4.2,4.2,0,0,1,0-6.722A4.2,4.2,0,0,1,10.115,11.609Zm-8.416,0A4.209,4.209,0,0,1,6.741,7.484a5.9,5.9,0,0,0,0,8.25A4.209,4.209,0,0,1,1.7,11.609Zm9.266,4.208a4.213,4.213,0,0,1-.834-.083,5.9,5.9,0,0,0,0-8.25,4.208,4.208,0,1,1,.834,8.333Z" transform="translate(0 -3.908)" fill="#9ea9b8"/>
</svg>
