<svg id="Page-1" xmlns="http://www.w3.org/2000/svg" width="19.642" height="19.641" viewBox="0 0 19.642 19.641">
  <g id="_003---Call" data-name="003---Call">
    <path id="Shape" d="M9.131,11.547a7.927,7.927,0,0,1-2.393-4.5.673.673,0,0,1,.193-.563L8.448,4.967a.677.677,0,0,0,.1-.838L6.128.378A.677.677,0,0,0,5.25.131L1.373,1.957A.674.674,0,0,0,1,2.63,18.744,18.744,0,0,0,6.708,13.969a18.739,18.739,0,0,0,11.339,5.708.674.674,0,0,0,.673-.372l1.826-3.878a.677.677,0,0,0-.246-.876l-3.751-2.415a.677.677,0,0,0-.838.095l-1.516,1.517a.673.673,0,0,1-.563.193,7.927,7.927,0,0,1-4.5-2.393Z" transform="translate(-0.997 -0.039)" fill="#9ea9b8"/>
    <path id="Shape-2" data-name="Shape" d="M34.434,17.111a.677.677,0,0,1-.677-.677,5.085,5.085,0,0,0-5.08-5.08.677.677,0,1,1,0-1.355,6.441,6.441,0,0,1,6.434,6.434A.677.677,0,0,1,34.434,17.111Z" transform="translate(-18.856 -6.614)" fill="#9ea9b8"/>
    <path id="Shape-3" data-name="Shape" d="M37.82,10.5a.677.677,0,0,1-.677-.677,8.475,8.475,0,0,0-8.466-8.466.677.677,0,0,1,0-1.355A9.831,9.831,0,0,1,38.5,9.82a.677.677,0,0,1-.677.677Z" transform="translate(-18.856)" fill="#9ea9b8"/>
  </g>
</svg>
