<svg id="mail" xmlns="http://www.w3.org/2000/svg" width="29.535" height="20.767" viewBox="0 0 29.535 20.767">
  <g id="Group_1393" data-name="Group 1393" transform="translate(20.318 1.484)">
    <g id="Group_1392" data-name="Group 1392">
      <path id="Path_1224" data-name="Path 1224" d="M361.168,101.721l-8.957,8.9,8.957,8.9a2.566,2.566,0,0,0,.26-1.112V102.833A2.566,2.566,0,0,0,361.168,101.721Z" transform="translate(-352.211 -101.721)" fill="#9ea9b8"/>
    </g>
  </g>
  <g id="Group_1395" data-name="Group 1395" transform="translate(1.484)">
    <g id="Group_1394" data-name="Group 1394">
      <path id="Path_1225" data-name="Path 1225" d="M51.177,76H26.833a2.566,2.566,0,0,0-1.112.26L37.17,87.651a2.6,2.6,0,0,0,3.671,0L52.289,76.26A2.566,2.566,0,0,0,51.177,76Z" transform="translate(-25.721 -76)" fill="#9ea9b8"/>
    </g>
  </g>
  <g id="Group_1397" data-name="Group 1397" transform="translate(0 1.484)">
    <g id="Group_1396" data-name="Group 1396">
      <path id="Path_1226" data-name="Path 1226" d="M.26,101.721A2.566,2.566,0,0,0,0,102.833v15.575a2.565,2.565,0,0,0,.26,1.112l8.957-8.9Z" transform="translate(0 -101.721)" fill="#9ea9b8"/>
    </g>
  </g>
  <g id="Group_1399" data-name="Group 1399" transform="translate(1.484 11.607)">
    <g id="Group_1398" data-name="Group 1398">
      <path id="Path_1227" data-name="Path 1227" d="M43.331,277.211l-1.268,1.268a4.331,4.331,0,0,1-6.118,0l-1.267-1.268-8.957,8.9a2.566,2.566,0,0,0,1.112.26H51.177a2.566,2.566,0,0,0,1.112-.26Z" transform="translate(-25.721 -277.211)" fill="#9ea9b8"/>
    </g>
  </g>
</svg>
