<svg xmlns="http://www.w3.org/2000/svg" width="25.254" height="21.045" viewBox="0 0 25.254 21.045">
  <g id="photo-camera" transform="translate(0 -42.667)">
    <g id="Group_975" data-name="Group 975" transform="translate(0 42.667)">
      <g id="Group_974" data-name="Group 974" transform="translate(0 0)">
        <circle id="Ellipse_201" data-name="Ellipse 201" cx="5.261" cy="5.261" r="5.261" transform="translate(7.366 6.314)" fill="#100c74"/>
        <path id="Path_1004" data-name="Path 1004" d="M23.15,45.824H19.813a1.57,1.57,0,0,1-1.116-.462l-1.924-1.924a2.614,2.614,0,0,0-1.86-.771h-4.57a2.614,2.614,0,0,0-1.86.771L6.558,45.361a1.57,1.57,0,0,1-1.116.462H2.1a2.107,2.107,0,0,0-2.1,2.1V61.608a2.107,2.107,0,0,0,2.1,2.1H23.15a2.107,2.107,0,0,0,2.1-2.1V47.928A2.107,2.107,0,0,0,23.15,45.824ZM12.627,60.555a6.314,6.314,0,1,1,6.314-6.314A6.32,6.32,0,0,1,12.627,60.555Zm8.418-9.47A1.052,1.052,0,1,1,22.1,50.033,1.054,1.054,0,0,1,21.045,51.085Z" transform="translate(0 -42.667)" fill="#100c74"/>
      </g>
    </g>
  </g>
</svg>
