<svg xmlns="http://www.w3.org/2000/svg" width="199.223" height="231.249" viewBox="0 0 199.223 231.249">
  <g id="Group_1597" data-name="Group 1597" transform="translate(-1060 -536.431)">
    <g id="Group_1596" data-name="Group 1596" transform="translate(43)" opacity="0.7">
      <g id="Group_1595" data-name="Group 1595" transform="translate(19 32)" opacity="0.48">
        <circle id="Ellipse_232" data-name="Ellipse 232" cx="79" cy="79" r="79" transform="translate(998 538)" fill="#efedff"/>
        <circle id="Ellipse_233" data-name="Ellipse 233" cx="64" cy="64" r="64" transform="translate(1013 553)" fill="#e6e2ff"/>
      </g>
      <g id="Group_1594" data-name="Group 1594" transform="translate(-56.5 58.679)">
        <g id="Group_1593" data-name="Group 1593" transform="translate(-83 -114)" opacity="0.3">
          <g id="box" transform="translate(1194.642 670.641)">
            <path id="Path_1287" data-name="Path 1287" d="M73.52,27.886l8.723-8.723a1.616,1.616,0,0,0-.365-2.558L71.391,10.846a1.616,1.616,0,1,0-1.555,2.832l8.6,4.722L70.95,25.886,44.024,11.1,51.51,3.615l7.567,4.156a1.616,1.616,0,1,0,1.555-2.832L52,.2a1.615,1.615,0,0,0-1.92.274L41.358,9.2,32.634.473A1.616,1.616,0,0,0,30.715.2L.838,16.6a1.616,1.616,0,0,0-.365,2.558L9.2,27.886.473,36.609a1.616,1.616,0,0,0,.365,2.558l9.028,4.958V60.7a1.616,1.616,0,0,0,.838,1.417l29.876,16.4a1.615,1.615,0,0,0,1.555,0l29.876-16.4A1.616,1.616,0,0,0,72.85,60.7V44.125l9.028-4.957a1.616,1.616,0,0,0,.365-2.558ZM41.358,42.448,14.839,27.886l26.52-14.563,26.52,14.563ZM31.208,3.615,38.693,11.1,11.767,25.886,4.281,18.4Zm-19.44,26.27L38.694,44.671l-7.486,7.486L4.281,37.372ZM69.619,59.74,42.974,74.371V57.856a1.616,1.616,0,1,0-3.231,0V74.371L13.1,59.74V45.9l17.617,9.674a1.615,1.615,0,0,0,1.92-.274l8.724-8.724L50.082,55.3a1.615,1.615,0,0,0,1.92.274L69.619,45.9ZM51.51,52.157,44.023,44.67,70.95,29.885l7.487,7.486Zm0,0" transform="translate(0 0.001)" fill="#7c76fe"/>
            <path id="Path_1288" data-name="Path 1288" d="M396.417,51.407a1.617,1.617,0,1,0-1.142-.474A1.63,1.63,0,0,0,396.417,51.407Zm0,0" transform="translate(-331.019 -40.393)" fill="#7c76fe"/>
            <path id="Path_1289" data-name="Path 1289" d="M247.616,314.926a1.616,1.616,0,1,0,1.142.473A1.626,1.626,0,0,0,247.616,314.926Zm0,0" transform="translate(-206.258 -264.048)" fill="#7c76fe"/>
          </g>
        </g>
      </g>
    </g>
    <g id="undraw_Add_notes_re_ln36_1_" data-name="undraw_Add_notes_re_ln36 (1)" transform="matrix(0.996, 0.087, -0.087, 0.996, 1109.238, 447.005)" opacity="0.7">
      <path id="Path_1263" data-name="Path 1263" d="M620.933,434.877H582.539a5.766,5.766,0,0,1-4.554-2.207,5.835,5.835,0,0,1-1.093-5,96.839,96.839,0,0,0,0-44.976,5.836,5.836,0,0,1,1.093-5,5.766,5.766,0,0,1,4.554-2.207h38.393a5.839,5.839,0,0,1,5.745,4.9,162.958,162.958,0,0,1,0,49.6A5.839,5.839,0,0,1,620.933,434.877Z" transform="translate(-470.974 -294.962)" fill="#f1f0ff"/>
      <circle id="Ellipse_230" data-name="Ellipse 230" cx="11.074" cy="11.074" r="11.074" transform="translate(119.796 98.943)" fill="#fff"/>
      <path id="Path_1266" data-name="Path 1266" d="M626.931,428.046h-3.852v-3.852a1.444,1.444,0,1,0-2.889,0v3.852h-3.852a1.444,1.444,0,0,0,0,2.889h3.852v3.852a1.444,1.444,0,1,0,2.889,0v-3.852h3.852a1.444,1.444,0,0,0,0-2.889Z" transform="translate(-490.765 -319.474)" fill="#cdcafe"/>
      <path id="Path_1281" data-name="Path 1281" d="M512.282,489.31l-35.455-14.731a5.526,5.526,0,0,1-3.219-3.628h0a5.6,5.6,0,0,1,.874-4.834,97.08,97.08,0,0,0,17.3-41.638,5.6,5.6,0,0,1,2.809-4.03,5.526,5.526,0,0,1,4.843-.279L534.888,434.9a5.6,5.6,0,0,1,3.284,6.451,162.717,162.717,0,0,1-19,45.733,5.6,5.6,0,0,1-6.888,2.224Z" transform="translate(-417.395 -317.914)" fill="#cdcafe"/>
      <path id="Path_1282" data-name="Path 1282" d="M501.438,425.952a2.654,2.654,0,0,0-2.326.133,2.725,2.725,0,0,0-1.365,1.963,99.981,99.981,0,0,1-17.816,42.882,2.723,2.723,0,0,0-.428,2.352h0a2.653,2.653,0,0,0,1.546,1.742L516.5,489.755a2.688,2.688,0,0,0,3.311-1.057,159.845,159.845,0,0,0,18.665-44.923,2.688,2.688,0,0,0-1.587-3.093Z" transform="translate(-420.508 -321.027)" fill="#fff"/>
      <path id="Path_1283" data-name="Path 1283" d="M542.426,478.849l-18.605-7.73a2.892,2.892,0,0,1-1.559-3.776l.433-1.042a2.892,2.892,0,0,1,3.776-1.559l18.605,7.73a2.892,2.892,0,0,1,1.559,3.776l-.433,1.043a2.892,2.892,0,0,1-3.776,1.559Z" transform="translate(-442.618 -341.133)" fill="#cdcafe"/>
      <path id="Path_1284" data-name="Path 1284" d="M531.059,506.208l-18.605-7.73a2.892,2.892,0,0,1-1.559-3.776l.433-1.042A2.892,2.892,0,0,1,515.1,492.1l18.605,7.73a2.892,2.892,0,0,1,1.559,3.776l-.433,1.042A2.892,2.892,0,0,1,531.059,506.208Z" transform="translate(-436.724 -355.32)" fill="#cdcafe"/>
      <path id="Path_1285" data-name="Path 1285" d="M557.34,439.155a2.162,2.162,0,0,1-.812-.159l-18.748-7.58a2.169,2.169,0,0,1-1.2-2.821l1.444-3.571a2.167,2.167,0,0,1,2.821-1.2l18.748,7.58a2.169,2.169,0,0,1,1.2,2.821l-1.444,3.571A2.172,2.172,0,0,1,557.34,439.155Z" transform="translate(-450.077 -319.951)" fill="#fff" stroke="#cdcafe" stroke-width="2"/>
    </g>
    <text id="No_patient" data-name="No patient" transform="translate(1080 761.679)" fill="#c8c8c8" font-size="25" font-family="SegoeUI, Segoe UI"><tspan x="0" y="0">No patient</tspan></text>
  </g>
</svg>
