<svg xmlns="http://www.w3.org/2000/svg" width="22.426" height="22.428" viewBox="0 0 22.426 22.428">
  <g id="Group_437" data-name="Group 437" transform="translate(0.498)">
    <path id="Path_614" data-name="Path 614" d="M16.677,58.538a1.536,1.536,0,0,0-2.323,0c-.543.538-1.086,1.077-1.62,1.624a.32.32,0,0,1-.447.082c-.351-.192-.726-.347-1.063-.557a16.845,16.845,0,0,1-4.061-3.7A9.621,9.621,0,0,1,5.707,53.66a.334.334,0,0,1,.082-.429c.543-.525,1.072-1.063,1.606-1.6a1.542,1.542,0,0,0,0-2.377c-.424-.429-.849-.849-1.273-1.278S5.246,47.094,4.8,46.66a1.546,1.546,0,0,0-2.323,0c-.548.538-1.072,1.091-1.629,1.62a2.644,2.644,0,0,0-.83,1.784,7.559,7.559,0,0,0,.584,3.253,19.77,19.77,0,0,0,3.509,5.845,21.715,21.715,0,0,0,7.191,5.626,10.4,10.4,0,0,0,3.984,1.159A2.919,2.919,0,0,0,17.795,65c.465-.52.99-.995,1.483-1.492a1.552,1.552,0,0,0,.009-2.364Q17.986,59.836,16.677,58.538Z" transform="translate(-0.006 -44.032)" fill="none" stroke="#2dd372" stroke-width="1"/>
    <path id="Path_615" data-name="Path 615" d="M242.8,102.489l1.684-.287a7.558,7.558,0,0,0-6.393-6.2l-.237,1.693a5.841,5.841,0,0,1,4.946,4.8Z" transform="translate(-227.001 -91.619)" fill="#2dd372"/>
    <path id="Path_616" data-name="Path 616" d="M250.11,3.55A12.415,12.415,0,0,0,242.991,0l-.237,1.693a10.833,10.833,0,0,1,9.167,8.884l1.684-.287A12.507,12.507,0,0,0,250.11,3.55Z" transform="translate(-231.677)" fill="#2dd372"/>
  </g>
</svg>
