<svg id="Group_531" data-name="Group 531" xmlns="http://www.w3.org/2000/svg" width="47.025" height="47.025" viewBox="0 0 47.025 47.025">
  <circle id="Ellipse_130" data-name="Ellipse 130" cx="23.513" cy="23.513" r="23.513" fill="#e0e5ff"/>
  <g id="heart-frequency" transform="translate(10.223 8.178)">
    <path id="Path_826" data-name="Path 826" d="M27.887,15.973a5.056,5.056,0,0,1-.267,1.63c-.772,3.517-7.1,7.579-7.82,8.029a.913.913,0,0,1-.5.143.934.934,0,0,1-.5-.143,36.019,36.019,0,0,1-3.872-2.876.936.936,0,1,1,1.217-1.424,34.129,34.129,0,0,0,3.16,2.384c2.028-1.351,6.023-4.4,6.514-6.615a3.587,3.587,0,0,0,.194-1.128,3.385,3.385,0,0,0-1.755-2.964,3.443,3.443,0,0,0-4.235.8.935.935,0,0,1-1.442,0,3.46,3.46,0,0,0-4.237-.806,3.393,3.393,0,0,0-1.757,2.962,3.245,3.245,0,0,0,.172,1.037,3.8,3.8,0,0,0,.29.788h2.622l.968-2.23a.937.937,0,0,1,1.771.158l.567,2.4.517-.844a.932.932,0,0,1,.8-.45h1.941a.938.938,0,0,1,0,1.876H20.818l-1.429,2.344a.938.938,0,0,1-.8.449.952.952,0,0,1-.146-.011.939.939,0,0,1-.766-.71L17.236,18.9l-.091.21a.945.945,0,0,1-.862.563H10.026a.938.938,0,0,1,0-1.876h1.015c-.029-.1-.074-.2-.091-.287a4.853,4.853,0,0,1-.242-1.533,5.263,5.263,0,0,1,2.725-4.6,5.361,5.361,0,0,1,5.86.532,5.377,5.377,0,0,1,5.865-.532A5.257,5.257,0,0,1,27.887,15.973Zm4.429,1.081A13.512,13.512,0,1,1,16.946,3.687V1.876H14.687a.938.938,0,1,1,0-1.876h6.175a.938.938,0,1,1,0,1.876H18.822V3.545a13.414,13.414,0,0,1,5.765,1.318L25.848,3a.944.944,0,0,1,1.3-.252.934.934,0,0,1,.249,1.3L26.232,5.78A13.519,13.519,0,0,1,32.315,17.054Zm-1.875,0A11.637,11.637,0,1,0,18.8,28.691,11.648,11.648,0,0,0,30.44,17.054Z" transform="translate(-5.291)" fill="#6b63d2"/>
  </g>
</svg>
