<svg xmlns="http://www.w3.org/2000/svg" width="387.187" height="359.963" viewBox="0 0 387.187 359.963">
  <g id="file-upload" transform="translate(0 0)">
    <path id="Path_1179" data-name="Path 1179" d="M326.689,0H60.5A60.565,60.565,0,0,0,0,60.5V272.24a60.565,60.565,0,0,0,60.5,60.5H266.947a15.124,15.124,0,0,0,0-30.249H211.24l-34.775-45.113,110.2-140.165L360.849,199.2a15.123,15.123,0,0,0,26.338-10.147V60.5A60.565,60.565,0,0,0,326.689,0Zm30.249,149.8L297.069,83.625a15.124,15.124,0,0,0-23.106.8L157.416,232.662,117.85,181.334a15.126,15.126,0,0,0-11.978-5.89h-.009a15.124,15.124,0,0,0-11.978,5.9L60.6,224.616a15.126,15.126,0,0,0,23.978,18.445l21.307-27.7,67.165,87.131H60.5A30.285,30.285,0,0,1,30.249,272.24V60.5A30.285,30.285,0,0,1,60.5,30.249H326.689A30.285,30.285,0,0,1,356.938,60.5Zm0,0" fill="#7c76fe"/>
    <path id="Path_1180" data-name="Path 1180" d="M125.373,72a45.373,45.373,0,1,0,45.373,45.373A45.423,45.423,0,0,0,125.373,72Zm0,60.5A15.124,15.124,0,1,1,140.5,117.373,15.142,15.142,0,0,1,125.373,132.5Zm0,0" transform="translate(-19.502 -17.552)" fill="#7c76fe"/>
    <path id="Path_1181" data-name="Path 1181" d="M440.326,299.3l-.133-.136A37.7,37.7,0,0,0,386.7,299.1l-29.2,28.8a15.124,15.124,0,0,0,21.242,21.535l19.547-19.278v84.889a15.124,15.124,0,1,0,30.249,0V330.617l18.708,19.325A15.124,15.124,0,1,0,468.98,328.9Zm0,0" transform="translate(-86.053 -70.208)" fill="#7c76fe"/>
  </g>
</svg>
