<svg xmlns="http://www.w3.org/2000/svg" width="512" height="352" viewBox="0 0 512 352">
  <g id="video-call" transform="translate(0 -80)">
    <g id="Group_1599" data-name="Group 1599">
      <path id="Path_1263" data-name="Path 1263" d="M496,112H448a16,16,0,0,0-11.36,4.64L409.44,144H384V128a48,48,0,0,0-48-48H48A48,48,0,0,0,0,128V384a48,48,0,0,0,48,48H336a48,48,0,0,0,48-48V368h25.44l27.36,27.36A16,16,0,0,0,448,400h48a16,16,0,0,0,16-16V128A16,16,0,0,0,496,112ZM480,368H454.56L427.2,340.64A16,16,0,0,0,416,336H368a16,16,0,0,0-16,16v32a16,16,0,0,1-16,16H48a16,16,0,0,1-16-16V128a16,16,0,0,1,16-16H336a16,16,0,0,1,16,16V288h32V176h32a16,16,0,0,0,11.36-4.64L454.56,144H480Z" fill="#8988a4"/>
    </g>
  </g>
</svg>
