<svg xmlns="http://www.w3.org/2000/svg" width="602.32" height="186.719" viewBox="0 0 602.32 186.719">
  <g id="undraw_best_place_r685_4_" data-name="undraw_best_place_r685 (4)" transform="translate(0 -165.588)" opacity="0.27">
    <circle id="Ellipse_59" data-name="Ellipse 59" cx="28.773" cy="28.773" r="28.773" transform="translate(447.803 165.588)" fill="#ff6584"/>
    <rect id="Rectangle_245" data-name="Rectangle 245" width="1.059" height="41.85" transform="translate(464.587 309.397)" fill="#3f3d56"/>
    <path id="Path_373" data-name="Path 373" d="M910.582,614.617c.067,14.634-10.228,26.545-10.228,26.545s-10.405-11.815-10.473-26.449,10.228-26.545,10.228-26.545S910.514,599.983,910.582,614.617Z" transform="translate(-435.157 -299.887)" fill="#6c63ff"/>
    <path id="Path_374" data-name="Path 374" d="M910.582,614.617c.067,14.634-10.228,26.545-10.228,26.545s-10.405-11.815-10.473-26.449,10.228-26.545,10.228-26.545S910.514,599.983,910.582,614.617Z" transform="translate(-435.157 -299.887)" opacity="0.1"/>
    <circle id="Ellipse_60" data-name="Ellipse 60" cx="16.553" cy="16.553" r="16.553" transform="translate(248.861 193.085)" fill="#6c63ff" opacity="0.4"/>
    <circle id="Ellipse_61" data-name="Ellipse 61" cx="11.612" cy="11.612" r="11.612" transform="translate(223.166 205.932)" fill="#6c63ff" opacity="0.4"/>
    <circle id="Ellipse_62" data-name="Ellipse 62" cx="11.612" cy="11.612" r="11.612" transform="translate(98.676 239.306)" fill="#6c63ff" opacity="0.4"/>
    <circle id="Ellipse_63" data-name="Ellipse 63" cx="16.553" cy="16.553" r="16.553" transform="translate(437.074 191.723)" fill="#6c63ff" opacity="0.4"/>
    <path id="Path_375" data-name="Path 375" d="M87.89,692.349a10.662,10.662,0,0,0,3.971,5.372,9.18,9.18,0,0,0-3.25-12.013A10.662,10.662,0,0,0,87.89,692.349Z" transform="translate(-57.89 -345.755)" fill="#3f3d56"/>
    <path id="Path_376" data-name="Path 376" d="M85.157,694.591a10.662,10.662,0,0,1,2.763,6.082A9.18,9.18,0,0,1,79,691.993,10.666,10.666,0,0,1,85.157,694.591Z" transform="translate(-53.838 -348.711)" fill="#6c63ff"/>
    <path id="Path_377" data-name="Path 377" d="M699.89,692.349a10.662,10.662,0,0,0,3.971,5.372,9.18,9.18,0,0,0-3.25-12.013A10.662,10.662,0,0,0,699.89,692.349Z" transform="translate(-345.686 -345.755)" fill="#3f3d56"/>
    <path id="Path_378" data-name="Path 378" d="M697.157,694.591a10.662,10.662,0,0,1,2.763,6.082,9.18,9.18,0,0,1-8.917-8.68A10.667,10.667,0,0,1,697.157,694.591Z" transform="translate(-341.634 -348.711)" fill="#6c63ff"/>
    <path id="Path_379" data-name="Path 379" d="M66.192,441.4,64,437.744,84.456,420.21h52.6v5.114L118.062,445.78l-21.917,4.383Z" transform="translate(-30.096 -119.737)" fill="#3f3d56"/>
    <path id="Path_380" data-name="Path 380" d="M189.561,429.486v-11.43h-6.887v3.6l-2.168-2.463-17.534,17.534-2.923,2.922L156.4,454.264l6.575,16.072h33.605V437.461Z" transform="translate(-73.547 -118.724)" fill="#ccc"/>
    <rect id="Rectangle_246" data-name="Rectangle 246" width="55.523" height="33.606" transform="translate(33.904 318.006)" fill="#f2f2f2"/>
    <rect id="Rectangle_247" data-name="Rectangle 247" width="11.689" height="10.228" transform="translate(70.066 328.599)" fill="#3f3d56"/>
    <rect id="Rectangle_248" data-name="Rectangle 248" width="10.228" height="23.378" transform="translate(55.09 328.234)" fill="#ccc"/>
    <path id="Path_381" data-name="Path 381" d="M78.037,476.268v-3.653H73.654v3.653h4.383Z" transform="translate(-34.636 -144.381)" fill="#3f3d56"/>
    <path id="Path_382" data-name="Path 382" d="M77.672,485.026H73.654v3.653h4.383v-3.653Z" transform="translate(-34.636 -150.217)" fill="#3f3d56"/>
    <rect id="Rectangle_249" data-name="Rectangle 249" width="4.383" height="3.653" transform="translate(46.323 328.234)" fill="#3f3d56"/>
    <rect id="Rectangle_250" data-name="Rectangle 250" width="4.383" height="3.653" transform="translate(46.323 334.809)" fill="#3f3d56"/>
    <path id="Path_383" data-name="Path 383" d="M194.569,476.957V473.3h-4.384v3.653h4.384Z" transform="translate(-89.435 -144.705)" fill="#3f3d56"/>
    <path id="Path_384" data-name="Path 384" d="M194.2,485.716h-4.018v3.653h4.384v-3.653Z" transform="translate(-89.435 -150.542)" fill="#3f3d56"/>
    <rect id="Rectangle_251" data-name="Rectangle 251" width="4.383" height="3.653" transform="translate(108.055 328.599)" fill="#3f3d56"/>
    <rect id="Rectangle_252" data-name="Rectangle 252" width="4.383" height="3.653" transform="translate(108.055 335.174)" fill="#3f3d56"/>
    <path id="Path_385" data-name="Path 385" d="M465.192,441.4,463,437.744l20.456-17.534h52.6v5.114L517.062,445.78l-21.917,4.383Z" transform="translate(-217.728 -119.737)" fill="#3f3d56"/>
    <path id="Path_386" data-name="Path 386" d="M588.561,429.486v-11.43h-6.887v3.6l-2.168-2.463-17.534,17.534-2.923,2.922L555.4,454.264l6.575,16.072h33.606V437.461Z" transform="translate(-261.178 -118.724)" fill="#ccc"/>
    <rect id="Rectangle_253" data-name="Rectangle 253" width="55.523" height="33.606" transform="translate(245.272 318.006)" fill="#f2f2f2"/>
    <rect id="Rectangle_254" data-name="Rectangle 254" width="11.689" height="10.228" transform="translate(281.435 328.599)" fill="#3f3d56"/>
    <rect id="Rectangle_255" data-name="Rectangle 255" width="10.228" height="23.378" transform="translate(266.458 328.234)" fill="#ccc"/>
    <path id="Path_387" data-name="Path 387" d="M477.037,476.268v-3.653h-4.383v3.653h4.383Z" transform="translate(-222.268 -144.381)" fill="#3f3d56"/>
    <path id="Path_388" data-name="Path 388" d="M476.672,485.026h-4.018v3.653h4.383v-3.653Z" transform="translate(-222.268 -150.217)" fill="#3f3d56"/>
    <rect id="Rectangle_256" data-name="Rectangle 256" width="4.383" height="3.653" transform="translate(257.692 328.234)" fill="#3f3d56"/>
    <rect id="Rectangle_257" data-name="Rectangle 257" width="4.383" height="3.653" transform="translate(257.692 334.809)" fill="#3f3d56"/>
    <path id="Path_389" data-name="Path 389" d="M593.569,476.957V473.3h-4.384v3.653h4.384Z" transform="translate(-277.067 -144.705)" fill="#3f3d56"/>
    <path id="Path_390" data-name="Path 390" d="M593.2,485.716h-4.018v3.653h4.384v-3.653Z" transform="translate(-277.067 -150.542)" fill="#3f3d56"/>
    <rect id="Rectangle_258" data-name="Rectangle 258" width="4.383" height="3.653" transform="translate(319.424 328.599)" fill="#3f3d56"/>
    <rect id="Rectangle_259" data-name="Rectangle 259" width="4.383" height="3.653" transform="translate(319.424 335.174)" fill="#3f3d56"/>
    <path id="Path_391" data-name="Path 391" d="M277.273,325.554l-3.653-2.923,20.456-18.264h51.87v16.072L312.34,343.087Z" transform="translate(-128.671 -65.262)" fill="#3f3d56"/>
    <path id="Path_392" data-name="Path 392" d="M389.8,314.612v-9.88h-6.887v2.42l-2.57-2.785-16.8,18.264-6.575,4.384L346.773,401.5l15.375,15.375h35.731V323.362Z" transform="translate(-163.072 -65.262)" fill="#ccc"/>
    <rect id="Rectangle_260" data-name="Rectangle 260" width="55.523" height="94.242" transform="translate(144.949 257.37)" fill="#f2f2f2"/>
    <rect id="Rectangle_261" data-name="Rectangle 261" width="10.228" height="23.013" transform="translate(166.5 328.599)" fill="#ccc"/>
    <path id="Path_393" data-name="Path 393" d="M289.725,482.474v-3.653h-4.383v3.653h4.383Z" transform="translate(-134.183 -147.299)" fill="#3f3d56"/>
    <path id="Path_394" data-name="Path 394" d="M289.36,491.232h-4.018v3.653h4.383v-3.653Z" transform="translate(-134.183 -153.136)" fill="#3f3d56"/>
    <rect id="Rectangle_262" data-name="Rectangle 262" width="4.383" height="3.653" transform="translate(158.464 331.522)" fill="#3f3d56"/>
    <rect id="Rectangle_263" data-name="Rectangle 263" width="4.383" height="3.653" transform="translate(158.464 338.096)" fill="#3f3d56"/>
    <path id="Path_395" data-name="Path 395" d="M346.267,482.474v-3.653h-4.383v3.653h4.383Z" transform="translate(-160.772 -147.299)" fill="#3f3d56"/>
    <path id="Path_396" data-name="Path 396" d="M345.9,491.232h-4.018v3.653h4.383v-3.653Z" transform="translate(-160.772 -153.136)" fill="#3f3d56"/>
    <rect id="Rectangle_264" data-name="Rectangle 264" width="4.383" height="3.653" transform="translate(188.417 331.522)" fill="#3f3d56"/>
    <rect id="Rectangle_265" data-name="Rectangle 265" width="4.383" height="3.653" transform="translate(188.417 338.096)" fill="#3f3d56"/>
    <path id="Path_397" data-name="Path 397" d="M404.188,344.566v-3.653H399.8v3.653h4.383Z" transform="translate(-188.01 -82.447)" fill="#3f3d56"/>
    <path id="Path_398" data-name="Path 398" d="M403.823,353.325H399.8v3.653h4.383v-3.653Z" transform="translate(-188.01 -88.284)" fill="#3f3d56"/>
    <rect id="Rectangle_266" data-name="Rectangle 266" width="4.383" height="3.653" transform="translate(219.101 258.466)" fill="#3f3d56"/>
    <rect id="Rectangle_267" data-name="Rectangle 267" width="4.383" height="3.653" transform="translate(219.101 265.041)" fill="#3f3d56"/>
    <path id="Path_399" data-name="Path 399" d="M404.188,383.18v-3.653H399.8v3.653h4.383Z" transform="translate(-188.01 -100.606)" fill="#3f3d56"/>
    <path id="Path_400" data-name="Path 400" d="M403.823,391.939H399.8v3.653h4.383v-3.653Z" transform="translate(-188.01 -106.443)" fill="#3f3d56"/>
    <rect id="Rectangle_268" data-name="Rectangle 268" width="4.383" height="3.653" transform="translate(219.101 278.921)" fill="#3f3d56"/>
    <rect id="Rectangle_269" data-name="Rectangle 269" width="4.383" height="3.653" transform="translate(219.101 285.496)" fill="#3f3d56"/>
    <path id="Path_401" data-name="Path 401" d="M404.188,421.794v-3.653H399.8v3.653h4.383Z" transform="translate(-188.01 -118.764)" fill="#3f3d56"/>
    <path id="Path_402" data-name="Path 402" d="M403.823,430.553H399.8v3.653h4.383v-3.653Z" transform="translate(-188.01 -124.601)" fill="#3f3d56"/>
    <rect id="Rectangle_270" data-name="Rectangle 270" width="4.383" height="3.653" transform="translate(219.101 299.377)" fill="#3f3d56"/>
    <rect id="Rectangle_271" data-name="Rectangle 271" width="4.383" height="3.653" transform="translate(219.101 305.952)" fill="#3f3d56"/>
    <path id="Path_403" data-name="Path 403" d="M404.188,460.408v-3.653H399.8v3.653h4.383Z" transform="translate(-188.01 -136.923)" fill="#3f3d56"/>
    <path id="Path_404" data-name="Path 404" d="M403.823,469.167H399.8v3.653h4.383v-3.653Z" transform="translate(-188.01 -142.759)" fill="#3f3d56"/>
    <rect id="Rectangle_272" data-name="Rectangle 272" width="4.383" height="3.653" transform="translate(219.101 319.832)" fill="#3f3d56"/>
    <rect id="Rectangle_273" data-name="Rectangle 273" width="4.383" height="3.653" transform="translate(219.101 326.408)" fill="#3f3d56"/>
    <rect id="Rectangle_274" data-name="Rectangle 274" width="42.372" height="8.767" transform="translate(151.159 262.118)" fill="#3f3d56"/>
    <rect id="Rectangle_275" data-name="Rectangle 275" width="42.372" height="8.767" transform="translate(151.159 279.652)" fill="#3f3d56"/>
    <rect id="Rectangle_276" data-name="Rectangle 276" width="42.372" height="8.767" transform="translate(151.159 297.185)" fill="#3f3d56"/>
    <rect id="Rectangle_277" data-name="Rectangle 277" width="42.372" height="8.767" transform="translate(151.159 314.719)" fill="#3f3d56"/>
    <path id="Path_405" data-name="Path 405" d="M680.273,325.554l-3.653-2.923,20.456-18.264h51.87v16.072L715.34,343.087Z" transform="translate(-318.184 -65.262)" fill="#3f3d56"/>
    <path id="Path_406" data-name="Path 406" d="M792.8,314.612v-9.88h-6.887v2.42l-2.57-2.785-16.8,18.264-6.575,4.384L749.773,401.5l15.375,15.375h35.731V323.362Z" transform="translate(-352.584 -65.262)" fill="#ccc"/>
    <rect id="Rectangle_278" data-name="Rectangle 278" width="55.523" height="94.242" transform="translate(358.436 257.37)" fill="#f2f2f2"/>
    <rect id="Rectangle_279" data-name="Rectangle 279" width="10.228" height="23.013" transform="translate(379.988 328.599)" fill="#ccc"/>
    <path id="Path_407" data-name="Path 407" d="M692.725,482.474v-3.653h-4.383v3.653h4.383Z" transform="translate(-323.696 -147.299)" fill="#3f3d56"/>
    <path id="Path_408" data-name="Path 408" d="M692.36,491.232h-4.018v3.653h4.383v-3.653Z" transform="translate(-323.696 -153.136)" fill="#3f3d56"/>
    <rect id="Rectangle_280" data-name="Rectangle 280" width="4.383" height="3.653" transform="translate(371.951 331.522)" fill="#3f3d56"/>
    <rect id="Rectangle_281" data-name="Rectangle 281" width="4.383" height="3.653" transform="translate(371.951 338.096)" fill="#3f3d56"/>
    <path id="Path_409" data-name="Path 409" d="M749.267,482.474v-3.653h-4.383v3.653h4.383Z" transform="translate(-350.285 -147.299)" fill="#3f3d56"/>
    <path id="Path_410" data-name="Path 410" d="M748.9,491.232h-4.018v3.653h4.383v-3.653Z" transform="translate(-350.285 -153.136)" fill="#3f3d56"/>
    <rect id="Rectangle_282" data-name="Rectangle 282" width="4.383" height="3.653" transform="translate(401.905 331.522)" fill="#3f3d56"/>
    <rect id="Rectangle_283" data-name="Rectangle 283" width="4.383" height="3.653" transform="translate(401.905 338.096)" fill="#3f3d56"/>
    <path id="Path_411" data-name="Path 411" d="M807.188,344.566v-3.653H802.8v3.653h4.383Z" transform="translate(-377.523 -82.447)" fill="#3f3d56"/>
    <path id="Path_412" data-name="Path 412" d="M806.823,353.325H802.8v3.653h4.383v-3.653Z" transform="translate(-377.523 -88.284)" fill="#3f3d56"/>
    <rect id="Rectangle_284" data-name="Rectangle 284" width="4.383" height="3.653" transform="translate(432.588 258.466)" fill="#3f3d56"/>
    <rect id="Rectangle_285" data-name="Rectangle 285" width="4.383" height="3.653" transform="translate(432.588 265.041)" fill="#3f3d56"/>
    <path id="Path_413" data-name="Path 413" d="M807.188,383.18v-3.653H802.8v3.653h4.383Z" transform="translate(-377.523 -100.606)" fill="#3f3d56"/>
    <path id="Path_414" data-name="Path 414" d="M806.823,391.939H802.8v3.653h4.383v-3.653Z" transform="translate(-377.523 -106.443)" fill="#3f3d56"/>
    <rect id="Rectangle_286" data-name="Rectangle 286" width="4.383" height="3.653" transform="translate(432.588 278.921)" fill="#3f3d56"/>
    <rect id="Rectangle_287" data-name="Rectangle 287" width="4.383" height="3.653" transform="translate(432.588 285.496)" fill="#3f3d56"/>
    <path id="Path_415" data-name="Path 415" d="M807.188,421.794v-3.653H802.8v3.653h4.383Z" transform="translate(-377.523 -118.764)" fill="#3f3d56"/>
    <path id="Path_416" data-name="Path 416" d="M806.823,430.553H802.8v3.653h4.383v-3.653Z" transform="translate(-377.523 -124.601)" fill="#3f3d56"/>
    <rect id="Rectangle_288" data-name="Rectangle 288" width="4.383" height="3.653" transform="translate(432.588 299.377)" fill="#3f3d56"/>
    <rect id="Rectangle_289" data-name="Rectangle 289" width="4.383" height="3.653" transform="translate(432.588 305.952)" fill="#3f3d56"/>
    <path id="Path_417" data-name="Path 417" d="M807.188,460.408v-3.653H802.8v3.653h4.383Z" transform="translate(-377.523 -136.923)" fill="#3f3d56"/>
    <path id="Path_418" data-name="Path 418" d="M806.823,469.167H802.8v3.653h4.383v-3.653Z" transform="translate(-377.523 -142.759)" fill="#3f3d56"/>
    <rect id="Rectangle_290" data-name="Rectangle 290" width="4.383" height="3.653" transform="translate(432.588 319.832)" fill="#3f3d56"/>
    <rect id="Rectangle_291" data-name="Rectangle 291" width="4.383" height="3.653" transform="translate(432.588 326.408)" fill="#3f3d56"/>
    <rect id="Rectangle_292" data-name="Rectangle 292" width="42.372" height="8.767" transform="translate(364.646 262.118)" fill="#3f3d56"/>
    <rect id="Rectangle_293" data-name="Rectangle 293" width="42.372" height="8.767" transform="translate(364.646 279.652)" fill="#3f3d56"/>
    <rect id="Rectangle_294" data-name="Rectangle 294" width="42.372" height="8.767" transform="translate(364.646 297.185)" fill="#3f3d56"/>
    <rect id="Rectangle_295" data-name="Rectangle 295" width="42.372" height="8.767" transform="translate(364.646 314.719)" fill="#3f3d56"/>
    <path id="Path_419" data-name="Path 419" d="M901.273,325.554l-3.653-2.923,20.456-18.264h51.871v16.072L936.34,343.087Z" transform="translate(-422.11 -65.262)" fill="#3f3d56"/>
    <path id="Path_420" data-name="Path 420" d="M1013.8,314.612v-9.88h-6.887v2.42l-2.569-2.785-16.8,18.264-6.575,4.384L970.773,401.5l15.375,15.375h35.733V323.362Z" transform="translate(-456.51 -65.262)" fill="#ccc"/>
    <rect id="Rectangle_296" data-name="Rectangle 296" width="55.523" height="94.242" transform="translate(475.51 257.37)" fill="#f2f2f2"/>
    <rect id="Rectangle_297" data-name="Rectangle 297" width="10.228" height="23.013" transform="translate(497.061 328.599)" fill="#ccc"/>
    <path id="Path_421" data-name="Path 421" d="M913.725,482.474v-3.653h-4.383v3.653h4.383Z" transform="translate(-427.622 -147.299)" fill="#3f3d56"/>
    <path id="Path_422" data-name="Path 422" d="M913.36,491.232h-4.018v3.653h4.383v-3.653Z" transform="translate(-427.622 -153.136)" fill="#3f3d56"/>
    <rect id="Rectangle_298" data-name="Rectangle 298" width="4.383" height="3.653" transform="translate(489.025 331.522)" fill="#3f3d56"/>
    <rect id="Rectangle_299" data-name="Rectangle 299" width="4.383" height="3.653" transform="translate(489.025 338.096)" fill="#3f3d56"/>
    <path id="Path_423" data-name="Path 423" d="M970.267,482.474v-3.653h-4.383v3.653h4.383Z" transform="translate(-454.211 -147.299)" fill="#3f3d56"/>
    <path id="Path_424" data-name="Path 424" d="M969.9,491.232h-4.018v3.653h4.383v-3.653Z" transform="translate(-454.211 -153.136)" fill="#3f3d56"/>
    <rect id="Rectangle_300" data-name="Rectangle 300" width="4.383" height="3.653" transform="translate(518.979 331.522)" fill="#3f3d56"/>
    <rect id="Rectangle_301" data-name="Rectangle 301" width="4.383" height="3.653" transform="translate(518.979 338.096)" fill="#3f3d56"/>
    <path id="Path_425" data-name="Path 425" d="M1028.186,344.566v-3.653H1023.8v3.653h4.386Z" transform="translate(-481.446 -82.447)" fill="#3f3d56"/>
    <path id="Path_426" data-name="Path 426" d="M1027.821,353.325H1023.8v3.653h4.386v-3.653Z" transform="translate(-481.446 -88.284)" fill="#3f3d56"/>
    <rect id="Rectangle_302" data-name="Rectangle 302" width="4.383" height="3.653" transform="translate(549.664 258.466)" fill="#3f3d56"/>
    <rect id="Rectangle_303" data-name="Rectangle 303" width="4.383" height="3.653" transform="translate(549.664 265.041)" fill="#3f3d56"/>
    <path id="Path_427" data-name="Path 427" d="M1028.186,383.18v-3.653H1023.8v3.653h4.386Z" transform="translate(-481.446 -100.606)" fill="#3f3d56"/>
    <path id="Path_428" data-name="Path 428" d="M1027.821,391.939H1023.8v3.653h4.386v-3.653Z" transform="translate(-481.446 -106.443)" fill="#3f3d56"/>
    <rect id="Rectangle_304" data-name="Rectangle 304" width="4.383" height="3.653" transform="translate(549.664 278.921)" fill="#3f3d56"/>
    <rect id="Rectangle_305" data-name="Rectangle 305" width="4.383" height="3.653" transform="translate(549.664 285.496)" fill="#3f3d56"/>
    <path id="Path_429" data-name="Path 429" d="M1028.186,421.794v-3.653H1023.8v3.653h4.386Z" transform="translate(-481.446 -118.764)" fill="#3f3d56"/>
    <path id="Path_430" data-name="Path 430" d="M1027.821,430.553H1023.8v3.653h4.386v-3.653Z" transform="translate(-481.446 -124.601)" fill="#3f3d56"/>
    <rect id="Rectangle_306" data-name="Rectangle 306" width="4.383" height="3.653" transform="translate(549.664 299.377)" fill="#3f3d56"/>
    <rect id="Rectangle_307" data-name="Rectangle 307" width="4.383" height="3.653" transform="translate(549.664 305.952)" fill="#3f3d56"/>
    <path id="Path_431" data-name="Path 431" d="M1028.186,460.408v-3.653H1023.8v3.653h4.386Z" transform="translate(-481.446 -136.923)" fill="#3f3d56"/>
    <path id="Path_432" data-name="Path 432" d="M1027.821,469.167H1023.8v3.653h4.386v-3.653Z" transform="translate(-481.446 -142.759)" fill="#3f3d56"/>
    <rect id="Rectangle_308" data-name="Rectangle 308" width="4.383" height="3.653" transform="translate(549.664 319.832)" fill="#3f3d56"/>
    <rect id="Rectangle_309" data-name="Rectangle 309" width="4.383" height="3.653" transform="translate(549.664 326.408)" fill="#3f3d56"/>
    <rect id="Rectangle_310" data-name="Rectangle 310" width="42.372" height="8.767" transform="translate(481.72 262.118)" fill="#3f3d56"/>
    <rect id="Rectangle_311" data-name="Rectangle 311" width="42.372" height="8.767" transform="translate(481.72 279.652)" fill="#3f3d56"/>
    <rect id="Rectangle_312" data-name="Rectangle 312" width="42.372" height="8.767" transform="translate(481.72 297.185)" fill="#3f3d56"/>
    <rect id="Rectangle_313" data-name="Rectangle 313" width="42.372" height="8.767" transform="translate(481.72 314.719)" fill="#3f3d56"/>
    <path id="Path_436" data-name="Path 436" d="M602.321,1.059h0Z" transform="translate(0 351.247)" fill="#3f3d56"/>
    <rect id="Rectangle_315" data-name="Rectangle 315" width="1.059" height="41.85" transform="translate(133.496 309.397)" fill="#3f3d56"/>
    <path id="Path_433" data-name="Path 433" d="M285.582,614.617c.067,14.634-10.228,26.545-10.228,26.545s-10.405-11.815-10.473-26.449,10.228-26.545,10.228-26.545S285.514,599.983,285.582,614.617Z" transform="translate(-141.248 -299.887)" fill="#6c63ff"/>
    <rect id="Rectangle_316" data-name="Rectangle 316" width="1.059" height="41.85" transform="translate(239.445 309.397)" fill="#3f3d56"/>
    <path id="Path_434" data-name="Path 434" d="M485.582,614.617c.068,14.634-10.228,26.545-10.228,26.545s-10.405-11.815-10.472-26.449,10.228-26.545,10.228-26.545S485.514,599.983,485.582,614.617Z" transform="translate(-235.299 -299.887)" fill="#6c63ff"/>
    <rect id="Rectangle_317" data-name="Rectangle 317" width="1.059" height="41.85" transform="translate(450.814 309.397)" fill="#3f3d56"/>
    <path id="Path_435" data-name="Path 435" d="M884.582,614.617c.067,14.634-10.228,26.545-10.228,26.545s-10.405-11.815-10.473-26.449,10.228-26.545,10.228-26.545S884.514,599.983,884.582,614.617Z" transform="translate(-422.931 -299.887)" fill="#6c63ff"/>
  </g>
</svg>
