<svg xmlns="http://www.w3.org/2000/svg" width="44.871" height="51.281" viewBox="0 0 44.871 51.281">
  <g id="png" transform="translate(-32)">
    <path id="Path_1345" data-name="Path 1345" d="M99.205,0A3.214,3.214,0,0,0,96,3.205V48.076a3.214,3.214,0,0,0,3.205,3.205h32.051a3.215,3.215,0,0,0,3.205-3.205V12.82L121.641,0Z" transform="translate(-57.59)" fill="#e2e5e7"/>
    <path id="Path_1346" data-name="Path 1346" d="M355.205,12.82h9.615L352,0V9.615A3.215,3.215,0,0,0,355.205,12.82Z" transform="translate(-287.949)" fill="#b0b7bd"/>
    <path id="Path_1347" data-name="Path 1347" d="M393.615,137.615,384,128h9.615Z" transform="translate(-316.744 -115.18)" fill="#cad1d8"/>
    <path id="Path_1348" data-name="Path 1348" d="M70.461,257.628a1.607,1.607,0,0,1-1.6,1.6H33.6a1.607,1.607,0,0,1-1.6-1.6V241.6a1.607,1.607,0,0,1,1.6-1.6H68.858a1.607,1.607,0,0,1,1.6,1.6Z" transform="translate(0 -215.962)" fill="#a066aa"/>
    <g id="Group_1647" data-name="Group 1647" transform="translate(38.091 29.365)">
      <path id="Path_1349" data-name="Path 1349" d="M92.816,295.19a.882.882,0,0,1,.87-.886h2.961a3.2,3.2,0,0,1,0,6.407H94.505V302.4a.8.8,0,0,1-.819.885.864.864,0,0,1-.87-.885Zm1.689.729v3.191h2.141a1.6,1.6,0,0,0,0-3.191Z" transform="translate(-92.816 -294.192)" fill="#fff"/>
      <path id="Path_1350" data-name="Path 1350" d="M178.962,295.318c0-.463.1-.91.769-.91.46,0,.564.115.909.447l4.24,5.306V295.19a.9.9,0,0,1,.808-.886.976.976,0,0,1,.909.886V302.4a.856.856,0,0,1-.679.885,1.288,1.288,0,0,1-1.037-.447l-4.24-5.383V302.4a.8.8,0,0,1-.808.885.843.843,0,0,1-.872-.885v-7.086Z" transform="translate(-170.332 -294.192)" fill="#fff"/>
      <path id="Path_1351" data-name="Path 1351" d="M281.785,301.294a4.863,4.863,0,0,1-3.152,1.077,4.225,4.225,0,0,1-4.6-4.588,4.568,4.568,0,0,1,4.715-4.6,4.2,4.2,0,0,1,2.921,1.128.831.831,0,0,1-1.114,1.231,2.7,2.7,0,0,0-1.808-.808,3.053,3.053,0,0,0-3.048,3.048,2.835,2.835,0,0,0,2.934,3.05,3.26,3.26,0,0,0,1.921-.577v-1.574h-1.921a.783.783,0,1,1,0-1.566H281.2a.878.878,0,0,1,.909.758V300.6A1.035,1.035,0,0,1,281.785,301.294Z" transform="translate(-255.882 -293.184)" fill="#fff"/>
    </g>
    <path id="Path_1352" data-name="Path 1352" d="M126.448,417.6H96v1.6h30.448a1.607,1.607,0,0,0,1.6-1.6V416A1.607,1.607,0,0,1,126.448,417.6Z" transform="translate(-57.59 -374.334)" fill="#cad1d8"/>
  </g>
</svg>
