<svg xmlns="http://www.w3.org/2000/svg" width="26.83" height="29.928" viewBox="0 0 26.83 29.928">
  <path id="file_1_" data-name="file (1)" d="M10.989,28.759A1.169,1.169,0,0,1,9.82,29.928H4.676A4.681,4.681,0,0,1,0,25.252V4.676A4.681,4.681,0,0,1,4.676,0H19.049a4.682,4.682,0,0,1,4.676,4.676V15.841a1.169,1.169,0,1,1-2.338,0V4.676a2.341,2.341,0,0,0-2.338-2.338H4.676A2.341,2.341,0,0,0,2.338,4.676V25.252A2.341,2.341,0,0,0,4.676,27.59H9.82a1.169,1.169,0,0,1,1.169,1.169ZM17.88,7.014H5.839a1.169,1.169,0,0,0,0,2.338H17.88a1.169,1.169,0,1,0,0-2.338Zm1.169,5.845a1.169,1.169,0,0,0-1.169-1.169H5.839a1.169,1.169,0,0,0,0,2.338H17.88A1.169,1.169,0,0,0,19.049,12.86ZM5.839,16.367a1.169,1.169,0,0,0,0,2.338h6.144a1.169,1.169,0,0,0,0-2.338ZM26.618,24.93c-.041.059-.182.258-.269.368a16.451,16.451,0,0,1-2.583,2.663,8.017,8.017,0,0,1-5,1.967,8.017,8.017,0,0,1-5-1.967A16.447,16.447,0,0,1,11.179,25.3c-.088-.11-.229-.31-.27-.368a1.169,1.169,0,0,1,0-1.344c.041-.058.182-.258.27-.368a16.448,16.448,0,0,1,2.583-2.663,8.017,8.017,0,0,1,5-1.967,8.017,8.017,0,0,1,5,1.967,16.447,16.447,0,0,1,2.583,2.663c.088.11.229.31.27.368A1.169,1.169,0,0,1,26.618,24.93Zm-2.439-.672c-1.859-2.211-3.679-3.332-5.415-3.332s-3.557,1.12-5.415,3.332c1.859,2.211,3.679,3.332,5.415,3.332S22.32,26.47,24.179,24.258Zm-5.357-2.221a2.221,2.221,0,1,0,2.221,2.221A2.221,2.221,0,0,0,18.822,22.037Zm0,0" fill="#697d89"/>
</svg>
