<svg xmlns="http://www.w3.org/2000/svg" width="23.986" height="29.522" viewBox="0 0 23.986 29.522">
  <g id="trash_1_" data-name="trash (1)" transform="translate(-48)">
    <path id="Path_1353" data-name="Path 1353" d="M69.68,3.69H64.606V2.768A2.771,2.771,0,0,0,61.838,0h-3.69A2.771,2.771,0,0,0,55.38,2.768V3.69H50.306A2.309,2.309,0,0,0,48,6V9.226a.923.923,0,0,0,.923.923h.5l.8,16.738a2.764,2.764,0,0,0,2.764,2.636H67a2.764,2.764,0,0,0,2.764-2.636l.8-16.738h.5a.923.923,0,0,0,.923-.923V6A2.309,2.309,0,0,0,69.68,3.69ZM57.226,2.768a.924.924,0,0,1,.923-.923h3.69a.924.924,0,0,1,.923.923V3.69H57.226ZM49.845,6a.462.462,0,0,1,.461-.461H69.68A.462.462,0,0,1,70.141,6V8.3h-20.3ZM67.92,26.8a.921.921,0,0,1-.921.879H52.988a.921.921,0,0,1-.921-.879l-.793-16.65H68.712Z" fill="#f66c6c"/>
    <path id="Path_1354" data-name="Path 1354" d="M240.923,221.838a.923.923,0,0,0,.923-.923V208.923a.923.923,0,0,0-1.845,0v11.993A.923.923,0,0,0,240.923,221.838Z" transform="translate(-180.929 -196.007)" fill="#f66c6c"/>
    <path id="Path_1355" data-name="Path 1355" d="M320.923,221.838a.923.923,0,0,0,.923-.923V208.923a.923.923,0,0,0-1.845,0v11.993A.923.923,0,0,0,320.923,221.838Z" transform="translate(-256.317 -196.007)" fill="#f66c6c"/>
    <path id="Path_1356" data-name="Path 1356" d="M160.923,221.838a.923.923,0,0,0,.923-.923V208.923a.923.923,0,1,0-1.845,0v11.993A.923.923,0,0,0,160.923,221.838Z" transform="translate(-105.542 -196.007)" fill="#f66c6c"/>
  </g>
</svg>
