<svg id="file" xmlns="http://www.w3.org/2000/svg" width="40.999" height="49.023" viewBox="0 0 40.999 49.023">
  <path id="Path_1360" data-name="Path 1360" d="M78.355,64.523V88.361a3.569,3.569,0,0,1-3.569,3.569H45.468A3.569,3.569,0,0,1,41.9,88.361V51.019a3.569,3.569,0,0,1,3.569-3.569H61.281Z" transform="translate(-41.899 -42.907)" fill="#bed8fb"/>
  <path id="Path_1361" data-name="Path 1361" d="M92.918,44.48a3.569,3.569,0,0,1-3.569-3.569V3.569A3.569,3.569,0,0,1,92.918,0h15.814c2.719,0,17.074,14.355,17.074,17.073V40.911a3.569,3.569,0,0,1-3.569,3.569Z" transform="translate(-84.806 0)" fill="#ddeafb"/>
  <path id="Path_1362" data-name="Path 1362" d="M294.6,17.074v1.51a5.756,5.756,0,0,0-5.756-5.756h-3.5a3.569,3.569,0,0,1-3.569-3.569v-3.5A5.756,5.756,0,0,0,276.014,0h1.51a10.251,10.251,0,0,1,7.248,3L291.6,9.826A10.252,10.252,0,0,1,294.6,17.074Z" transform="translate(-253.598 0)" fill="#bed8fb"/>
  <g id="Group_1670" data-name="Group 1670" transform="translate(14.832 14.57)">
    <path id="Path_1363" data-name="Path 1363" d="M212.917,217.386V227.82a.815.815,0,0,0,.815.815h5.476a.815.815,0,0,0,.815-.815V217.386h2.328a.815.815,0,0,0,.576-1.391l-5.2-5.2a1.775,1.775,0,0,0-2.511,0l-5.2,5.2a.815.815,0,0,0,.576,1.391Z" transform="translate(-208.531 -204.709)" fill="#80b4fb"/>
    <path id="Path_1364" data-name="Path 1364" d="M198.4,155.387h12.7a1.588,1.588,0,0,0,1.588-1.588v-.044a1.588,1.588,0,0,0-1.588-1.588H198.4a1.588,1.588,0,0,0-1.588,1.588v.044A1.588,1.588,0,0,0,198.4,155.387Z" transform="translate(-196.809 -152.167)" fill="#80b4fb"/>
  </g>
</svg>
