<svg id="download_1_" data-name="download (1)" xmlns="http://www.w3.org/2000/svg" width="27.031" height="27.031" viewBox="0 0 27.031 27.031">
  <g id="Group_1649" data-name="Group 1649" transform="translate(9.011)">
    <g id="Group_1648" data-name="Group 1648">
      <path id="Path_1357" data-name="Path 1357" d="M179.565,13.012a1.127,1.127,0,0,0-1.008-.623H176.3V1.126a1.126,1.126,0,1,0-2.253,0V12.389H171.8a1.126,1.126,0,0,0-.9,1.8l3.379,4.505c.015.019.037.026.053.044a1.1,1.1,0,0,0,.26.217,1.159,1.159,0,0,0,.116.078,1.057,1.057,0,0,0,.945,0,1.143,1.143,0,0,0,.115-.078,1.1,1.1,0,0,0,.26-.217c.015-.018.038-.025.053-.044l3.379-4.505A1.125,1.125,0,0,0,179.565,13.012Z" transform="translate(-170.674)" fill="#7c76fe"/>
    </g>
  </g>
  <g id="Group_1651" data-name="Group 1651" transform="translate(0 16.894)">
    <g id="Group_1650" data-name="Group 1650">
      <path id="Path_1358" data-name="Path 1358" d="M25.9,320a1.126,1.126,0,0,0-1.126,1.126v3.379a3.383,3.383,0,0,1-3.379,3.379H5.631a3.383,3.383,0,0,1-3.379-3.379v-3.379a1.126,1.126,0,0,0-2.253,0v3.379a5.638,5.638,0,0,0,5.631,5.631H21.4a5.638,5.638,0,0,0,5.631-5.631v-3.379A1.126,1.126,0,0,0,25.9,320Z" transform="translate(0 -320)" fill="#7c76fe"/>
    </g>
  </g>
</svg>
