<svg id="icon_2_" data-name="icon (2)" xmlns="http://www.w3.org/2000/svg" width="16.529" height="17.079" viewBox="0 0 16.529 17.079">
  <g id="Group_538" data-name="Group 538" transform="translate(0)">
    <path id="Path_847" data-name="Path 847" d="M3.776,4.136h.777a.472.472,0,0,0,.517-.41V.409A.47.47,0,0,0,4.552,0H3.776a.474.474,0,0,0-.518.409V3.726A.473.473,0,0,0,3.776,4.136Z" transform="translate(0.041)" fill="#2e2e3b"/>
    <path id="Path_848" data-name="Path 848" d="M11.178,4.136h.775a.47.47,0,0,0,.517-.41V.409A.47.47,0,0,0,11.953,0h-.775a.472.472,0,0,0-.517.409V3.726A.472.472,0,0,0,11.178,4.136Z" transform="translate(0.758)" fill="#2e2e3b"/>
    <path id="Path_849" data-name="Path 849" d="M16.155,1.443H14.1v2.54A1.088,1.088,0,0,1,12.96,5.012h-.775a1.089,1.089,0,0,1-1.139-1.029V1.443H5.979v2.54A1.089,1.089,0,0,1,4.84,5.012H4.067A1.09,1.09,0,0,1,2.93,3.983V1.443H.871a.623.623,0,0,0-.621.623V16.318a.679.679,0,0,0,.381.621H15.918c.581,0,.862-.278.862-.621V2.064A.626.626,0,0,0,16.155,1.443Zm-.333,14.088c0,.619-.533.565-.533.565H9.716a31.78,31.78,0,0,0,6.106-4.133Zm.117-5.279c-.234.922-.75,1.991-1.692,1.292-1.373-1.017-2.727-1.88-2.9.165-.144,1.722-3.327,4.064-4.02,4.553H1.284a.193.193,0,0,1-.194-.194V7.281a.194.194,0,0,1,.194-.2H15.745a.2.2,0,0,1,.2.2v2.97Z" transform="translate(-0.25 0.14)" fill="#2e2e3b"/>
    <rect id="Rectangle_511" data-name="Rectangle 511" width="2.415" height="2.414" transform="translate(3.299 8.742)" fill="#2e2e3b"/>
    <rect id="Rectangle_512" data-name="Rectangle 512" width="2.413" height="2.414" transform="translate(7.272 8.742)" fill="#2e2e3b"/>
    <rect id="Rectangle_513" data-name="Rectangle 513" width="2.415" height="2.414" transform="translate(3.299 12.404)" fill="#2e2e3b"/>
    <path id="Path_850" data-name="Path 850" d="M6.88,13.723h.7a20.709,20.709,0,0,0,1.714-1.812v-.6H6.88Z" transform="translate(0.392 1.095)" fill="#2e2e3b"/>
    <path id="Path_851" data-name="Path 851" d="M10.386,9.109a1.11,1.11,0,0,1,.8-.31,3.178,3.178,0,0,1,1.613.654V7.97H10.386Z" transform="translate(0.731 0.772)" fill="#2e2e3b"/>
  </g>
</svg>
